<?xml version="1.0" encoding="utf-8"?>
<!-- Generator: Adobe Illustrator 17.0.0, SVG Export Plug-In . SVG Version: 6.00 Build 0)  -->
<!DOCTYPE svg PUBLIC "-//W3C//DTD SVG 1.1//EN" "http://www.w3.org/Graphics/SVG/1.1/DTD/svg11.dtd">
<svg version="1.1" id="Layer_1" xmlns="http://www.w3.org/2000/svg" xmlns:xlink="http://www.w3.org/1999/xlink" x="0px" y="0px"
	 width="283.465px" height="83.128px" viewBox="0 0 283.465 83.128" enable-background="new 0 0 283.465 83.128"
	 xml:space="preserve">
<g>
	<path fill="#FFFFFF" d="M20.194,80.7c-11.069,0-18.776-8.44-18.776-18.777c0-10.329,7.708-18.776,18.776-18.776
		S38.97,51.595,38.97,61.923C38.97,72.259,31.262,80.7,20.194,80.7 M12.486,38.884c-2.705,0-5.002-2.212-5.002-4.918
		c0-2.79,2.212-5.002,5.002-5.002c2.705,0,4.918,2.212,4.918,5.002C17.404,36.672,15.191,38.884,12.486,38.884 M20.194,51.672
		c-5.658,0-9.103,4.756-9.103,10.252c0,5.496,3.445,10.252,9.103,10.252c5.658,0,9.103-4.756,9.103-10.252
		C29.297,56.427,25.851,51.672,20.194,51.672 M27.902,38.884c-2.705,0-4.918-2.212-4.918-4.918c0-2.79,2.212-5.002,4.918-5.002
		c2.79,0,5.002,2.212,5.002,5.002C32.904,36.672,30.692,38.884,27.902,38.884"/>
	<path fill="#FFFFFF" d="M45.368,29.374c0-2.705,2.212-4.918,4.918-4.918s4.925,2.212,4.925,4.918v19.594
		c2.459-4.016,6.637-5.819,10.907-5.819c10.822,0,16.641,9.103,16.641,18.776c0,9.673-5.742,18.776-16.641,18.776
		c-4.841,0-8.856-2.212-11.238-5.819v0.493c0,2.705-1.888,5.002-4.756,5.002s-4.756-2.22-4.756-4.925V29.374z M63.983,51.511
		c-5.573,0-8.772,4.918-8.772,10.413c0,5.496,3.114,10.413,8.772,10.413c5.658,0,8.941-4.671,8.941-10.413
		C72.924,56.182,69.64,51.511,63.983,51.511"/>
	<path fill="#FFFFFF" d="M89.24,48.396c0-2.705,2.212-4.918,4.918-4.918c2.705,0,4.925,2.212,4.925,4.918v16.071
		c0,4.432,2.952,7.546,7.538,7.546c4.594,0,7.546-3.114,7.546-7.546V48.396c0-2.705,2.212-4.918,4.918-4.918
		c2.705,0,4.925,2.212,4.925,4.918v15.331c0,9.843-7.461,16.973-17.389,16.973c-9.92,0-17.381-7.13-17.381-16.973V48.396z"/>
	<path fill="#FFFFFF" d="M69.975,14.915h-3.353c-0.493,0-0.894-0.409-0.894-0.902V3.484c0-0.501,0.401-0.902,0.894-0.902h3.353
		c3.738,0,6.058,2.628,6.058,6.166S73.713,14.915,69.975,14.915 M69.921,4.209H67.47v9.08h2.451c2.775,0,4.37-1.888,4.37-4.54
		S72.696,4.209,69.921,4.209"/>
	<path fill="#FFFFFF" d="M85.783,10.918c0,0.293-0.17,0.594-0.655,0.594h-5.426c0.093,1.272,0.94,2.235,2.451,2.235
		c0.94,0,1.503-0.331,2.104-0.902c0.146-0.154,0.347-0.285,0.563-0.285c0.378,0,0.709,0.285,0.709,0.725
		c0,0.185-0.092,0.355-0.224,0.501c-0.686,0.817-1.919,1.357-3.23,1.357c-2.698,0-4.131-1.927-4.131-4.247
		c0-2.428,1.719-4.239,4.062-4.239C84.295,6.656,85.783,8.544,85.783,10.918 M82.006,8.043c-1.249,0-2.104,0.91-2.266,2.058h4.463
		C84.056,8.991,83.239,8.043,82.006,8.043"/>
	<path fill="#FFFFFF" d="M92.241,8.322c-1.434,0-2.305,0.963-2.305,2.837v3.037c0,0.478-0.362,0.871-0.856,0.871
		c-0.54,0-0.848-0.393-0.848-0.871V7.621c0-0.524,0.362-0.894,0.871-0.894c0.486,0,0.832,0.355,0.832,0.894v0.794
		c0.308-1.056,1.164-1.727,2.305-1.727c0.493,0,0.802,0.355,0.802,0.817S92.695,8.322,92.241,8.322"/>
	<path fill="#FFFFFF" d="M107.464,2.949c0.162-0.409,0.439-0.516,0.763-0.516c0.401,0,0.832,0.277,0.832,0.832
		c0,0.108-0.039,0.224-0.092,0.37l-4.586,10.93c-0.131,0.316-0.362,0.501-0.748,0.501c-0.378,0-0.617-0.185-0.74-0.501l-4.594-10.93
		c-0.054-0.146-0.085-0.262-0.085-0.37c0-0.555,0.432-0.832,0.832-0.832c0.324,0,0.601,0.108,0.763,0.516l3.823,9.427L107.464,2.949
		z"/>
	<path fill="#FFFFFF" d="M116.955,10.918c0,0.293-0.17,0.594-0.655,0.594h-5.426c0.092,1.272,0.94,2.235,2.451,2.235
		c0.94,0,1.503-0.331,2.104-0.902c0.146-0.154,0.347-0.285,0.563-0.285c0.378,0,0.709,0.285,0.709,0.725
		c0,0.185-0.092,0.355-0.224,0.501c-0.686,0.817-1.919,1.357-3.23,1.357c-2.698,0-4.131-1.927-4.131-4.247
		c0-2.428,1.719-4.239,4.062-4.239C115.468,6.656,116.955,8.544,116.955,10.918 M113.178,8.043c-1.249,0-2.104,0.91-2.266,2.058
		h4.463C115.229,8.991,114.412,8.043,113.178,8.043"/>
	<path fill="#FFFFFF" d="M123.34,8.322c-1.434,0-2.305,0.963-2.305,2.837v3.037c0,0.478-0.362,0.871-0.856,0.871
		c-0.54,0-0.848-0.393-0.848-0.871V7.621c0-0.524,0.362-0.894,0.871-0.894c0.486,0,0.832,0.355,0.832,0.894v0.794
		c0.308-1.056,1.164-1.727,2.305-1.727c0.493,0,0.802,0.355,0.802,0.817S123.795,8.322,123.34,8.322"/>
	<path fill="#FFFFFF" d="M130.618,15.138c-1.218,0-2.305-0.632-2.852-1.588v0.624c0,0.486-0.308,0.894-0.832,0.894
		c-0.524,0-0.817-0.393-0.817-0.871V3.298c0-0.478,0.347-0.871,0.856-0.871c0.501,0,0.848,0.393,0.848,0.871v4.948
		c0.586-0.94,1.58-1.596,2.798-1.596c2.081,0,3.792,1.688,3.792,4.247C134.411,13.365,132.699,15.138,130.618,15.138 M130.271,8.1
		c-1.472,0-2.451,1.318-2.451,2.798s0.979,2.798,2.451,2.798c1.472,0,2.428-1.133,2.428-2.798
		C132.699,9.226,131.744,8.1,130.271,8.1"/>
	<path fill="#FFFFFF" d="M144.586,14.194c0,0.486-0.324,0.871-0.848,0.871c-0.509,0-0.84-0.385-0.84-0.871v-0.409
		c-0.501,0.778-1.464,1.357-2.644,1.357c-2.544,0-4.008-1.896-4.008-4.247c0-2.312,1.626-4.239,4.185-4.239
		c2.613,0,4.155,1.742,4.155,4.239V14.194z M140.416,8.136c-1.449,0-2.467,1.241-2.467,2.759c0,1.596,0.856,2.759,2.467,2.759
		c1.503,0,2.467-1.31,2.467-2.759C142.882,9.192,141.865,8.136,140.416,8.136"/>
	<path fill="#FFFFFF" d="M150.958,6.654c2.197,0,3.808,1.703,3.808,3.869v3.669c0,0.486-0.378,0.871-0.848,0.871
		c-0.478,0-0.856-0.385-0.856-0.871v-3.869c0-1.172-0.91-2.073-2.104-2.073c-1.195,0-2.089,0.902-2.089,2.073v3.869
		c0,0.486-0.378,0.871-0.848,0.871s-0.856-0.385-0.856-0.871v-3.669C147.166,8.358,148.761,6.654,150.958,6.654"/>
	<path fill="#FFFFFF" d="M160.828,6.657c1.218,0,2.212,0.647,2.798,1.588V3.304c0-0.486,0.339-0.871,0.848-0.871
		s0.856,0.385,0.856,0.871v10.891c0,0.486-0.293,0.871-0.817,0.871c-0.524,0-0.832-0.409-0.832-0.886v-0.632
		c-0.547,0.963-1.634,1.596-2.852,1.596c-2.081,0-3.792-1.781-3.792-4.247C157.036,8.337,158.747,6.657,160.828,6.657
		 M161.175,13.694c1.472,0,2.451-1.318,2.451-2.798s-0.979-2.798-2.451-2.798c-1.472,0-2.428,1.133-2.428,2.798
		S159.703,13.694,161.175,13.694"/>
	<path fill="#FFFFFF" d="M177.739,3.949h-0.509c-0.925,0-1.449,0.355-1.449,1.572v1.357h1.796c0.401,0,0.709,0.316,0.709,0.725
		c0,0.409-0.308,0.717-0.709,0.717h-1.796v5.873c0,0.486-0.347,0.871-0.856,0.871c-0.509,0-0.848-0.385-0.848-0.871V8.319h-1.071
		c-0.401,0-0.709-0.308-0.709-0.717c0-0.409,0.308-0.725,0.709-0.725h1.071V5.652c0-1.942,0.925-3.145,3.029-3.145h0.632
		c0.401,0,0.709,0.316,0.709,0.717C178.448,3.633,178.14,3.949,177.739,3.949"/>
	<path fill="#FFFFFF" d="M180.078,11.267V7.599c0-0.478,0.385-0.871,0.856-0.871c0.47,0,0.856,0.393,0.856,0.871v3.869
		c0,1.172,0.886,2.081,2.081,2.081c1.202,0,2.104-0.91,2.104-2.081V7.599c0-0.478,0.385-0.871,0.856-0.871
		c0.47,0,0.856,0.393,0.856,0.871v3.669c0,2.166-1.619,3.869-3.815,3.869C181.681,15.137,180.078,13.433,180.078,11.267
		 M181.388,4.431c0,0.54,0.416,0.963,0.94,0.963c0.532,0,0.948-0.424,0.948-0.963c0-0.54-0.416-0.963-0.948-0.963
		C181.804,3.467,181.388,3.891,181.388,4.431 M184.471,4.431c0,0.54,0.416,0.963,0.94,0.963c0.532,0,0.948-0.424,0.948-0.963
		c0-0.54-0.416-0.963-0.948-0.963C184.887,3.467,184.471,3.891,184.471,4.431"/>
	<path fill="#FFFFFF" d="M194.398,8.322c-1.434,0-2.305,0.963-2.305,2.837v3.037c0,0.478-0.362,0.871-0.856,0.871
		c-0.54,0-0.848-0.393-0.848-0.871V7.621c0-0.524,0.362-0.894,0.871-0.894c0.486,0,0.832,0.355,0.832,0.894v0.794
		c0.308-1.056,1.164-1.727,2.305-1.727c0.493,0,0.802,0.355,0.802,0.817S194.853,8.322,194.398,8.322"/>
	<path fill="#FFFFFF" d="M69.513,24.51c2.197,0,3.808,1.703,3.808,3.869v3.669c0,0.486-0.378,0.871-0.848,0.871
		c-0.478,0-0.856-0.385-0.856-0.871v-3.869c0-1.172-0.91-2.073-2.104-2.073c-1.195,0-2.089,0.902-2.089,2.073v3.869
		c0,0.486-0.378,0.871-0.848,0.871c-0.47,0-0.856-0.385-0.856-0.871v-3.669C65.721,26.213,67.316,24.51,69.513,24.51"/>
	<path fill="#FFFFFF" d="M83.971,32.05c0,0.486-0.324,0.871-0.848,0.871c-0.509,0-0.84-0.385-0.84-0.871v-0.409
		c-0.501,0.778-1.464,1.357-2.644,1.357c-2.544,0-4.008-1.896-4.008-4.247c0-2.312,1.626-4.239,4.185-4.239
		c2.613,0,4.155,1.742,4.155,4.239V32.05z M79.801,25.991c-1.449,0-2.467,1.241-2.467,2.759c0,1.596,0.856,2.759,2.467,2.759
		c1.503,0,2.467-1.31,2.467-2.759C82.268,27.047,81.251,25.991,79.801,25.991"/>
	<path fill="#FFFFFF" d="M93.212,25.676c0.146,0.17,0.254,0.331,0.254,0.609c0,0.378-0.293,0.709-0.778,0.709
		c-0.308,0-0.509-0.262-0.725-0.447c-0.424-0.37-0.948-0.57-1.542-0.57c-1.688,0-2.559,1.295-2.559,2.775
		c0,1.48,0.871,2.783,2.559,2.783c0.594,0,1.118-0.208,1.542-0.578c0.216-0.185,0.416-0.447,0.725-0.447
		c0.486,0,0.778,0.339,0.778,0.709c0,0.277-0.108,0.439-0.254,0.609c-0.547,0.671-1.673,1.164-2.813,1.164
		c-2.667,0-4.247-1.865-4.247-4.239c0-2.374,1.58-4.239,4.247-4.239C91.539,24.512,92.664,25.013,93.212,25.676"/>
	<path fill="#FFFFFF" d="M102.628,32.921c-0.509,0-0.856-0.385-0.856-0.871v-3.708c0-1.295-0.686-2.258-2.05-2.258
		c-1.357,0-2.135,1.017-2.135,2.282v3.684c0,0.486-0.362,0.871-0.856,0.871c-0.509,0-0.856-0.385-0.856-0.871V21.174
		c0-0.555,0.362-0.886,0.856-0.886c0.47,0,0.856,0.277,0.856,0.886v4.895c0.501-1.002,1.411-1.557,2.613-1.557
		c2.081,0,3.284,1.572,3.284,3.761v3.777C103.484,32.512,103.176,32.921,102.628,32.921"/>
	<path fill="#FFFFFF" d="M113.008,32.921c-0.509,0-0.856-0.385-0.856-0.871v-3.708c0-1.295-0.686-2.258-2.05-2.258
		c-1.357,0-2.135,1.017-2.135,2.282v3.684c0,0.486-0.362,0.871-0.856,0.871c-0.509,0-0.856-0.385-0.856-0.871V21.174
		c0-0.555,0.362-0.886,0.856-0.886c0.47,0,0.856,0.277,0.856,0.886v4.895c0.501-1.002,1.411-1.557,2.613-1.557
		c2.081,0,3.284,1.572,3.284,3.761v3.777C113.864,32.512,113.555,32.921,113.008,32.921"/>
	<path fill="#FFFFFF" d="M124.509,32.05c0,0.486-0.324,0.871-0.848,0.871c-0.509,0-0.84-0.385-0.84-0.871v-0.409
		c-0.501,0.778-1.464,1.357-2.644,1.357c-2.544,0-4.008-1.896-4.008-4.247c0-2.312,1.626-4.239,4.185-4.239
		c2.613,0,4.155,1.742,4.155,4.239V32.05z M120.339,25.991c-1.449,0-2.467,1.241-2.467,2.759c0,1.596,0.856,2.759,2.467,2.759
		c1.503,0,2.467-1.31,2.467-2.759C122.805,27.047,121.788,25.991,120.339,25.991"/>
	<path fill="#FFFFFF" d="M128.033,32.921c-0.509,0-0.856-0.385-0.856-0.871V21.158c0-0.486,0.347-0.871,0.856-0.871
		c0.509,0,0.856,0.385,0.856,0.871V32.05C128.889,32.535,128.542,32.921,128.033,32.921"/>
	<path fill="#FFFFFF" d="M133.604,32.921c-0.509,0-0.856-0.385-0.856-0.871v-5.873h-1.372c-0.401,0-0.709-0.316-0.709-0.725
		c0-0.401,0.308-0.717,0.709-0.717h1.372v-2.428c0-0.486,0.347-0.871,0.856-0.871c0.509,0,0.856,0.385,0.856,0.871v2.428h1.557
		c0.401,0,0.709,0.316,0.709,0.717c0,0.409-0.308,0.725-0.709,0.725h-1.557v5.873C134.46,32.535,134.113,32.921,133.604,32.921"/>
	<path fill="#FFFFFF" d="M139.374,21.289c0.547,0,1.002,0.462,1.002,1.017c0,0.555-0.455,1.017-1.002,1.017
		s-0.994-0.462-0.994-1.017C138.38,21.752,138.827,21.289,139.374,21.289 M139.374,32.921c-0.509,0-0.856-0.385-0.856-0.871v-6.598
		c0-0.478,0.362-0.871,0.856-0.871s0.856,0.393,0.856,0.871v6.598C140.23,32.535,139.883,32.921,139.374,32.921"/>
	<path fill="#FFFFFF" d="M146.724,36.387c-1.017,0-2.104-0.208-3.16-0.817c-0.308-0.185-0.455-0.424-0.455-0.686
		c0-0.54,0.563-0.963,1.218-0.57c0.802,0.478,1.565,0.663,2.289,0.663c2.05,0,2.644-0.979,2.644-2.652v-1.179
		c-0.501,0.902-1.572,1.557-2.752,1.557c-2.382,0-3.831-1.858-3.831-4.101c0-2.258,1.434-4.093,3.831-4.093
		c1.233,0,2.305,0.647,2.806,1.557v-0.594c0-0.54,0.331-0.886,0.817-0.886c0.509,0,0.84,0.347,0.84,0.871v6.744
		C150.971,34.753,149.753,36.387,146.724,36.387 M146.832,25.973c-1.472,0-2.451,1.11-2.451,2.628c0,1.503,0.979,2.636,2.451,2.636
		c1.472,0,2.428-1.187,2.428-2.636C149.26,27.137,148.304,25.973,146.832,25.973"/>
	<path fill="#FFFFFF" d="M161.061,28.774c0,0.293-0.17,0.594-0.655,0.594h-5.426c0.092,1.272,0.94,2.235,2.451,2.235
		c0.94,0,1.503-0.331,2.104-0.902c0.146-0.154,0.347-0.285,0.563-0.285c0.378,0,0.709,0.285,0.709,0.725
		c0,0.185-0.092,0.355-0.224,0.501c-0.686,0.817-1.919,1.357-3.23,1.357c-2.698,0-4.131-1.927-4.131-4.247
		c0-2.428,1.719-4.239,4.062-4.239C159.574,24.511,161.061,26.4,161.061,28.774 M157.285,25.899c-1.249,0-2.104,0.91-2.266,2.058
		h4.463C159.335,26.847,158.518,25.899,157.285,25.899"/>
	<path fill="#FFFFFF" d="M166.319,32.995c-1.141,0-2.158-0.37-2.883-0.94c-0.254-0.208-0.362-0.486-0.362-0.725
		c0-0.37,0.285-0.617,0.647-0.617c0.293,0,0.478,0.116,0.671,0.262c0.493,0.37,1.187,0.725,2.058,0.725
		c0.979,0,1.503-0.37,1.503-0.948c0-0.624-0.509-0.871-1.781-1.218c-2.228-0.617-3.045-1.395-3.045-2.729
		c0-1.387,1.249-2.297,3.206-2.297c0.748,0,1.58,0.185,2.251,0.516c0.493,0.247,0.832,0.54,0.832,0.91
		c0,0.331-0.177,0.647-0.647,0.647c-0.239,0-0.47-0.108-0.748-0.254c-0.509-0.277-1.071-0.432-1.719-0.432
		c-0.91,0-1.526,0.247-1.526,0.894c0,0.632,0.547,0.832,1.85,1.226c1.958,0.57,2.975,1.11,2.975,2.605
		C169.603,31.993,168.477,32.995,166.319,32.995"/>
	<path fill="#FFFFFF" d="M187.783,29.771l2.975-8.895c0.131-0.409,0.378-0.594,0.779-0.594c0.47,0,0.778,0.316,0.778,0.802
		c0,0.069-0.015,0.2-0.054,0.316l-3.677,10.891c-0.116,0.331-0.331,0.632-0.817,0.632c-0.385,0-0.655-0.208-0.763-0.54l-2.944-8.91
		l-2.937,8.91c-0.108,0.331-0.378,0.54-0.763,0.54c-0.486,0-0.709-0.301-0.817-0.632L175.867,21.4
		c-0.039-0.116-0.062-0.247-0.062-0.316c0-0.486,0.316-0.802,0.786-0.802c0.393,0,0.647,0.185,0.779,0.594l2.975,8.895l2.937-8.91
		c0.131-0.355,0.362-0.578,0.779-0.578c0.424,0,0.655,0.224,0.786,0.578L187.783,29.771z"/>
	<path fill="#FFFFFF" d="M195.242,21.289c0.547,0,1.002,0.462,1.002,1.017c0,0.555-0.455,1.017-1.002,1.017
		c-0.547,0-0.994-0.462-0.994-1.017C194.248,21.752,194.695,21.289,195.242,21.289 M195.242,32.921
		c-0.509,0-0.856-0.385-0.856-0.871v-6.598c0-0.478,0.362-0.871,0.856-0.871c0.493,0,0.856,0.393,0.856,0.871v6.598
		C196.098,32.535,195.751,32.921,195.242,32.921"/>
	<path fill="#FFFFFF" d="M202.81,26.178c-1.434,0-2.305,0.963-2.305,2.837v3.037c0,0.478-0.362,0.871-0.856,0.871
		c-0.54,0-0.848-0.393-0.848-0.871v-6.575c0-0.524,0.362-0.894,0.871-0.894c0.486,0,0.832,0.355,0.832,0.894v0.794
		c0.308-1.056,1.164-1.727,2.305-1.727c0.493,0,0.802,0.355,0.802,0.817S203.265,26.178,202.81,26.178"/>
	<path fill="#FFFFFF" d="M208.017,32.921c-0.509,0-0.856-0.385-0.856-0.871v-5.873h-1.372c-0.401,0-0.709-0.316-0.709-0.725
		c0-0.401,0.308-0.717,0.709-0.717h1.372v-2.428c0-0.486,0.347-0.871,0.856-0.871c0.509,0,0.856,0.385,0.856,0.871v2.428h1.557
		c0.401,0,0.709,0.316,0.709,0.717c0,0.409-0.308,0.725-0.709,0.725h-1.557v5.873C208.873,32.535,208.526,32.921,208.017,32.921"/>
	<path fill="#FFFFFF" d="M215.802,32.995c-1.141,0-2.158-0.37-2.883-0.94c-0.254-0.208-0.362-0.486-0.362-0.725
		c0-0.37,0.285-0.617,0.647-0.617c0.293,0,0.478,0.116,0.671,0.262c0.493,0.37,1.187,0.725,2.058,0.725
		c0.979,0,1.503-0.37,1.503-0.948c0-0.624-0.509-0.871-1.781-1.218c-2.228-0.617-3.045-1.395-3.045-2.729
		c0-1.387,1.249-2.297,3.206-2.297c0.748,0,1.58,0.185,2.251,0.516c0.493,0.247,0.84,0.54,0.84,0.91
		c0,0.331-0.185,0.647-0.655,0.647c-0.239,0-0.47-0.108-0.748-0.254c-0.509-0.277-1.071-0.432-1.719-0.432
		c-0.91,0-1.526,0.247-1.526,0.894c0,0.632,0.547,0.832,1.85,1.226c1.958,0.57,2.975,1.11,2.975,2.605
		C219.085,31.993,217.96,32.995,215.802,32.995"/>
	<path fill="#FFFFFF" d="M227.922,25.676c0.146,0.17,0.254,0.331,0.254,0.609c0,0.378-0.293,0.709-0.778,0.709
		c-0.308,0-0.509-0.262-0.725-0.447c-0.424-0.37-0.948-0.57-1.542-0.57c-1.688,0-2.559,1.295-2.559,2.775
		c0,1.48,0.871,2.783,2.559,2.783c0.594,0,1.118-0.208,1.542-0.578c0.216-0.185,0.416-0.447,0.725-0.447
		c0.486,0,0.778,0.339,0.778,0.709c0,0.277-0.108,0.439-0.254,0.609c-0.547,0.671-1.673,1.164-2.813,1.164
		c-2.667,0-4.247-1.865-4.247-4.239c0-2.374,1.58-4.239,4.247-4.239C226.25,24.512,227.375,25.013,227.922,25.676"/>
	<path fill="#FFFFFF" d="M237.213,32.921c-0.509,0-0.856-0.385-0.856-0.871v-3.708c0-1.295-0.686-2.258-2.05-2.258
		c-1.357,0-2.135,1.017-2.135,2.282v3.684c0,0.486-0.362,0.871-0.856,0.871c-0.509,0-0.856-0.385-0.856-0.871V21.174
		c0-0.555,0.362-0.886,0.856-0.886c0.47,0,0.856,0.277,0.856,0.886v4.895c0.501-1.002,1.411-1.557,2.613-1.557
		c2.081,0,3.284,1.572,3.284,3.761v3.777C238.069,32.512,237.761,32.921,237.213,32.921"/>
	<path fill="#FFFFFF" d="M248.714,32.05c0,0.486-0.324,0.871-0.848,0.871c-0.509,0-0.84-0.385-0.84-0.871v-0.409
		c-0.501,0.778-1.464,1.357-2.644,1.357c-2.544,0-4.008-1.896-4.008-4.247c0-2.312,1.626-4.239,4.185-4.239
		c2.613,0,4.155,1.742,4.155,4.239V32.05z M244.544,25.991c-1.449,0-2.467,1.241-2.467,2.759c0,1.596,0.856,2.759,2.467,2.759
		c1.503,0,2.467-1.31,2.467-2.759C247.011,27.047,245.993,25.991,244.544,25.991"/>
	<path fill="#FFFFFF" d="M255.702,21.804h-0.509c-0.925,0-1.449,0.355-1.449,1.572v1.357h1.796c0.401,0,0.709,0.316,0.709,0.725
		s-0.308,0.717-0.709,0.717h-1.796v5.873c0,0.486-0.347,0.871-0.856,0.871c-0.509,0-0.848-0.385-0.848-0.871v-5.873h-1.071
		c-0.401,0-0.709-0.308-0.709-0.717s0.308-0.725,0.709-0.725h1.071v-1.226c0-1.942,0.925-3.145,3.029-3.145h0.632
		c0.401,0,0.709,0.316,0.709,0.717C256.411,21.488,256.102,21.804,255.702,21.804"/>
	<path fill="#FFFFFF" d="M260.42,32.921c-0.509,0-0.856-0.385-0.856-0.871v-5.873h-1.372c-0.401,0-0.709-0.316-0.709-0.725
		c0-0.401,0.308-0.717,0.709-0.717h1.372v-2.428c0-0.486,0.347-0.871,0.856-0.871s0.856,0.385,0.856,0.871v2.428h1.557
		c0.401,0,0.709,0.316,0.709,0.717c0,0.409-0.308,0.725-0.709,0.725h-1.557v5.873C261.276,32.535,260.929,32.921,260.42,32.921"/>
	<path fill="#FFFFFF" d="M272.217,28.774c0,0.293-0.17,0.594-0.655,0.594h-5.426c0.093,1.272,0.94,2.235,2.451,2.235
		c0.94,0,1.503-0.331,2.104-0.902c0.146-0.154,0.347-0.285,0.563-0.285c0.378,0,0.709,0.285,0.709,0.725
		c0,0.185-0.092,0.355-0.224,0.501c-0.686,0.817-1.919,1.357-3.23,1.357c-2.698,0-4.131-1.927-4.131-4.247
		c0-2.428,1.719-4.239,4.062-4.239C270.73,24.511,272.217,26.4,272.217,28.774 M268.44,25.899c-1.249,0-2.104,0.91-2.266,2.058
		h4.463C270.491,26.847,269.674,25.899,268.44,25.899"/>
	<path fill="#FFFFFF" d="M278.24,24.51c2.197,0,3.808,1.703,3.808,3.869v3.669c0,0.486-0.378,0.871-0.848,0.871
		c-0.478,0-0.856-0.385-0.856-0.871v-3.869c0-1.172-0.91-2.073-2.104-2.073s-2.089,0.902-2.089,2.073v3.869
		c0,0.486-0.378,0.871-0.848,0.871c-0.47,0-0.856-0.385-0.856-0.871v-3.669C274.447,26.213,276.043,24.51,278.24,24.51"/>
</g>
</svg>
