<?xml version="1.0" encoding="utf-8"?>
<!-- Generator: Adobe Illustrator 17.0.0, SVG Export Plug-In . SVG Version: 6.00 Build 0)  -->
<!DOCTYPE svg PUBLIC "-//W3C//DTD SVG 1.1//EN" "http://www.w3.org/Graphics/SVG/1.1/DTD/svg11.dtd">
<svg version="1.1" id="Layer_1" xmlns="http://www.w3.org/2000/svg" xmlns:xlink="http://www.w3.org/1999/xlink" x="0px" y="0px"
	 width="283.465px" height="167.519px" viewBox="0 0 283.465 167.519" enable-background="new 0 0 283.465 167.519"
	 xml:space="preserve">
<g>
	<polygon fill="#FFFFFF" points="2.275,53.922 2.275,99.006 11.634,99.006 11.634,80.987 29.154,80.987 29.154,72.559 
		11.634,72.559 11.634,62.345 32.211,62.345 32.211,53.922 	"/>
	<polygon fill="#FFFFFF" points="75.66,80.922 67.845,53.919 60.837,53.919 53.021,80.917 46.409,53.919 36.643,53.919 
		48.673,99.003 56.432,99.003 64.341,72.916 72.249,99.003 80.003,99.003 92.1,53.919 82.334,53.919 	"/>
	<path fill="#FFFFFF" d="M123.924,75.897c-2.017-1.883-4.693-2.969-8.665-3.519l-5.238-0.746c-1.6-0.221-3.031-0.828-3.926-1.657
		c-0.777-0.72-1.199-1.76-1.199-2.928c0-2.542,1.708-5.264,6.509-5.264c2.851,0,6.133,0.35,8.865,2.959l0.242,0.232l5.979-5.907
		l-0.257-0.247c-3.766-3.648-8.263-5.274-14.577-5.274c-9.606,0-15.812,5.423-15.812,13.815c0,3.828,1.075,6.766,3.288,8.979
		c2.027,1.96,4.904,3.195,8.793,3.771l5.361,0.746c1.904,0.288,2.887,0.674,3.741,1.472c0.828,0.767,1.261,1.976,1.261,3.483
		c0,4.25-4.08,5.14-7.507,5.14c-4.605,0-8.032-1.189-10.476-3.638l-0.247-0.247l-6.102,6.102l0.242,0.242
		c4.121,4.183,9.046,5.963,16.46,5.963c10.049,0,16.805-5.552,16.805-13.81C127.464,81.376,126.275,78.119,123.924,75.897"/>
	<path fill="#FFFFFF" d="M196.33,58.061c0.556-0.093,1.255-0.319,1.806-0.906c0.448-0.473,1.024-0.674,2.002-0.689h0.067
		c1.065,0,2.048,0.386,2.969,0.787c0.242,0.108,0.479,0.226,0.72,0.35c0.406,0.206,0.823,0.422,1.281,0.566
		c0.417,0.134,0.859,0.159,1.286,0.18c0.175,0.01,0.36,0.021,0.54,0.041l0.443-0.237c0.057-0.103,0.149-0.216,0.247-0.329
		c0.268-0.314,0.664-0.787,0.448-1.456c-0.288-0.9-0.731-1.868-1.78-2.248l-0.828-0.298c-1.461-0.535-2.974-1.091-4.518-1.482
		c-1.909-0.478-3.895-0.113-5.922,1.086c-0.648,0.381-1.044,0.911-1.153,1.528C193.824,55.592,194.154,58.422,196.33,58.061"/>
	<path fill="#FFFFFF" d="M168.939,60.697c0.52,0,1.055-0.185,1.369-0.906c0.031-0.026,0.144-0.072,0.298-0.139
		c0.314-0.134,0.633-0.262,0.957-0.365c0.16-0.057,0.319-0.113,0.479-0.17c0.427-0.154,0.828-0.298,1.23-0.36
		c0.633-0.087,1.286-0.18,1.868,0.113c0.396,0.206,0.89,0.453,1.415,0.587c0.633,0.16,1.271,0.221,1.811,0.257
		c0.859,0.067,1.734-1.446,1.801-1.528c0,0,1.338-2.742-2.789-2.866c-0.247-0.005-0.525-0.154-0.767-0.278
		c-1.255-0.638-2.598-0.777-3.977-0.401c-0.844,0.226-1.646,0.581-2.423,0.926l-0.473,0.206c-0.931,0.406-1.894,0.823-2.547,1.821
		c0,0-1.163,2.614,0.849,2.974C168.697,60.682,168.61,60.697,168.939,60.697"/>
	<path fill="#FFFFFF" d="M225.698,86.698c-0.71-0.391-1.559-0.839-2.449-1.163c-2.696-0.978-4.831-0.777-6.72,0.638
		c-0.659,0.489-1.348,0.931-2.079,1.405c-0.278,0.175-0.556,0.355-0.834,0.535c-0.926-1.374-2.233-2.274-4.209-2.897
		c-1.101-0.35-2.104-0.19-3.072-0.036c-0.314,0.046-0.633,0.098-0.957,0.134c-2.557,0.262-4.42,1.379-5.701,3.401
		c-0.124,0.195-0.288,0.37-0.463,0.561c-0.134,0.144-0.268,0.288-0.386,0.442c-1.101,1.446-2.47,3.242-2.012,5.65
		c0.129,0.674,0.226,1.374,0.324,2.048l0.057,0.386c0.448,3.123,2.063,5.675,4.95,7.785c0.314,0.232,0.628,0.463,0.947,0.689
		c0.978,0.705,1.986,1.43,2.917,2.218l0.525,0.437c2.161,1.816,4.399,3.694,5.871,6.216c0.587,0.993,1.189,1.971,1.652,2.712
		c0.551,0.875,1.364,1.05,2.207,1.05c0.18,0,0.36-0.01,0.54-0.021c0.962-0.057,1.142-0.751,1.302-1.364l0.051-0.195
		c0.494-1.816,1.446-3.411,2.717-5.253c0.365-0.525,0.761-1.044,1.142-1.549c0.612-0.808,1.245-1.641,1.775-2.526
		c1.199-2.007,2.135-3.808,2.861-5.5c0.134-0.324,0.273-0.643,0.412-0.967c1.168-2.691,2.377-5.475,2.285-8.68
		C229.268,89.976,228.106,88.021,225.698,86.698 M215.644,114.015c-2.732-3.648-6.164-6.838-10.785-10.008
		c-2.773-1.909-4.173-4.358-4.667-8.186c-0.232-1.801,0.216-3.252,1.549-5.001l0.237-0.319c0.777-1.034,1.508-2.007,2.804-2.429
		c0.736-0.242,1.446-0.365,2.125-0.365c1.204,0,2.321,0.376,3.381,1.137c0.725,0.52,1.055,1.358,1.039,2.634l-0.01,0.216
		c-0.015,0.581-0.036,1.235,0.715,1.585c0.767,0.355,2.012-0.118,2.48-0.936c1.044-1.842,2.722-3.02,4.384-4.013
		c1.06-0.638,2.11-0.7,3.308-0.19c0.201,0.087,0.396,0.185,0.587,0.288c0.252,0.129,0.515,0.262,0.792,0.365
		c1.286,0.479,1.986,1.533,2.14,3.216c0.206,2.187-0.175,4.389-1.158,6.74c-1.317,3.149-2.917,6.241-4.893,9.442
		c-0.875,1.415-1.832,2.753-2.851,4.168C216.431,112.904,216.04,113.454,215.644,114.015"/>
	<path fill="#FFFFFF" d="M179.031,26.363c-0.077-0.134-0.16-0.273-0.262-0.417c-7.25-9.205-20.386-1.626-20.52-1.549
		c-2.243,1.322-3.982,3.02-5.171,5.042c-1.472,2.506-1.986,5.536-1.528,9.015c0.278,2.161,1.081,4.415,2.377,6.71
		c0.34,0.597,0.849,0.916,1.43,0.916c0.257,0,0.525-0.062,0.803-0.185c0.381-0.17,0.71-0.422,1.009-0.638
		c0.118-0.087,0.237-0.175,0.355-0.257l0.211-0.139l-0.015-0.257c0-0.087,0-0.17,0-0.242c0.005-0.185,0.01-0.376-0.077-0.566
		c-0.16-0.37-0.36-0.803-0.628-1.189c-1.482-2.171-2.007-4.821-1.657-8.371c0.103-2.686,4.132-7.167,8.979-8.706
		c3.334-1.06,8.197-1.163,12.447,4.368c0.196,0.381,0.689,0.767,1.117,0.772c0.684-0.026,1.724-0.067,2.074-1.111
		c0.154-0.473,0.571-1.729-0.551-2.65C179.278,26.785,179.159,26.58,179.031,26.363"/>
	<path fill="#FFFFFF" d="M190.476,7.035c-0.936-0.761-1.219-0.988-2.13-0.458c-0.221,0.123-0.442,0.252-0.664,0.376
		c-0.9,0.504-1.832,1.024-2.578,1.749c-2.665,2.588-5.269,5.32-7.79,7.96l-0.298,0.309c-0.484,0.509-0.659,1.127-0.489,1.708
		c0.175,0.597,0.705,1.05,1.42,1.219c0.288,0.072,0.556,0.108,0.808,0.108c0.859,0,1.518-0.417,2.11-1.312
		c0.283-0.432,0.581-0.875,0.895-1.281c2.562-3.257,4.687-5.593,6.879-7.559c0.494-0.442,0.947-0.942,1.379-1.42
		c0.196-0.221,0.396-0.442,0.597-0.659l0.334-0.355L190.476,7.035z"/>
	<path fill="#FFFFFF" d="M167.297,17.831c0.17,0.103,0.36,0.149,0.566,0.149c0.427,0,0.942-0.195,1.564-0.489l0.232-0.108
		l0.026-0.247c0.098-0.803,0.18-1.59,0.268-2.367c0.19-1.76,0.376-3.427,0.638-5.094c0.221-1.374,0.54-2.768,0.854-4.111
		c0.139-0.607,0.283-1.219,0.417-1.827c0.088-0.417,0.36-1.672-0.957-2.171c-0.607-0.226-1.261-0.18-1.796,0.134
		c-0.556,0.319-0.931,0.895-1.039,1.569c-0.051,0.319-0.103,0.633-0.159,0.947l-0.134,0.813c-0.108,0.664-0.226,1.333-0.345,1.996
		c-0.499,2.861-1.019,5.819-0.844,8.835C166.643,16.854,166.782,17.528,167.297,17.831"/>
	<path fill="#FFFFFF" d="M153.651,9.84c0.504,2.202,1.338,4.374,2.547,6.648c0.237,0.442,0.623,0.751,0.993,1.05
		c0.149,0.123,0.298,0.242,0.432,0.365l0.252,0.237l0.952-0.566v-0.257c0-0.288,0.021-0.576,0.046-0.87
		c0.062-0.705,0.118-1.436-0.123-2.099c-0.787-2.171-1.219-4.476-1.641-6.704c-0.144-0.787-0.293-1.574-0.458-2.362
		c-0.118-0.581-0.309-1.338-0.679-2.002c-0.489-0.885-1.389-1.147-2.449-0.725c-1.25,0.494-1.312,1.394-1.142,2.058
		C152.812,6.352,153.25,8.091,153.651,9.84"/>
	<path fill="#FFFFFF" d="M147.612,23.65l-0.077-0.051c-2.413-1.662-4.904-3.38-7.435-4.955c-1.384-0.864-3.025-1.806-4.981-2.074
		c-1.281-0.175-2.3,0.34-2.532,1.281c-0.324,1.328,1.127,1.852,1.667,2.048c1.574,0.571,3.226,1.199,4.693,2.053
		c0.509,0.293,1.008,0.597,1.513,0.9c2.315,1.405,4.708,2.856,7.656,3.411l0.381,0.072l0.134-0.36
		C149.099,24.674,148.168,24.031,147.612,23.65"/>
	<path fill="#FFFFFF" d="M145.664,36.684c-0.35-0.18-0.669-0.329-1.05-0.345c-2.984,0.021-6.123,0.082-9.606,0.185
		c-0.839,0.021-1.791,0.051-2.634,0.365c-0.648,0.242-1.189,1.05-1.291,1.652c-0.062,0.381,0.026,0.731,0.252,1.029
		c0.283,0.36,0.762,0.592,1.307,0.633l0.221,0.021c0.268,0.021,0.551,0.046,0.834,0.046c0.386,0,0.777-0.046,1.127-0.195
		c1.034-0.453,2.11-0.463,3.242-0.473l0.504-0.005c0.278-0.005,0.556-0.005,0.834-0.005c0.885,0,1.785,0,2.67-0.149l0.499-0.082
		c1.209-0.185,2.578-0.396,3.766-1.708l0.432-0.473l-0.597-0.247C145.989,36.849,145.819,36.762,145.664,36.684"/>
	<path fill="#FFFFFF" d="M226.475,80.967c0.139-2.089,0.185-4.209,0.232-6.262l0.026-1.014c0.103-4.111-0.082-8.49-0.576-13.784
		c-0.087-0.962-0.515-1.59-1.379-2.043c-0.839-0.437-1.626-0.257-2.341,0.54l-0.113,0.129v0.175c0,0.427-0.01,0.844-0.015,1.25
		c-0.005,0.875-0.015,1.698,0.021,2.532c0.051,1.235,0.134,2.47,0.216,3.699c0.154,2.377,0.314,4.826,0.268,7.229
		c-0.062,3.02-0.293,6.092-0.535,9.082c1.276,0.154,2.712,0.489,4.003,0.885C226.352,82.582,226.424,81.769,226.475,80.967"/>
	<path fill="#FFFFFF" d="M192.386,96.004c-2.778,0.17-5.562,0.334-8.341,0.515l-0.746,0.041c-1.081,0.062-2.202,0.123-3.288,0.355
		l-0.777,0.17c-1.008,0.226-1.96,0.437-3.005,0.484c-0.931,0.046-1.94,0.226-2.912,0.396l-1.708,0.293
		c-2.64,0.448-5.377,0.906-7.986,1.811c-0.273,0.098-0.551,0.195-0.823,0.298c-0.798,0.298-1.554,0.576-2.336,0.715
		c-3.041,0.525-5.686,1.981-8.351,3.55c-0.314,0.18-0.561,0.427-0.803,0.669c-0.103,0.103-0.206,0.206-0.314,0.298l-0.283,0.257
		l0.206,0.324c0.376,0.602,0.777,1.168,1.307,1.585l-0.005-0.005l0.103,0.082c0.01,0.005,0.021,0.015,0.031,0.021l3.262,2.49
		c0,0,14.86-10.599,36.733-10.532C192.757,98.082,192.623,96.827,192.386,96.004"/>
	<path fill="#FFFFFF" d="M157.644,43.795c0.082,0.19,0.077,0.381,0.077,0.566c-0.005,0.072-0.005,0.154,0,0.247l0.01,0.252
		l-0.211,0.144c-0.118,0.077-0.232,0.165-0.355,0.252c-0.041,0.031-0.087,0.067-0.134,0.098l0.432,0.602
		c5.058-3.314,9.761-6.432,14.268-9.467c2.125-1.43,4.245-2.964,6.298-4.44l0.942-0.679l-0.242-0.782
		c-0.293,0.062-0.587,0.072-0.834,0.082c-0.427-0.005-0.916-0.391-1.111-0.772c-4.255-5.526-9.112-5.428-12.447-4.368
		c-4.852,1.538-8.876,6.025-8.979,8.706c-0.355,3.55,0.175,6.2,1.657,8.371C157.279,42.992,157.485,43.424,157.644,43.795"/>
	<path fill="#FFFFFF" d="M223.581,88.793c-0.278-0.103-0.535-0.237-0.787-0.365c-0.195-0.103-0.386-0.201-0.587-0.288
		c-1.204-0.509-2.254-0.448-3.314,0.185c-1.657,0.998-3.339,2.176-4.384,4.018c-0.463,0.818-1.713,1.292-2.475,0.936
		c-0.756-0.35-0.736-1.003-0.715-1.585l0.005-0.216c0.015-1.281-0.309-2.115-1.034-2.634c-1.065-0.761-2.182-1.137-3.386-1.137
		c-0.679,0-1.384,0.123-2.125,0.36c-1.291,0.422-2.027,1.4-2.804,2.434l-0.237,0.319c-1.328,1.749-1.78,3.2-1.544,4.996
		c0.494,3.833,1.888,6.283,4.667,8.186c4.615,3.175,8.052,6.36,10.779,10.013c0.396-0.561,0.792-1.111,1.183-1.657
		c1.014-1.415,1.971-2.753,2.845-4.168c1.976-3.206,3.581-6.293,4.898-9.442c0.978-2.351,1.358-4.554,1.158-6.74
		C225.572,90.321,224.867,89.271,223.581,88.793"/>
	<path fill="#FFFFFF" d="M208.309,70.817c-0.37-0.504-0.746-1.024-1.168-1.502c-0.324-0.365-0.643-0.437-0.849-0.437
		c-0.201,0-0.494,0.067-0.777,0.386c-0.283,0.324-0.37,0.597-0.437,0.818c-0.062,0.18-0.103,0.309-0.247,0.489
		c-0.376,0.453-0.854,1.117-1.41,1.883c-0.998,1.384-2.238,3.108-3.2,4.049c-0.252,0.159-0.803,0.535-1.446,0.972
		c-1.147,0.787-2.722,1.868-3.19,2.11c-0.154,0.082-0.304,0.165-0.458,0.252c-0.309,0.175-0.602,0.34-0.906,0.442
		c-2.362,0.818-4.538,1.245-6.637,1.307c-1.713,0.057-3.272-0.159-4.842-0.648c-0.453-0.139-0.906-0.232-1.41-0.329
		c-1.374-0.273-2.629-0.71-3.854-1.328c-0.926-0.473-1.708-1.122-2.542-1.806c-0.35-0.288-0.695-0.571-1.055-0.844
		c-0.185-0.144-0.35-0.345-0.525-0.556c-0.082-0.103-0.17-0.201-0.252-0.293c-1.034-1.147-1.894-2.315-2.629-3.571
		c-0.257-0.432-0.648-0.679-1.075-0.684h-0.01c-0.458,0-0.89,0.273-1.183,0.746c-0.587,0.957-0.458,3.01,0.278,3.9
		c0.545,0.664,1.096,1.328,1.647,1.986c0.201,0.237,0.376,0.499,0.545,0.762c0.319,0.484,0.648,0.983,1.142,1.379
		c0.365,0.293,0.715,0.612,1.06,0.926c0.437,0.396,0.885,0.803,1.364,1.168c0,0,0.731,0.643,2.022,1.41
		c0.026,0.026,0.051,0.041,0.072,0.067c0.118,0.149,0.278,0.185,0.422,0.206c2.11,1.173,5.413,2.495,9.545,2.305
		c6.334-0.293,10.399-0.854,14.757-5.089c0.484-0.386,1.106-1.081,1.852-1.996c0.01-0.015,0.021-0.026,0.031-0.036
		c0.504-0.602,0.921-1.132,1.297-1.616c0.365-0.448,0.679-0.813,0.859-0.973c0.453-0.391,0.803-0.87,1.137-1.338
		c0.345-0.479,0.674-0.931,1.091-1.261c0.9-0.7,1.091-1.677,1.158-2.542C208.494,71.347,208.499,71.069,208.309,70.817"/>
	<path fill="#FFFFFF" d="M233.319,57.798c-0.309-0.273-0.654-0.494-0.983-0.705c-0.257-0.165-0.515-0.329-0.751-0.52l-1.77-1.415
		c-2.331-1.863-4.749-3.787-7.075-5.732c-1.909-1.59-3.792-3.2-5.675-4.816c-1.76-1.508-3.525-3.015-5.3-4.502
		c-2.912-2.434-5.912-4.857-8.814-7.204l-0.566-0.458c-1.214-0.983-2.429-1.95-3.648-2.923c-1.863-1.482-3.787-3.01-5.65-4.548
		c-0.787-0.653-1.667-0.854-2.516-1.044c-0.329-0.077-0.653-0.149-0.972-0.252c-0.35-0.113-0.803,0.067-1.338,0.535
		c-0.252,0.221-0.484,0.468-0.72,0.715c-0.293,0.314-0.576,0.607-0.89,0.844c-2.274,1.703-4.559,3.35-6.699,4.888l-1.924,1.384
		c-2.048,1.482-4.168,3.01-6.298,4.446c-5.171,3.483-10.579,7.065-16.522,10.944c-1.528,0.998-3.118,1.955-4.657,2.887
		c-0.947,0.571-1.893,1.142-2.835,1.729c-1.214,0.756-2.423,1.528-3.658,2.315l-2.11,1.348l0.247,0.386
		c0.823,1.276,1.456,1.852,2.176,2.001c0.278,0.057,0.556,0.036,0.828-0.026l0.803,0.664l3.813-2.351
		c-0.304,0.422-0.417,0.957-0.288,1.502c0.576,2.465,0.607,5.027,0.633,7.502l0.01,1.219c0.015,0.725,0.057,1.451,0.098,2.182
		c0.057,1.05,0.118,2.135,0.082,3.195c-0.036,0.957-0.149,1.94-0.257,2.892c-0.118,1.05-0.247,2.14-0.268,3.221
		c-0.103,4.867-0.561,10.008-1.482,16.661c-0.046,0.34-0.098,0.679-0.149,1.019c-0.113,0.72-0.232,1.472-0.288,2.218
		c-0.103,1.225,0.684,2.104,2.002,2.243c0.185,0.021,0.355,0.031,0.515,0.031c1.029,0,1.461-0.448,1.734-1.646
		c0.16-0.7,0.211-1.425,0.242-2.048c0.026-0.525,0.036-1.055,0.046-1.585c0.021-0.787,0.036-1.6,0.113-2.387
		c0.118-1.214,0.268-2.429,0.417-3.638c0.247-1.981,0.499-4.029,0.607-6.056c0.19-3.607,0.273-7.281,0.35-10.831
		c0.036-1.533,0.067-3.067,0.108-4.6l0.015-0.458l-0.19-0.005c0-0.726,0-1.456-0.005-2.182c-0.01-2.176-0.021-4.425,0.036-6.632
		c0.01-0.453-0.077-0.803-0.206-1.106c0-0.021,0.005-0.031,0-0.052c-0.165-0.942-0.515-1.863-1.142-2.341l40.35-24.873
		c1.127,0.875,2.254,1.749,3.38,2.624l3.216,2.495c0.324,0.252,0.653,0.504,0.983,0.756c0.798,0.612,1.626,1.245,2.403,1.899
		c1.755,1.482,3.499,2.974,5.238,4.471c1.276,1.091,2.552,2.187,3.838,3.278c0.839,0.715,1.683,1.415,2.531,2.12
		c1.487,1.235,3.025,2.506,4.482,3.818c3.571,3.216,7.435,6.617,11.464,9.725c0.34,0.257,0.777,0.381,1.23,0.381
		c0.731,0,1.497-0.319,1.966-0.911C234.266,59.691,234.127,58.508,233.319,57.798"/>
	<polygon fill="#FFFFFF" points="5.007,117.737 5.007,123.192 12.447,123.192 12.447,125.63 5.007,125.63 5.007,133.199 
		2.29,133.199 2.29,115.299 13.734,115.299 13.734,117.737 	"/>
	<path fill="#FFFFFF" d="M23.488,133.197v-1.153c-0.931,0.926-1.811,1.307-3.396,1.307c-1.585,0-2.64-0.381-3.417-1.158
		c-0.653-0.679-1.008-1.657-1.008-2.742c0-2.135,1.482-3.669,4.399-3.669h3.37v-0.906c0-1.605-0.803-2.387-2.789-2.387
		c-1.41,0-2.089,0.329-2.794,1.23l-1.683-1.58c1.204-1.41,2.465-1.837,4.574-1.837c3.494,0,5.253,1.482,5.253,4.373v8.521H23.488z
		 M23.437,127.568h-2.989c-1.513,0-2.29,0.679-2.29,1.837c0,1.153,0.731,1.806,2.336,1.806c0.983,0,1.713-0.072,2.393-0.726
		c0.376-0.381,0.551-0.983,0.551-1.888V127.568z"/>
	<path fill="#FFFFFF" d="M35.732,133.35c-2.866,0-5.68-1.76-5.68-6.535c0-4.78,2.814-6.514,5.68-6.514
		c1.76,0,2.989,0.504,4.199,1.785l-1.76,1.708c-0.803-0.88-1.436-1.204-2.439-1.204c-0.983,0-1.811,0.401-2.362,1.132
		c-0.556,0.705-0.756,1.605-0.756,3.092c0,1.482,0.201,2.413,0.756,3.113c0.551,0.731,1.379,1.132,2.362,1.132
		c1.003,0,1.636-0.324,2.439-1.204l1.76,1.683C38.721,132.82,37.491,133.35,35.732,133.35"/>
	<path fill="#FFFFFF" d="M51.369,133.2v-7.821c0-1.935-1.132-2.789-2.562-2.789c-1.436,0-2.593,0.88-2.593,2.789v7.821h-2.562
		v-17.901h2.562v6.437c0.88-0.957,2.038-1.436,3.293-1.436c2.845,0,4.425,1.914,4.425,4.677v8.222H51.369z"/>
	<polygon fill="#FFFFFF" points="63.563,133.2 61.474,133.2 56.802,120.455 59.514,120.455 62.534,129.428 65.524,120.455 
		68.24,120.455 	"/>
	<path fill="#FFFFFF" d="M72.863,127.568c0,2.187,1.158,3.571,3.247,3.571c1.43,0,2.187-0.401,3.092-1.307l1.631,1.533
		c-1.307,1.307-2.537,1.986-4.775,1.986c-3.195,0-5.732-1.683-5.732-6.535c0-4.127,2.135-6.514,5.403-6.514
		c3.422,0,5.408,2.516,5.408,6.133v1.132H72.863z M78.245,124.048c-0.401-0.957-1.307-1.61-2.516-1.61
		c-1.204,0-2.135,0.653-2.537,1.61c-0.252,0.576-0.304,0.957-0.329,1.734h5.732C78.575,125.005,78.498,124.625,78.245,124.048"/>
	<path fill="#FFFFFF" d="M92.3,123.445c-0.576-0.576-1.029-0.854-1.909-0.854c-1.384,0-2.542,1.106-2.542,2.866v7.744h-2.562v-12.75
		h2.511v1.384c0.653-0.906,1.966-1.533,3.396-1.533c1.235,0,2.161,0.329,3.041,1.209L92.3,123.445z"/>
	<path fill="#FFFFFF" d="M98.182,127.568c0,2.187,1.158,3.571,3.247,3.571c1.43,0,2.187-0.401,3.092-1.307l1.631,1.533
		c-1.307,1.307-2.537,1.986-4.775,1.986c-3.195,0-5.732-1.683-5.732-6.535c0-4.127,2.135-6.514,5.403-6.514
		c3.422,0,5.408,2.516,5.408,6.133v1.132H98.182z M103.564,124.048c-0.401-0.957-1.307-1.61-2.516-1.61
		c-1.204,0-2.135,0.653-2.537,1.61c-0.252,0.576-0.304,0.957-0.329,1.734h5.732C103.893,125.005,103.816,124.625,103.564,124.048"/>
	<path fill="#FFFFFF" d="M110.528,115.224h2.717v2.717h-2.717V115.224z M110.606,120.452h2.562v12.745h-2.562V120.452z"/>
	<path fill="#FFFFFF" d="M125.763,133.2v-7.769c0-1.986-1.132-2.84-2.562-2.84c-1.436,0-2.64,0.88-2.64,2.84v7.769h-2.568v-12.745
		h2.516v1.281c0.88-0.957,2.11-1.436,3.396-1.436c1.307,0,2.387,0.427,3.139,1.158c0.983,0.957,1.281,2.161,1.281,3.597v8.145
		H125.763z"/>
	<path fill="#FFFFFF" d="M132.957,115.224h2.717v2.717h-2.717V115.224z M133.029,120.452h2.562v12.745h-2.562V120.452z"/>
	<path fill="#FFFFFF" d="M144.694,138.505c-1.935,0-3.164-0.453-4.497-1.688l1.631-1.631c0.808,0.756,1.508,1.132,2.768,1.132
		c2.161,0,2.989-1.533,2.989-3.242v-1.636c-0.926,1.106-1.986,1.456-3.293,1.456c-1.281,0-2.336-0.427-3.041-1.132
		c-1.23-1.23-1.436-3.015-1.436-5.176s0.206-3.946,1.436-5.181c0.705-0.7,1.785-1.106,3.067-1.106c1.358,0,2.387,0.355,3.344,1.513
		v-1.358h2.49v12.668C150.153,136.241,148.09,138.505,144.694,138.505 M144.998,122.59c-2.315,0-2.614,1.986-2.614,3.998
		s0.298,3.998,2.614,3.998c2.315,0,2.588-1.986,2.588-3.998S147.313,122.59,144.998,122.59"/>
	<path fill="#FFFFFF" d="M162.673,133.2v-1.281c-0.88,0.952-2.11,1.43-3.396,1.43c-1.307,0-2.387-0.427-3.144-1.153
		c-0.978-0.957-1.281-2.166-1.281-3.597v-8.145h2.568v7.769c0,1.986,1.132,2.84,2.562,2.84c1.436,0,2.64-0.88,2.64-2.84v-7.769
		h2.568V133.2H162.673z"/>
	<path fill="#FFFFFF" d="M177.783,133.2v-7.769c0-1.986-1.132-2.84-2.562-2.84c-1.436,0-2.64,0.88-2.64,2.84v7.769h-2.568v-12.745
		h2.516v1.281c0.88-0.957,2.11-1.436,3.396-1.436c1.307,0,2.387,0.427,3.139,1.158c0.983,0.957,1.281,2.161,1.281,3.597v8.145
		H177.783z"/>
	<path fill="#FFFFFF" d="M189.322,138.505c-1.935,0-3.164-0.453-4.497-1.688l1.631-1.631c0.808,0.756,1.508,1.132,2.768,1.132
		c2.161,0,2.989-1.533,2.989-3.242v-1.636c-0.926,1.106-1.986,1.456-3.293,1.456c-1.281,0-2.336-0.427-3.041-1.132
		c-1.23-1.23-1.436-3.015-1.436-5.176s0.206-3.946,1.436-5.181c0.705-0.7,1.785-1.106,3.067-1.106c1.358,0,2.387,0.355,3.344,1.513
		v-1.358h2.49v12.668C194.781,136.241,192.717,138.505,189.322,138.505 M189.625,122.59c-2.315,0-2.614,1.986-2.614,3.998
		s0.298,3.998,2.614,3.998c2.315,0,2.588-1.986,2.588-3.998S191.941,122.59,189.625,122.59"/>
	<polygon fill="#FFFFFF" points="18.083,160.937 15.721,160.937 12.073,148.393 8.456,160.937 6.089,160.937 1.417,143.037 
		4.283,143.037 7.396,155.833 10.993,143.037 13.18,143.037 16.776,155.833 19.894,143.037 22.76,143.037 	"/>
	<path fill="#FFFFFF" d="M31.686,160.936v-1.153c-0.931,0.926-1.811,1.307-3.396,1.307c-1.585,0-2.64-0.381-3.416-1.158
		c-0.653-0.679-1.008-1.662-1.008-2.742c0-2.135,1.482-3.669,4.399-3.669h3.37v-0.906c0-1.611-0.803-2.387-2.789-2.387
		c-1.41,0-2.089,0.324-2.794,1.23l-1.683-1.585c1.204-1.405,2.465-1.832,4.574-1.832c3.494,0,5.253,1.482,5.253,4.373v8.521H31.686z
		 M25.373,143.035h2.315v2.717h-2.315V143.035z M31.635,155.307h-2.989c-1.513,0-2.29,0.679-2.29,1.837
		c0,1.153,0.731,1.806,2.336,1.806c0.983,0,1.713-0.072,2.393-0.726c0.376-0.381,0.551-0.983,0.551-1.888V155.307z M30.806,143.035
		h2.315v2.717h-2.315V143.035z"/>
	<path fill="#FFFFFF" d="M45.891,151.183c-0.576-0.576-1.029-0.854-1.909-0.854c-1.384,0-2.542,1.106-2.542,2.866v7.744h-2.562
		v-12.75h2.511v1.384c0.653-0.906,1.96-1.533,3.396-1.533c1.23,0,2.161,0.329,3.041,1.209L45.891,151.183z"/>
	<path fill="#FFFFFF" d="M66.205,160.937v-7.769c0-1.986-1.132-2.84-2.562-2.84c-1.384,0-2.64,0.88-2.64,2.717v7.893h-2.568v-7.769
		c0-1.986-1.132-2.84-2.562-2.84c-1.436,0-2.64,0.88-2.64,2.84v7.769h-2.568v-12.745h2.516v1.281
		c0.854-0.931,2.11-1.436,3.396-1.436c1.58,0,2.815,0.633,3.617,1.863c1.034-1.255,2.315-1.863,3.998-1.863
		c1.307,0,2.465,0.427,3.221,1.158c0.978,0.957,1.353,2.161,1.353,3.597v8.145H66.205z"/>
	<path fill="#FFFFFF" d="M75.355,155.306c0,2.187,1.158,3.571,3.247,3.571c1.43,0,2.187-0.401,3.092-1.307l1.631,1.533
		c-1.307,1.307-2.537,1.986-4.775,1.986c-3.195,0-5.732-1.683-5.732-6.535c0-4.127,2.135-6.514,5.403-6.514
		c3.422,0,5.408,2.516,5.408,6.133v1.132H75.355z M80.737,151.786c-0.401-0.957-1.307-1.61-2.516-1.61
		c-1.204,0-2.135,0.653-2.537,1.61c-0.252,0.576-0.304,0.957-0.329,1.734h5.732C81.066,152.743,80.989,152.363,80.737,151.786"/>
	<path fill="#FFFFFF" d="M96.778,159.955c-0.705,0.705-1.811,1.132-3.092,1.132c-1.358,0-2.413-0.35-3.344-1.456v6.463h-2.562
		v-17.901h2.511v1.358c0.957-1.158,1.986-1.513,3.37-1.513c1.281,0,2.413,0.427,3.118,1.132c1.281,1.281,1.43,3.447,1.43,5.382
		C98.209,156.487,98.06,158.674,96.778,159.955 M93.007,150.328c-2.315,0-2.665,1.96-2.665,4.224c0,2.264,0.35,4.25,2.665,4.25
		c2.315,0,2.64-1.986,2.64-4.25C95.647,152.288,95.322,150.328,93.007,150.328"/>
	<path fill="#FFFFFF" d="M110.129,160.937v-1.281c-0.88,0.952-2.11,1.43-3.396,1.43c-1.307,0-2.387-0.427-3.144-1.153
		c-0.978-0.957-1.281-2.166-1.281-3.597v-8.145h2.568v7.769c0,1.986,1.132,2.84,2.562,2.84c1.436,0,2.64-0.88,2.64-2.84v-7.769
		h2.568v12.745H110.129z"/>
	<path fill="#FFFFFF" d="M133.007,160.937v-7.769c0-1.986-1.132-2.84-2.562-2.84c-1.384,0-2.64,0.88-2.64,2.717v7.893h-2.568v-7.769
		c0-1.986-1.132-2.84-2.562-2.84c-1.436,0-2.64,0.88-2.64,2.84v7.769h-2.568v-12.745h2.516v1.281
		c0.854-0.931,2.11-1.436,3.396-1.436c1.58,0,2.815,0.633,3.617,1.863c1.034-1.255,2.315-1.863,3.998-1.863
		c1.307,0,2.465,0.427,3.216,1.158c0.983,0.957,1.358,2.161,1.358,3.597v8.145H133.007z"/>
	<path fill="#FFFFFF" d="M149.275,159.955c-0.705,0.705-1.811,1.132-3.092,1.132c-1.358,0-2.413-0.35-3.344-1.456v6.463h-2.562
		v-17.901h2.511v1.358c0.957-1.158,1.986-1.513,3.37-1.513c1.281,0,2.413,0.427,3.118,1.132c1.281,1.281,1.43,3.447,1.43,5.382
		C150.705,156.487,150.556,158.674,149.275,159.955 M145.503,150.328c-2.315,0-2.665,1.96-2.665,4.224c0,2.264,0.35,4.25,2.665,4.25
		c2.31,0,2.64-1.986,2.64-4.25C148.143,152.288,147.814,150.328,145.503,150.328"/>
	<path fill="#FFFFFF" d="M156.815,155.306c0,2.187,1.158,3.571,3.247,3.571c1.43,0,2.187-0.401,3.092-1.307l1.631,1.533
		c-1.307,1.307-2.537,1.986-4.775,1.986c-3.195,0-5.732-1.683-5.732-6.535c0-4.127,2.135-6.514,5.403-6.514
		c3.422,0,5.408,2.516,5.408,6.133v1.132H156.815z M162.197,151.786c-0.401-0.957-1.307-1.61-2.516-1.61
		c-1.204,0-2.135,0.653-2.537,1.61c-0.252,0.576-0.304,0.957-0.329,1.734h5.732C162.527,152.743,162.449,152.363,162.197,151.786"/>
	<path fill="#FFFFFF" d="M177.006,160.937v-7.769c0-1.986-1.132-2.84-2.562-2.84c-1.436,0-2.64,0.88-2.64,2.84v7.769h-2.568v-12.745
		h2.516v1.281c0.88-0.957,2.11-1.436,3.396-1.436c1.307,0,2.387,0.427,3.139,1.158c0.983,0.957,1.281,2.161,1.281,3.597v8.145
		H177.006z"/>
	<path fill="#FFFFFF" d="M194.103,161.088c-2.691,0-4.626-0.628-6.334-2.362l1.806-1.785c1.312,1.307,2.742,1.708,4.579,1.708
		c2.336,0,3.694-1.003,3.694-2.742c0-0.777-0.226-1.43-0.705-1.858c-0.453-0.427-0.906-0.602-1.96-0.756l-2.11-0.298
		c-1.461-0.201-2.614-0.705-3.396-1.436c-0.88-0.828-1.307-1.96-1.307-3.417c0-3.118,2.264-5.259,5.984-5.259
		c2.362,0,4.024,0.607,5.557,2.038l-1.734,1.708c-1.111-1.055-2.393-1.379-3.9-1.379c-2.11,0-3.267,1.204-3.267,2.789
		c0,0.653,0.201,1.235,0.679,1.662c0.453,0.401,1.183,0.7,2.012,0.828l2.038,0.298c1.657,0.252,2.588,0.659,3.339,1.333
		c0.983,0.859,1.461,2.14,1.461,3.674C200.539,159.128,197.848,161.088,194.103,161.088"/>
	<path fill="#FFFFFF" d="M209.665,161.088c-2.866,0-5.68-1.76-5.68-6.535c0-4.78,2.814-6.514,5.68-6.514
		c1.76,0,2.995,0.504,4.199,1.785l-1.76,1.708c-0.803-0.88-1.436-1.204-2.439-1.204c-0.983,0-1.811,0.401-2.362,1.132
		c-0.556,0.7-0.756,1.605-0.756,3.092c0,1.482,0.201,2.413,0.756,3.113c0.551,0.731,1.379,1.132,2.362,1.132
		c1.003,0,1.636-0.324,2.439-1.204l1.76,1.683C212.659,160.558,211.424,161.088,209.665,161.088"/>
	<path fill="#FFFFFF" d="M225.302,160.937v-7.821c0-1.935-1.132-2.789-2.562-2.789c-1.436,0-2.593,0.88-2.593,2.789v7.821h-2.562
		v-17.901h2.562v6.437c0.885-0.957,2.038-1.436,3.293-1.436c2.845,0,4.425,1.914,4.425,4.677v8.222H225.302z"/>
	<polygon fill="#FFFFFF" points="245.039,160.937 242.852,160.937 239.863,152.036 236.894,160.937 234.681,160.937 
		230.735,148.192 233.452,148.192 235.916,157.166 238.88,148.192 240.866,148.192 243.809,157.166 246.274,148.192 
		249.011,148.192 	"/>
	<path fill="#FFFFFF" d="M253.687,155.306c0,2.187,1.158,3.571,3.247,3.571c1.43,0,2.187-0.401,3.092-1.307l1.631,1.533
		c-1.307,1.307-2.537,1.986-4.775,1.986c-3.195,0-5.732-1.683-5.732-6.535c0-4.127,2.135-6.514,5.408-6.514
		c3.417,0,5.403,2.516,5.403,6.133v1.132H253.687z M259.069,151.786c-0.401-0.957-1.307-1.61-2.511-1.61
		c-1.209,0-2.14,0.653-2.542,1.61c-0.252,0.576-0.304,0.957-0.329,1.734h5.732C259.393,152.743,259.321,152.363,259.069,151.786"/>
	<path fill="#FFFFFF" d="M266.036,142.963h2.717v2.717h-2.717V142.963z M266.108,148.191h2.568v12.745h-2.568V148.191z"/>
	<polygon fill="#FFFFFF" points="272.544,160.937 272.544,158.9 278.883,150.477 272.899,150.477 272.899,148.192 282.047,148.192 
		282.047,150.23 275.662,158.648 282.047,158.648 282.047,160.937 	"/>
</g>
</svg>
