<?xml version="1.0" encoding="utf-8"?>
<!-- Generator: Adobe Illustrator 17.0.0, SVG Export Plug-In . SVG Version: 6.00 Build 0)  -->
<!DOCTYPE svg PUBLIC "-//W3C//DTD SVG 1.1//EN" "http://www.w3.org/Graphics/SVG/1.1/DTD/svg11.dtd">
<svg version="1.1" id="Layer_1" xmlns="http://www.w3.org/2000/svg" xmlns:xlink="http://www.w3.org/1999/xlink" x="0px" y="0px"
	 width="283.465px" height="127.44px" viewBox="0 0 283.465 127.44" enable-background="new 0 0 283.465 127.44"
	 xml:space="preserve">
<g>
	<polygon fill="#FFFFFF" points="67.331,62.191 65.611,76.459 69.01,76.459 67.415,62.191 	"/>
	<path fill="#FFFFFF" d="M52.041,65.884c0-3.399-0.713-3.987-3.441-3.945v7.89C51.327,69.829,52.041,68.57,52.041,65.884z"/>
	<path fill="#FFFFFF" d="M101.689,62.191v20.648c3.441-0.042,3.609-1.301,3.609-10.366
		C105.298,63.449,105.131,62.232,101.689,62.191z"/>
	<path fill="#FFFFFF" d="M49.481,14.506h-0.839v8.31h1.091c2.014,0,2.77-2.015,2.77-4.155
		C52.503,15.429,51.328,14.506,49.481,14.506z"/>
	<path fill="#FFFFFF" d="M48.599,74.445v8.645c3.273,0,3.777-1.301,3.777-4.406C52.377,75.956,51.705,74.403,48.599,74.445z"/>
	<path fill="#FFFFFF" d="M266.077,61.939h-0.839v8.31h1.091c2.014,0,2.77-2.015,2.77-4.155
		C269.099,62.862,267.924,61.939,266.077,61.939z"/>
	<path fill="#FFFFFF" d="M282.047,48.797H121.292V1.39H1.417v94.812h175.853l55.917,29.848L210.03,96.202h72.017V48.797z
		 M91.989,10.141h5.456v29.881h-5.456V10.141z M73.792,10.141h4.742c9.149,0,10.03,5.875,10.03,14.941
		c0,8.645-0.713,14.94-9.149,14.94h-5.624V10.141z M68.758,51.615h4.365v4.365h-4.365V51.615z M60.523,34.566h5.456v5.036
		l-3.232,6.715h-2.182l1.972-6.295h-2.014V34.566z M66.492,51.615v4.365h-4.365v-4.365H66.492z M33.602,10.141h5.456v29.881h-5.456
		V10.141z M24.02,87.455h-2.308l-0.755-1.972c-0.839,1.259-2.434,2.56-4.323,2.56c-5.833,0-7.764-5.707-7.764-15.528
		c0-11.415,3.441-15.528,7.764-15.528c3.525,0,7.177,1.679,7.177,9.317v1.93h-4.868c0-1.385,0.336-6.631-2.014-6.631
		c-1.343,0-2.351,1.259-2.351,10.87c0,9.82,0.923,10.954,2.602,10.954c2.056,0,2.224-4.113,2.224-5.54h-2.015v-4.365h6.631V87.455z
		 M22.215,40.022l-2.602-18.927h-0.084l-2.686,18.927h-4.784L8.072,10.141h4.952l1.931,17.542h0.084l2.602-17.542h4.91l2.392,17.542
		h0.084l2.141-17.542h3.903l-3.903,29.881H22.215z M40.192,87.455H27.559V57.574h12.339v4.617h-6.883v7.638h5.078v4.868h-5.078
		v8.142h7.177V87.455z M50.11,87.455h-6.966V57.574h6.715c3.357,0,7.386,1.847,7.386,7.554c0,3.358-1.511,5.959-4.868,6.673v0.084
		c3.735,0.881,5.456,3.483,5.456,7.26C57.832,84.601,54.139,87.455,50.11,87.455z M52.503,40.022l-2.56-12.842h-1.301v12.842h-5.456
		V10.141h6.127c5.204,0,8.645,2.182,8.645,8.477c0,2.518-0.756,5.875-3.19,7.302l3.232,14.101H52.503z M70.269,87.455l-0.798-6.631
		h-4.406l-0.755,6.631h-4.574l4.197-29.881h7.89l3.693,29.881H70.269z M92.106,79.984c0,5.875-2.602,8.058-6.967,8.058
		c-4.197,0-7.009-2.182-7.009-8.058V57.574h5.456v23.124c0,1.343,0.294,2.728,1.889,2.728c1.511,0,2.014-1.301,2.014-2.728V57.574
		h4.617V79.984z M101.857,87.455h-5.624V57.574h4.742c9.149,0,10.03,5.875,10.03,14.941
		C111.006,81.16,110.293,87.455,101.857,87.455z M113.674,40.022h-12.632V10.141h12.339v4.617h-6.883v7.638h5.078v4.868h-5.078
		v8.142h7.177V40.022z M126.742,87.455h-12.632V57.574h12.339v4.617h-6.883v7.638h5.078v4.868h-5.078v8.142h7.177V87.455z
		 M143.648,62.191h-4.7v25.264h-5.456V62.191h-4.701v-4.617h14.856V62.191z M158.33,87.455h-12.632V57.574h12.338v4.617h-6.883
		v7.638h5.078v4.868h-5.078v8.142h7.177V87.455z M168.039,88.042c-5.834,0-7.764-5.707-7.764-15.528
		c0-11.415,3.441-15.528,7.764-15.528c6.295,0,7.05,5.792,7.05,11.247l-4.868,0.168c0-4.952-0.63-6.799-1.973-6.799
		c-1.133,0-2.266,0.756-2.266,10.912c0,9.82,0.588,10.911,2.266,10.911c1.805,0,2.224-2.77,2.308-7.092l4.616,0.21
		C175.173,81.747,174.418,88.042,168.039,88.042z M192.478,87.455h-5.456V74.781h-3.441v12.674h-5.456V57.574h5.456v12.003h3.441
		V57.574h5.456V87.455z M211.378,87.455h-4.239l-5.834-18.088h-0.084v18.088h-4.616V57.574h5.33l4.994,15.78h0.084v-15.78h4.365
		V87.455z M220.751,87.455h-5.456V57.574h5.456V87.455z M235.413,87.455l-3.022-13.387h-0.084l-1.972,4.7v8.687h-5.456V57.574h5.456
		V70.08h0.084l4.532-12.506h4.868l-4.071,10.03l4.91,19.851H235.413z M256.411,87.455h-12.632V57.574h12.338v4.617h-6.883v7.638
		h5.078v4.868h-5.078v8.142h7.177V87.455z M269.099,87.455l-2.56-12.842h-1.301v12.842h-5.456V57.574h6.127
		c5.204,0,8.645,2.182,8.645,8.477c0,2.518-0.756,5.875-3.19,7.303l3.232,14.101H269.099z"/>
	<path fill="#FFFFFF" d="M82.857,25.04c0-9.023-0.168-10.24-3.609-10.282v20.648C82.689,35.364,82.857,34.105,82.857,25.04z"/>
</g>
</svg>
