<?xml version="1.0" encoding="utf-8"?>
<!-- Generator: Adobe Illustrator 17.0.0, SVG Export Plug-In . SVG Version: 6.00 Build 0)  -->
<!DOCTYPE svg PUBLIC "-//W3C//DTD SVG 1.1//EN" "http://www.w3.org/Graphics/SVG/1.1/DTD/svg11.dtd">
<svg version="1.1" id="Layer_1" xmlns="http://www.w3.org/2000/svg" xmlns:xlink="http://www.w3.org/1999/xlink" x="0px" y="0px"
	 width="170.08px" height="170.08px" viewBox="0 0 170.08 170.08" enable-background="new 0 0 170.08 170.08" xml:space="preserve">
<polygon fill="#FFFFFF" points="3.171,155.709 28.389,131.681 35.05,133.822 39.808,139.056 36.24,145.004 15.066,164.987 "/>
<polyline fill="#FFFFFF" points="64.24,31.779 85.788,15.886 106.084,4.126 163.252,47.218 157.22,56.985 151.761,58.996 
	151.474,104.387 104.935,104.387 87.698,73.648 61.555,66.466 59.832,56.698 53.799,57.273 47.479,48.08 "/>
<g>
	<defs>
		<rect id="SVGID_1_" x="1.351" y="1.351" width="167.378" height="167.378"/>
	</defs>
	<clipPath id="SVGID_2_">
		<use xlink:href="#SVGID_1_"  overflow="visible"/>
	</clipPath>
	<path clip-path="url(#SVGID_2_)" d="M167.397,45.282L108.553,1.987c-1.152-0.848-2.721-0.848-3.875,0l-18.89,13.899
		c-1.453,1.07-1.765,3.116-0.695,4.57c1.069,1.455,3.116,1.765,4.571,0.696l16.952-12.474l54.277,39.935l-3.847,5.25l-48.492-35.679
		c-1.152-0.848-2.721-0.848-3.875,0L56.186,53.864l-3.847-5.25l16.26-11.963c1.453-1.07,1.765-3.116,0.695-4.57
		c-1.069-1.454-3.116-1.765-4.569-0.696L45.835,45.282c-1.452,1.069-1.765,3.111-0.698,4.565L52.85,60.37
		c0.514,0.701,1.283,1.167,2.142,1.299c0.858,0.131,1.733-0.083,2.432-0.598l0.867-0.637v5.007c-1.578,0.429-3.13,0.961-4.652,1.6
		c-1.665,0.697-2.449,2.613-1.751,4.278c0.697,1.665,2.613,2.45,4.278,1.752c1.937-0.812,3.934-1.42,5.976-1.824
		c0.038-0.007,0.077-0.013,0.114-0.022c1.951-0.377,3.942-0.568,5.962-0.568c17.208,0,31.206,13.998,31.206,31.206
		s-13.998,31.206-31.206,31.206c-17.206,0-31.204-13.998-31.204-31.206c0-4.177,0.811-8.232,2.412-12.051
		c0.697-1.665-0.087-3.581-1.752-4.278c-1.664-0.697-3.581,0.085-4.278,1.751c-1.939,4.624-2.921,9.528-2.921,14.578
		c0,9.231,3.333,17.698,8.856,24.263l-3.193,3.192l-0.396-0.396c-1.365-1.365-3.196-2.081-5.166-2.025
		c-1.895,0.056-3.684,0.835-5.04,2.191l-21.99,21.989c-2.859,2.859-2.933,7.438-0.166,10.207l5.417,5.417
		c1.355,1.355,3.143,2.028,4.951,2.028c1.886,0,3.795-0.734,5.256-2.194l21.99-21.99c2.859-2.86,2.934-7.438,0.166-10.207
		l-0.397-0.397l3.192-3.193c6.566,5.524,15.033,8.857,24.264,8.857c18.884,0,34.572-13.94,37.317-32.069h46.139
		c1.805,0,3.269-1.465,3.269-3.269V60.433l0.866,0.637c0.565,0.415,1.245,0.636,1.937,0.636c0.165,0,0.331-0.013,0.496-0.037
		c0.858-0.132,1.628-0.599,2.142-1.3l7.713-10.522C169.162,48.393,168.849,46.351,167.397,45.282L167.397,45.282z M36.37,139.921
		l-21.99,21.99c-0.318,0.318-0.777,0.35-0.96,0.166l-5.417-5.417c-0.184-0.184-0.152-0.642,0.166-0.96l21.99-21.99
		c0.232-0.232,0.483-0.275,0.61-0.279h0.023c0.102,0,0.235,0.021,0.326,0.114l2.707,2.706l0.003,0.003c0,0,0,0,0.001,0.001
		l2.707,2.706C36.719,139.145,36.687,139.604,36.37,139.921L36.37,139.921z M90.271,71.251c-1.515-1.094-3.112-2.08-4.782-2.943
		h4.782V71.251z M96.809,77.249v-8.942h19.615v32.691h-10.473C105.746,91.939,102.334,83.659,96.809,77.249L96.809,77.249z
		 M148.404,100.998h-25.443V94.46h15.635c1.806,0,3.269-1.465,3.269-3.269c0-1.806-1.463-3.269-3.269-3.269h-15.635v-6.538h15.635
		c1.806,0,3.269-1.463,3.269-3.269c0-1.806-1.463-3.269-3.269-3.269h-15.635v-6.538h15.635c1.806,0,3.269-1.463,3.269-3.269
		c0-1.804-1.463-3.269-3.269-3.269H74.635c-1.536,0-2.821,1.062-3.171,2.49c-1.07-0.092-2.153-0.141-3.246-0.141
		c-1.138,0-2.268,0.052-3.39,0.152v-8.649l41.788-30.746l41.788,30.746V100.998z M148.404,100.998"/>
</g>
<path d="M109.885,87.922c1.806,0,3.269-1.463,3.269-3.269c0-1.804-1.464-3.269-3.269-3.269h-0.003c-1.806,0-3.268,1.465-3.268,3.269
	C106.615,86.459,108.08,87.922,109.885,87.922L109.885,87.922z M109.885,87.922"/>
<path d="M96.809,45.996c0,5.408,4.401,9.807,9.807,9.807c5.408,0,9.807-4.399,9.807-9.807c0-5.407-4.399-9.807-9.807-9.807
	C101.209,36.189,96.809,40.589,96.809,45.996L96.809,45.996z M106.616,42.727c1.803,0,3.269,1.467,3.269,3.269
	c0,1.803-1.466,3.269-3.269,3.269c-1.802,0-3.269-1.466-3.269-3.269C103.347,44.194,104.814,42.727,106.616,42.727L106.616,42.727z
	 M106.616,42.727"/>
<path d="M77.195,29.54c0.658,0,1.322-0.198,1.898-0.609l0.002-0.003c1.469-1.049,1.808-3.09,0.759-4.559
	c-1.05-1.47-3.092-1.808-4.561-0.76c-1.469,1.05-1.81,3.092-0.76,4.56C75.17,29.063,76.175,29.54,77.195,29.54L77.195,29.54z
	 M77.195,29.54"/>
<path d="M43.839,80.755c0.838,0,1.674-0.319,2.313-0.958c1.277-1.276,1.277-3.346,0-4.623c-1.277-1.277-3.346-1.277-4.623,0
	l-0.002,0.001c-1.276,1.277-1.275,3.346,0.001,4.623C42.166,80.435,43.003,80.755,43.839,80.755L43.839,80.755z M43.839,80.755"/>
<path fill="none" stroke="#1D70B7" stroke-width="7" stroke-linecap="round" stroke-miterlimit="10" d="M54.63,70.55
	c33.105-15.909,66.152,30.165,36.875,56.575c-29.002,26.162-67.453-5.906-55.312-38.39"/>
<circle fill="#1D70B7" cx="43.867" cy="77.505" r="3.286"/>
<g>
	<path fill="#1D71B8" d="M39.379,126.154l-3.193,3.192l-0.396-0.396c-1.365-1.365-3.196-2.081-5.166-2.025
		c-1.895,0.056-3.684,0.835-5.04,2.191l-21.99,21.989c-2.859,2.859-2.933,7.438-0.166,10.207l5.417,5.417
		c1.355,1.355,3.143,2.028,4.951,2.028c1.886,0,3.795-0.734,5.256-2.194l21.99-21.99c2.859-2.86,2.934-7.438,0.166-10.207
		l-0.397-0.397l3.192-3.193"/>
	<path fill="#FFFFFF" d="M36.419,139.949l-21.99,21.99c-0.318,0.318-0.777,0.35-0.96,0.166l-5.417-5.417
		c-0.184-0.184-0.152-0.642,0.166-0.96l21.99-21.99c0.232-0.232,0.483-0.275,0.61-0.279h0.023c0.102,0,0.235,0.021,0.326,0.114
		l2.707,2.706l0.003,0.003c0,0,0,0,0.001,0.001l2.707,2.706C36.768,139.173,36.736,139.633,36.419,139.949L36.419,139.949z"/>
</g>
</svg>
