<?xml version="1.0" encoding="utf-8"?>
<!-- Generator: Adobe Illustrator 17.0.0, SVG Export Plug-In . SVG Version: 6.00 Build 0)  -->
<!DOCTYPE svg PUBLIC "-//W3C//DTD SVG 1.1//EN" "http://www.w3.org/Graphics/SVG/1.1/DTD/svg11.dtd">
<svg version="1.1" id="Layer_1" xmlns="http://www.w3.org/2000/svg" xmlns:xlink="http://www.w3.org/1999/xlink" x="0px" y="0px"
	 width="170.08px" height="170.08px" viewBox="0 0 170.08 170.08" enable-background="new 0 0 170.08 170.08" xml:space="preserve">
<polygon fill="#FFFFFF" points="8.696,36.969 16.065,27.689 63.008,27.962 68.194,21.958 76.382,11.041 79.657,22.777 
	83.478,26.871 88.663,26.871 91.939,21.958 92.212,10.768 100.672,18.683 104.22,27.962 154.166,27.144 159.079,33.148 
	161.262,43.792 161.262,126.216 157.714,130.583 150.618,132.493 98.216,133.585 104.493,160.605 65.192,159.786 71.742,133.039 
	15.792,132.22 10.333,128.672 8.696,112.297 "/>
<g>
	<g>
		<defs>
			<rect id="SVGID_1_" x="6.046" y="6.046" width="157.989" height="157.989"/>
		</defs>
		<clipPath id="SVGID_2_">
			<use xlink:href="#SVGID_1_"  overflow="visible"/>
		</clipPath>
		<path clip-path="url(#SVGID_2_)" d="M164.033,36.728c0-6.692-5.443-12.136-12.135-12.136h-45.278
			c-0.804-8.227-6.284-15.417-14.148-18.283c-1.978-0.718-4.138,0.794-4.138,2.898v13.355l-3.293,2.525l-3.295-2.525V9.207
			c0-2.101-2.158-3.618-4.137-2.896c-7.864,2.864-13.344,10.054-14.148,18.281H18.184c-6.692,0-12.137,5.444-12.137,12.136
			l-0.002,87.205c0,6.694,5.445,12.137,12.137,12.137h49.336l-5.408,21.717h-8.008c-1.704,0-3.083,1.381-3.083,3.083
			c0,1.702,1.379,3.082,3.083,3.082h61.876c1.702,0,3.082-1.381,3.082-3.082c0-1.702-1.38-3.083-3.082-3.083h-8.01l-5.408-21.717
			h49.336c6.692,0,12.137-5.443,12.137-12.137L164.033,36.728z M68.466,157.787l5.406-21.716h22.336l5.406,21.716H68.466z
			 M70.257,42.544c1.318,1.218,2.748,2.295,4.325,3.155l-6.557,59.175c-3.124-1.491-6.053-3.377-8.673-5.585
			c3.554-4.595,4.005-11.102,1.103-16.134c-2.997-5.188-8.844-7.902-14.558-7.116c-0.842-4.67-0.845-9.492-0.011-14.164
			c5.774,0.802,11.653-2.065,14.567-7.11c2.877-5.103,2.474-11.529-1.136-16.176c1.728-1.464,3.586-2.779,5.553-3.942
			C66.027,37.65,67.923,40.342,70.257,42.544L70.257,42.544z M78.388,106.835c1.665-2.195,4.37-3.462,7.124-3.305
			c2.573,0.145,4.995,1.532,6.437,3.666H78.128C78.211,107.074,78.298,106.954,78.388,106.835L78.388,106.835z M124.193,61.874
			c0.413,2.318,0.622,4.678,0.622,7.051c0,2.393-0.212,4.776-0.633,7.113c-5.714-0.781-11.562,1.93-14.558,7.116
			c-2.988,5.173-2.419,11.581,1.103,16.137c-2.53,2.141-5.331,3.966-8.311,5.419l-6.907-59.03c4.368-2.406,7.849-6.377,9.696-11.006
			c1.999,1.186,3.852,2.494,5.544,3.915c-3.57,4.63-4.058,11.1-1.125,16.174C112.625,59.954,118.474,62.665,124.193,61.874
			L124.193,61.874z M55.759,44.91c1.927,5.922-3.21,11.931-9.374,10.802c-0.556-0.101-1.109-0.26-1.647-0.482
			c-1.702-0.699-3.692,0.297-4.155,2.073c-0.988,3.79-1.485,7.706-1.485,11.623c0,3.957,0.506,7.888,1.501,11.684
			c0.464,1.773,2.45,2.766,4.15,2.072c3.354-1.373,7.186-0.373,9.482,2.306c3.038,3.545,2.48,9.122-1.207,11.988
			c-1.521,1.181-1.527,3.393-0.195,4.704c2.08,2.048,4.359,3.901,6.789,5.516H26.365V44.908h29.395V44.91z M157.868,113.361v10.573
			c0,3.237-2.734,5.971-5.971,5.971H18.184c-3.237,0-5.972-2.734-5.972-5.971v-10.573H157.868z M151.897,30.757
			c3.291,0,5.971,2.678,5.971,5.971v70.469h-7.987V69.147c0-1.704-1.381-3.082-3.083-3.082c-1.702,0-3.082,1.379-3.082,3.082v38.049
			h-33.261c2.464-1.638,4.776-3.515,6.878-5.596c1.302-1.287,1.17-3.5-0.276-4.625c-3.262-2.536-4.162-7.152-2.093-10.737
			c2.078-3.595,6.535-5.124,10.37-3.555c1.7,0.696,3.684-0.301,4.148-2.072c0.996-3.797,1.501-7.729,1.501-11.685
			c0-3.934-0.5-7.844-1.483-11.621c-0.235-0.897-0.892-1.668-1.742-2.041c-1.066-0.466-2.094-0.093-3.139,0.227
			c-6.31,1.925-12.455-4.272-10.327-10.58h32.507c1.702,0,3.083-1.381,3.083-3.082c0-1.704-1.381-3.082-3.083-3.082h-28.528
			c0.077-0.907-0.251-1.816-0.899-2.456c-2.084-2.065-4.344-3.914-6.755-5.532H151.897z M75.58,14.382v9.701
			c0,0.959,0.447,1.864,1.207,2.448l6.379,4.889c1.108,0.848,2.645,0.847,3.751-0.002l6.376-4.889
			c0.76-0.583,1.205-1.486,1.205-2.446v-9.701c3.745,2.889,6.061,7.415,6.061,12.303c0,6.109-3.77,11.808-9.357,14.246
			c-1.324,0.578-2.245,1.789-2.07,3.291l6.795,58.071c-2.734-3.102-6.75-4.944-10.888-4.944c-3.926,0-7.762,1.657-10.474,4.494
			l6.385-57.639c0.148-1.339-0.62-2.652-1.86-3.179c-5.694-2.416-9.571-8.134-9.571-14.341
			C69.521,21.797,71.837,17.271,75.58,14.382L75.58,14.382z M18.184,30.757h41.26c-1.781,1.201-3.499,2.546-5.124,4.011
			c-1.199,1.08-2.663,2.181-2.511,3.976H23.282c-1.702,0-3.083,1.38-3.083,3.082v65.369h-7.987V36.728
			C12.212,33.436,14.891,30.757,18.184,30.757L18.184,30.757z M18.184,30.757"/>
	</g>
	<path d="M149.645,54.08c-0.648-1.551-2.471-2.313-4.027-1.668c-1.552,0.643-2.308,2.474-1.666,4.026
		c0.639,1.551,2.475,2.311,4.026,1.668C149.527,57.463,150.292,55.631,149.645,54.08L149.645,54.08z M149.645,54.08"/>
</g>
<path fill="none" stroke="#1D71B8" stroke-width="7.0144" stroke-linecap="round" stroke-linejoin="round" stroke-miterlimit="10" d="
	M92.396,9.644c27.305,16.082,0,34.975,0,34.975l7.739,65.019c0,0-6.502-8.917-14.65-8.917s-14.686,8.917-14.686,8.917l6.819-65.919
	c0,0-25.749-19.126,0.957-34.074v13.056l6.912,5.573l6.245-5.095L92.396,9.644z"/>
<path fill="#1D71B8" d="M63.925,27.705c0,0-4.233,4.618-11.929,4.618s-0.186,6.422-0.186,6.422l3.949,6.165l-16.462,5.37
	l-5.259,39.121l10.774,8.594l14.805,9.2l9.95,6.166c0,0,5.704,1.13,4.042-6.851c-1.662-7.982,11.881-5.18,11.881-5.18l8.063,3.078
	l6.798,8.953l10.102-6.165l20.939-7.021l2.565-22.575V56.052L114.29,44.91l3.979-6.165l1.964-4.242l-9.618-3.746l-7.827-2.154"/>
<g>
	<polygon fill="#FFFFFF" points="68.466,157.8 73.872,136.084 96.208,136.084 101.614,157.8 	"/>
	<g>
		<path fill="#FFFFFF" d="M70.257,42.557c1.318,1.218,2.748,2.295,4.325,3.155l-6.557,59.175c-3.124-1.491-6.053-3.377-8.673-5.585
			c3.554-4.595,4.005-11.102,1.103-16.134c-2.997-5.188-8.844-7.902-14.558-7.116c-0.842-4.67-0.845-9.492-0.011-14.164
			c5.774,0.802,11.653-2.065,14.567-7.11c2.877-5.103,2.474-11.529-1.136-16.176c1.728-1.464,3.586-2.779,5.553-3.942
			C66.027,37.663,67.923,40.355,70.257,42.557L70.257,42.557z"/>
		<path fill="#FFFFFF" d="M78.388,106.847c1.665-2.195,4.37-3.462,7.124-3.305c2.573,0.145,4.995,1.532,6.437,3.666H78.128
			C78.211,107.087,78.298,106.966,78.388,106.847L78.388,106.847z"/>
		<path fill="#FFFFFF" d="M124.193,61.887c0.413,2.318,0.622,4.678,0.622,7.051c0,2.393-0.212,4.776-0.633,7.113
			c-5.713-0.781-11.562,1.93-14.558,7.116c-2.988,5.173-2.419,11.581,1.103,16.137c-2.53,2.141-5.331,3.966-8.311,5.419
			l-6.907-59.03c4.368-2.406,7.849-6.377,9.696-11.006c1.999,1.186,3.852,2.494,5.544,3.915c-3.57,4.63-4.058,11.1-1.125,16.174
			C112.625,59.967,118.474,62.678,124.193,61.887L124.193,61.887z"/>
		<path fill="#FFFFFF" d="M55.759,44.922c1.927,5.922-3.21,11.931-9.374,10.802c-0.556-0.101-1.109-0.26-1.647-0.482
			c-1.702-0.699-3.692,0.297-4.155,2.073c-0.988,3.79-1.485,7.706-1.485,11.623c0,3.957,0.506,7.888,1.501,11.684
			c0.464,1.773,2.45,2.766,4.15,2.072c3.354-1.373,7.186-0.373,9.482,2.306c3.038,3.545,2.48,9.122-1.207,11.988
			c-1.521,1.181-1.527,3.393-0.195,4.704c2.08,2.048,4.359,3.901,6.789,5.516H26.365V44.921h29.395V44.922z"/>
		<path fill="#FFFFFF" d="M157.868,113.374v10.573c0,3.237-2.734,5.971-5.971,5.971H18.184c-3.237,0-5.972-2.734-5.972-5.971
			v-10.573H157.868z"/>
		<path fill="#FFFFFF" d="M151.897,30.77c3.291,0,5.971,2.678,5.971,5.971v70.469h-7.988V69.16c0-1.704-1.381-3.082-3.083-3.082
			c-1.702,0-3.082,1.379-3.082,3.082v38.049h-33.261c2.464-1.638,4.776-3.515,6.878-5.596c1.302-1.287,1.17-3.5-0.276-4.625
			c-3.262-2.536-4.162-7.152-2.093-10.737c2.078-3.595,6.535-5.124,10.37-3.555c1.7,0.696,3.684-0.301,4.148-2.072
			c0.996-3.797,1.501-7.729,1.501-11.685c0-3.934-0.5-7.844-1.483-11.621c-0.235-0.897-0.892-1.668-1.742-2.041
			c-1.066-0.466-2.094-0.093-3.139,0.227c-6.31,1.925-12.455-4.272-10.327-10.58h32.507c1.702,0,3.083-1.381,3.083-3.082
			c0-1.704-1.381-3.082-3.083-3.082h-28.528c0.077-0.907-0.251-1.816-0.899-2.456c-2.084-2.065-4.344-3.914-6.755-5.532H151.897z"/>
		<path fill="#FFFFFF" d="M75.58,14.395v9.701c0,0.959,0.447,1.864,1.207,2.448l6.379,4.889c1.108,0.848,2.645,0.847,3.751-0.002
			l6.376-4.889c0.76-0.583,1.205-1.486,1.205-2.446v-9.701c3.745,2.889,6.061,7.415,6.061,12.303c0,6.109-3.77,11.808-9.357,14.246
			c-1.324,0.578-2.245,1.789-2.07,3.291l6.795,58.071c-2.734-3.102-6.75-4.944-10.888-4.944c-3.926,0-7.762,1.657-10.474,4.494
			l6.385-57.639c0.148-1.339-0.62-2.652-1.86-3.179c-5.694-2.416-9.571-8.134-9.571-14.341C69.521,21.81,71.837,17.284,75.58,14.395
			L75.58,14.395z"/>
		<path fill="#FFFFFF" d="M18.184,30.77h41.26c-1.781,1.201-3.499,2.546-5.124,4.011c-1.199,1.08-2.663,2.181-2.511,3.976H23.282
			c-1.702,0-3.083,1.38-3.083,3.082v65.369h-7.987V36.74C12.212,33.449,14.891,30.77,18.184,30.77L18.184,30.77z"/>
	</g>
</g>
<circle cx="146.799" cy="55.904" r="3.079"/>
</svg>
