<?xml version="1.0" encoding="utf-8"?>
<!-- Generator: Adobe Illustrator 17.0.0, SVG Export Plug-In . SVG Version: 6.00 Build 0)  -->
<!DOCTYPE svg PUBLIC "-//W3C//DTD SVG 1.1//EN" "http://www.w3.org/Graphics/SVG/1.1/DTD/svg11.dtd">
<svg version="1.1" id="Layer_1" xmlns="http://www.w3.org/2000/svg" xmlns:xlink="http://www.w3.org/1999/xlink" x="0px" y="0px"
	 width="170.08px" height="170.08px" viewBox="0 0 170.08 170.08" enable-background="new 0 0 170.08 170.08" xml:space="preserve">
<polygon fill="#FFFFFF" points="16.087,51.98 5.162,162.188 8.399,164.87 164.179,164.87 164.179,82.326 109.906,107.282 
	108.946,83.283 51.559,107.502 47.155,51.98 "/>
<polyline fill="#FFFFFF" points="32.844,31.101 35.716,17.229 51.779,7.542 65.65,7.542 65.65,19.321 56.623,32.422 37.467,37.486 
	"/>
<g>
	<g>
		<defs>
			<rect id="SVGID_3_" x="2.472" y="2.472" width="165.136" height="165.136"/>
		</defs>
		<clipPath id="SVGID_2_">
			<use xlink:href="#SVGID_3_"  overflow="visible"/>
		</clipPath>
		<path clip-path="url(#SVGID_2_)" d="M166.099,78.437c-0.939-0.591-2.117-0.657-3.116-0.177l-50.812,24.45V81.166
			c0-1.109-0.571-2.14-1.51-2.729c-0.939-0.591-2.115-0.657-3.114-0.177l-52.238,25.136l-4.954-52.848
			c-0.157-1.658-1.547-2.925-3.212-2.925H35.14c0.243-2.298,0.747-4.539,1.497-6.682c1.325,0.19,2.658,0.286,3.985,0.286
			c7.405,0,14.651-2.908,19.999-8.255c7.099-7.097,9.897-17.544,7.306-27.261c-0.299-1.115-1.169-1.987-2.284-2.284
			c-9.716-2.592-20.163,0.206-27.261,7.304c-7.008,7.008-9.822,17.277-7.398,26.888c-1.235,3.175-2.022,6.538-2.325,10.005H16.341
			c-1.665,0-3.055,1.267-3.212,2.925L2.485,164.078c-0.084,0.904,0.217,1.801,0.827,2.473c0.612,0.67,1.478,1.053,2.385,1.053
			h158.685c1.781,0,3.225-1.445,3.225-3.225V81.166C167.608,80.058,167.038,79.026,166.099,78.437L166.099,78.437z M42.941,15.293
			c5.023-5.022,12.22-7.254,19.164-6.046c1.209,6.944-1.023,14.141-6.044,19.163c-4.362,4.363-10.368,6.617-16.42,6.343
			c1.792-2.807,4.069-5.33,6.777-7.456l1.004-0.79c1.401-1.1,1.645-3.128,0.544-4.529c-1.1-1.401-3.126-1.644-4.529-0.544
			l-1.005,0.79c-2.105,1.653-3.991,3.504-5.651,5.515C37.42,23.096,39.54,18.695,42.941,15.293L42.941,15.293z M48.923,104.388
			H14.562l2.056-21.932h30.249L48.923,104.388z M13.957,110.839h35.571l2.056,21.932H11.901L13.957,110.839z M44.206,54.074
			l2.056,21.932H17.223l2.056-21.932H44.206z M9.24,161.154l2.056-21.932h40.892l2.056,21.932H9.24z M161.157,161.154h-48.986
			V150.51c0-1.78-1.445-3.225-3.225-3.225c-1.783,0-3.225,1.445-3.225,3.225v10.644H60.724l-4.773-50.908l49.769-23.948v35.184
			c0,1.781,1.443,3.225,3.225,3.225c1.78,0,3.225-1.445,3.225-3.225V109.87l48.986-23.571V161.154z M161.157,161.154"/>
	</g>
	<path d="M90.239,116.779c-1.783,0-3.225,1.445-3.225,3.225v4.3c0,1.78,1.443,3.225,3.225,3.225c1.78,0,3.225-1.445,3.225-3.225
		v-4.3C93.464,118.224,92.02,116.779,90.239,116.779L90.239,116.779z M90.239,116.779"/>
	<path d="M72.177,116.779c-1.783,0-3.225,1.445-3.225,3.225v4.3c0,1.78,1.443,3.225,3.225,3.225c1.78,0,3.225-1.445,3.225-3.225
		v-4.3C75.403,118.224,73.958,116.779,72.177,116.779L72.177,116.779z M72.177,116.779"/>
	<path d="M90.239,139.437c-1.783,0-3.225,1.445-3.225,3.225v4.3c0,1.781,1.443,3.225,3.225,3.225c1.78,0,3.225-1.445,3.225-3.225
		v-4.3C93.464,140.882,92.02,139.437,90.239,139.437L90.239,139.437z M90.239,139.437"/>
	<path d="M72.177,139.437c-1.783,0-3.225,1.445-3.225,3.225v4.3c0,1.781,1.443,3.225,3.225,3.225c1.78,0,3.225-1.445,3.225-3.225
		v-4.3C75.403,140.882,73.958,139.437,72.177,139.437L72.177,139.437z M72.177,139.437"/>
	<path d="M127.633,127.53c1.783,0,3.225-1.445,3.225-3.225v-4.3c0-1.781-1.443-3.225-3.225-3.225c-1.781,0-3.225,1.445-3.225,3.225
		v4.3C124.407,126.085,125.852,127.53,127.633,127.53L127.633,127.53z M127.633,127.53"/>
	<path d="M145.694,127.53c1.783,0,3.225-1.445,3.225-3.225v-4.3c0-1.781-1.443-3.225-3.225-3.225c-1.781,0-3.225,1.445-3.225,3.225
		v4.3C142.469,126.085,143.913,127.53,145.694,127.53L145.694,127.53z M145.694,127.53"/>
	<path d="M127.633,150.188c1.783,0,3.225-1.445,3.225-3.225v-4.3c0-1.78-1.443-3.225-3.225-3.225c-1.781,0-3.225,1.445-3.225,3.225
		v4.3C124.407,148.743,125.852,150.188,127.633,150.188L127.633,150.188z M127.633,150.188"/>
	<path d="M145.694,150.188c1.783,0,3.225-1.445,3.225-3.225v-4.3c0-1.78-1.443-3.225-3.225-3.225c-1.781,0-3.225,1.445-3.225,3.225
		v4.3C142.469,148.743,143.913,150.188,145.694,150.188L145.694,150.188z M145.694,150.188"/>
	<path d="M108.946,132.771c-0.848,0-1.68,0.344-2.28,0.946c-0.601,0.6-0.946,1.432-0.946,2.28c0,0.848,0.344,1.68,0.946,2.28
		c0.6,0.6,1.431,0.946,2.28,0.946c0.848,0,1.68-0.344,2.28-0.946c0.601-0.6,0.946-1.431,0.946-2.28c0-0.848-0.344-1.68-0.946-2.28
		C110.626,133.117,109.794,132.771,108.946,132.771L108.946,132.771z M108.946,132.771"/>
</g>
<path fill="#1D71B8" d="M55.35,103.392l-4.954-52.848c-0.157-1.658-1.547-2.925-3.212-2.925H35.182
	c0.243-2.298,0.747-4.539,1.497-6.682c1.325,0.19,2.658,0.286,3.985,0.286c7.405,0,14.651-2.908,19.999-8.255
	c7.099-7.097,9.897-17.544,7.306-27.261c-0.299-1.115-1.169-1.987-2.284-2.284c-9.716-2.592-20.163,0.206-27.261,7.304
	c-7.008,7.008-9.822,17.277-7.398,26.888c-1.235,3.175-2.022,6.538-2.325,10.005H16.383c-1.665,0-3.055,1.267-3.212,2.925
	L2.527,164.075c-0.084,0.904,0.217,1.801,0.827,2.473c0.612,0.67,1.478,1.053,2.385,1.053h55.563 M42.983,15.289
	c5.023-5.022,12.22-7.254,19.164-6.046c1.209,6.944-1.023,14.141-6.044,19.163c-4.362,4.363-10.368,6.617-16.42,6.343
	c1.792-2.807,4.069-5.33,6.777-7.456l1.004-0.79c1.401-1.1,1.645-3.128,0.544-4.529c-1.1-1.401-3.126-1.644-4.529-0.544l-1.005,0.79
	c-2.105,1.653-3.991,3.504-5.651,5.515C37.462,23.092,39.581,18.691,42.983,15.289L42.983,15.289z M48.965,104.385H14.604
	l2.056-21.932h30.249L48.965,104.385z M13.999,110.835H49.57l2.056,21.932H11.943L13.999,110.835z M44.248,54.07l2.056,21.932
	H17.265l2.056-21.932H44.248z M9.282,161.15l2.056-21.932h40.892l2.056,21.932H9.282z M60.766,161.15l-4.773-50.908"/>
</svg>
