<?xml version="1.0" encoding="utf-8"?>
<!-- Generator: Adobe Illustrator 17.0.0, SVG Export Plug-In . SVG Version: 6.00 Build 0)  -->
<!DOCTYPE svg PUBLIC "-//W3C//DTD SVG 1.1//EN" "http://www.w3.org/Graphics/SVG/1.1/DTD/svg11.dtd">
<svg version="1.1" id="Layer_1" xmlns="http://www.w3.org/2000/svg" xmlns:xlink="http://www.w3.org/1999/xlink" x="0px" y="0px"
	 width="75.298px" height="89.139px" viewBox="0 0 75.298 89.139" enable-background="new 0 0 75.298 89.139" xml:space="preserve">
<path d="M11.397,24.894c-0.911,0-1.65,0.739-1.65,1.65c0,0.912,0.739,1.65,1.65,1.65c0.912,0,1.65-0.739,1.65-1.65v-0.001
	C13.047,25.632,12.309,24.894,11.397,24.894L11.397,24.894z M11.397,24.894"/>
<polygon fill="#F4F3F5" points="8.499,4.776 68.735,5.239 71.052,8.019 71.052,73.583 69.893,78.68 54.139,78.68 9.194,78.912 
	4.793,75.9 4.561,12.884 "/>
<polyline fill="#FFFFFF" points="30.309,55.425 25.548,51.472 21.756,45.662 19.577,40.982 22.805,39.046 28.049,41.628 
	29.34,39.53 28.13,21.294 30.873,18.228 33.697,19.761 36.199,18.228 36.764,14.759 39.749,13.79 42.492,15.888 43.461,19.519 
	45.801,18.793 48.705,19.439 49.674,22.989 49.996,25.571 52.014,25.974 54.838,28.96 55.241,38.642 53.789,48.89 51.772,55.103 
	50.561,58.249 31.196,58.491 "/>
<path d="M67.845,2.659H10.701c-4.165,0-7.554,3.388-7.554,7.554v62.771c0,4.165,3.388,7.553,7.554,7.553h17.011v4.951
	c0,0.911,0.739,1.65,1.65,1.65h23.468c0.912,0,1.65-0.739,1.65-1.65v-4.951h13.363c2.538,0,4.602-2.064,4.602-4.602V7.261
	C72.447,4.724,70.382,2.659,67.845,2.659L67.845,2.659z M27.713,77.237H10.701c-2.345,0-4.254-1.908-4.254-4.253
	c0-2.346,1.909-4.255,4.254-4.255h17.011L27.713,77.237z M31.77,45.145l-1.878-23.784c-0.032-0.405,0.161-0.705,0.328-0.885
	c0.269-0.291,0.654-0.466,1.028-0.466c0.793,0,1.284,0.821,1.358,1.631l1.332,14.55c0.079,0.87,0.823,1.524,1.695,1.499
	c0.873-0.028,1.573-0.73,1.598-1.602l0.546-19.226c0.024-0.856,0.618-1.526,1.352-1.526c0.733,0,1.327,0.67,1.351,1.527
	l0.547,19.225c0.025,0.882,0.74,1.588,1.622,1.603c0.884,0.022,1.62-0.668,1.674-1.549l0.897-14.617
	c0.13-1.334,0.878-1.762,1.538-1.714c0.207,0.015,1.236,0.156,1.171,1.507l-0.358,7.314c0,0.006,0,0.011,0,0.017l-0.358,7.311
	c-0.044,0.911,0.657,1.684,1.567,1.729c0.909,0.041,1.684-0.658,1.729-1.567l0.356-7.283c0.137-1.359,1.005-1.469,1.371-1.451
	c0.199,0.009,1.188,0.116,1.201,1.33l-0.364,10.436c-0.001,0.019-0.001,0.038-0.001,0.057c0,3.345-0.189,5.442-0.777,8.627
	c-0.244,1.322-0.734,2.675-1.251,4.106c-0.6,1.656-1.214,3.355-1.482,5.124H32.643c-0.512-3.11-2.438-4.494-4.167-5.734
	c-1.579-1.133-3.07-2.203-3.989-4.723c-1.009-2.769-2.083-4.151-2.795-5.065c-0.102-0.131-0.196-0.251-0.276-0.36
	c0.237-0.302,0.975-0.778,1.868-0.585c1.439,0.31,1.815,0.85,2.498,1.829c0.583,0.837,1.288,1.848,2.679,2.749l0.018,0.224
	c0.072,0.908,0.866,1.588,1.775,1.515C31.164,46.848,31.842,46.053,31.77,45.145L31.77,45.145z M31.013,60.57
	c0-0.103,0.053-0.201,0.111-0.201h19.404c0.168,0.106,0.347,0.167,0.535,0.168h0.008c0.035,0,0.07-0.006,0.106-0.009
	c0.003,0.014,0.006,0.028,0.006,0.042v8.967H31.013V60.57z M54.482,77.237V68.73h8.064v8.508H54.482z M69.147,75.936
	c0,0.719-0.584,1.302-1.302,1.302h-1.999V68.73h1.999c0.452,0,0.889-0.065,1.302-0.187V75.936z M69.147,64.128
	c0,0.719-0.584,1.302-1.302,1.302H54.482v-4.95c0-1.239-0.667-2.323-1.658-2.92c0.219-1.444,0.757-2.935,1.321-4.492
	c0.541-1.495,1.1-3.041,1.393-4.63c0.62-3.359,0.831-5.684,0.832-9.198l0.364-10.44c0.001-0.019,0.001-0.038,0.001-0.058
	c0-2.924-2.188-4.553-4.35-4.652c-0.431-0.02-0.868,0.023-1.296,0.129l0.135-2.742c0.147-3.018-2.073-4.807-4.236-4.959
	c-1.109-0.077-2.262,0.253-3.189,0.994l-0.02-0.743c-0.076-2.654-2.118-4.733-4.651-4.733c-2.532,0-4.574,2.08-4.65,4.733
	l-0.036,1.297c-0.83-0.85-1.948-1.355-3.193-1.355c-1.298,0-2.557,0.556-3.452,1.525c-0.868,0.938-1.292,2.141-1.194,3.384
	l1.446,18.307c-0.757-1.005-1.828-2.068-4.068-2.55c-2.368-0.511-4.416,0.675-5.317,1.993c-0.769,1.125-0.822,2.41-0.143,3.436
	c0.171,0.259,0.364,0.506,0.568,0.768c0.619,0.797,1.467,1.887,2.299,4.168c1.267,3.479,3.429,5.029,5.167,6.275
	c1.512,1.085,2.524,1.813,2.826,3.538c-0.996,0.596-1.666,1.683-1.666,2.925v4.951H13.048v-31.46c0-0.912-0.739-1.65-1.65-1.65
	c-0.912,0-1.65,0.738-1.65,1.65v31.522c-1.213,0.154-2.337,0.595-3.3,1.254V10.213c0-2.018,1.412-3.711,3.3-4.145v13.05
	c0,0.912,0.738,1.65,1.65,1.65c0.911,0,1.65-0.738,1.65-1.65V5.959h54.796c0.718,0,1.302,0.584,1.302,1.302V64.128z M69.147,64.128"
	/>
<rect x="109.814" y="59.074" fill="none" stroke="#1D70B7" stroke-width="4.2267" stroke-linecap="round" stroke-linejoin="round" stroke-miterlimit="10" width="22.656" height="26.037"/>
<rect x="30.913" y="60.319" fill="#FFFFFF" width="20.305" height="23.666"/>
</svg>
