<?xml version="1.0" encoding="utf-8"?>
<!-- Generator: Adobe Illustrator 17.0.0, SVG Export Plug-In . SVG Version: 6.00 Build 0)  -->
<!DOCTYPE svg PUBLIC "-//W3C//DTD SVG 1.1//EN" "http://www.w3.org/Graphics/SVG/1.1/DTD/svg11.dtd">
<svg version="1.1" id="Layer_1" xmlns="http://www.w3.org/2000/svg" xmlns:xlink="http://www.w3.org/1999/xlink" x="0px" y="0px"
	 width="170.08px" height="170.08px" viewBox="0 0 170.08 170.08" enable-background="new 0 0 170.08 170.08" xml:space="preserve">
<path fill="#FFFFFF" d="M72.995,54.009c0,0,36.022-0.113,40.893,1.246s19.937,14.046,19.937,14.046l12.8,17.785l13.82,4.191
	l-0.906,20.163l-12.461,4.758l-14.613,20.616l-1.359,20.277l-7.25,2.492l-18.464-2.039l-3.851-8.269l-23.222-0.68l-2.719,9.402
	l-24.581,1.359l-2.719-6.797l-1.133-10.761l-15.292-14.726l-8.043-29.452l6.797-18.691l17.898-16.199"/>
<path fill="#010202" d="M155.197,84.987l-7.071-0.885c-2.15-5.259-5.238-10.124-9.076-14.333l5.199-22.023
	c0.214-0.905,0.002-1.858-0.575-2.588c-0.577-0.729-1.456-1.155-2.386-1.155l-0.665,0c-0.004,0-0.007,0-0.011,0
	c-8.63,0-16.407,5.43-19.466,13.394c-2.164-0.86-4.388-1.568-6.656-2.105c-1.636-0.387-3.276,0.625-3.663,2.262
	c-0.387,1.636,0.626,3.276,2.262,3.663c7.748,1.833,14.66,5.751,20.108,11.188c0.199,0.292,0.447,0.55,0.739,0.759
	c3.971,4.168,7.11,9.169,9.147,14.774c0.39,1.074,1.349,1.839,2.483,1.981l8.876,1.111c1.388,0.174,2.434,1.359,2.434,2.758v15.346
	c0,1.398-1.046,2.584-2.434,2.758l-8.225,1.03c-1.183,0.148-2.171,0.973-2.527,2.111c-2.44,7.797-7.077,14.691-13.409,19.938
	c-0.698,0.578-1.102,1.438-1.102,2.344v16.825c0,1.51-1.229,2.739-2.738,2.739h-17.656c-1.51,0-2.739-1.229-2.739-2.739v-6.412
	c0-1.681-1.363-3.044-3.044-3.044H77.429c-1.681,0-3.044,1.363-3.044,3.044v6.412c0,1.51-1.228,2.739-2.739,2.739H53.99
	c-1.51,0-2.738-1.229-2.738-2.739v-11.88c0-1.116-0.611-2.143-1.592-2.675c-13.662-7.417-22.149-21.672-22.149-37.201
	c0-23.324,18.976-42.3,42.3-42.3h3.814c1.681,0,3.044-1.363,3.044-3.044s-1.363-3.044-3.044-3.044h-3.814
	c-22.595,0-41.621,15.568-46.919,36.541h-2.23c-4.112,0-7.457-3.345-7.457-7.457c0-4.112,3.345-7.457,7.457-7.457
	c1.681,0,3.044-1.363,3.044-3.044c0-1.681-1.363-3.044-3.044-3.044c-7.469,0-13.545,6.076-13.545,13.545s6.076,13.545,13.545,13.545
	h1.105c-0.225,1.889-0.344,3.81-0.344,5.759c0,17.152,9.051,32.944,23.74,41.648v10.108c0,4.867,3.959,8.826,8.826,8.826h17.656
	c4.867,0,8.826-3.959,8.826-8.826v-3.368h19.485v3.368c0,4.867,3.959,8.826,8.826,8.826h17.656c4.867,0,8.826-3.959,8.826-8.826
	v-15.421c6.18-5.435,10.844-12.292,13.604-19.993l6.327-0.792c4.427-0.554,7.765-4.337,7.765-8.798V93.785
	C162.963,89.324,159.624,85.541,155.197,84.987z M137.353,50.459l-3.415,14.466c-2.271-1.857-4.703-3.503-7.261-4.916
	C128.359,55.177,132.461,51.582,137.353,50.459z"/>
<path fill="#010202" d="M128.284,88.714c0.566-0.566,0.892-1.351,0.892-2.152c0-0.801-0.326-1.586-0.892-2.152
	c-0.566-0.566-1.351-0.892-2.152-0.892c-0.801,0-1.586,0.326-2.152,0.892c-0.566,0.566-0.892,1.351-0.892,2.152
	c0,0.801,0.325,1.586,0.892,2.152s1.351,0.892,2.152,0.892C126.933,89.606,127.718,89.28,128.284,88.714z"/>
<path fill="#1D71B8" d="M96.376,24.873c-1.681,0-3.044,1.363-3.044,3.044V39.99c0,1.681,1.363,3.044,3.044,3.044
	s3.044-1.363,3.044-3.044V27.917C99.419,26.236,98.057,24.873,96.376,24.873z"/>
<path fill="#1D71B8" d="M96.375,19.917c0.801,0,1.586-0.326,2.152-0.892c0.566-0.566,0.892-1.351,0.892-2.152
	s-0.326-1.583-0.892-2.152c-0.566-0.566-1.351-0.892-2.152-0.892c-0.801,0-1.586,0.326-2.152,0.892
	c-0.566,0.566-0.892,1.351-0.892,2.152c0,0.804,0.325,1.586,0.892,2.152C94.789,19.591,95.574,19.917,96.375,19.917z"/>
<path fill="#1D71B8" d="M71.647,18.379c1.681,0,3.044-1.363,3.044-3.044v-5.175c0-1.681-1.363-3.044-3.044-3.044
	s-3.044,1.363-3.044,3.044v5.175C68.603,17.017,69.966,18.379,71.647,18.379z"/>
<path fill="#010202" d="M38.774,105.567c1.681-0.011,3.035-1.382,3.025-3.063l0-0.124c0-1.681-1.363-3.044-3.044-3.044
	s-3.044,1.363-3.044,3.044l0,0.162c0.01,1.674,1.371,3.025,3.044,3.025C38.761,105.567,38.767,105.567,38.774,105.567z"/>
<path fill="#010202" d="M52.107,131.53c0.494,0.301,1.04,0.444,1.579,0.444c1.027,0,2.03-0.52,2.603-1.462
	c0.874-1.436,0.418-3.309-1.018-4.183c-5.291-3.22-9.421-8.167-11.629-13.93c-0.602-1.57-2.362-2.355-3.931-1.753
	c-1.57,0.601-2.355,2.361-1.753,3.931C40.645,121.593,45.671,127.614,52.107,131.53z"/>
<path fill="#1D71B8" d="M71.647,47.312c7.049,0,12.784-5.735,12.784-12.784s-5.735-12.784-12.784-12.784
	s-12.784,5.735-12.784,12.784S64.598,47.312,71.647,47.312z M71.647,27.831c3.692,0,6.696,3.004,6.696,6.696
	c0,3.692-3.004,6.696-6.696,6.696s-6.696-3.004-6.696-6.696C64.951,30.835,67.955,27.831,71.647,27.831z"/>
<path fill="#1D71B8" d="M85.491,71.647H70.43c-1.681,0-3.044,1.363-3.044,3.044c0,1.681,1.363,3.044,3.044,3.044H110
	c1.681,0,3.044-1.363,3.044-3.044c0-1.681-1.363-3.044-3.044-3.044h-2.739c1.204-1.949,1.9-4.243,1.9-6.696
	c0-7.049-5.735-12.784-12.784-12.784S83.592,57.901,83.592,64.95C83.591,67.404,84.288,69.698,85.491,71.647z M96.376,58.254
	c3.693,0,6.696,3.004,6.696,6.696s-3.004,6.696-6.696,6.696c-3.692,0-6.696-3.004-6.696-6.696S92.683,58.254,96.376,58.254z"/>
</svg>
