<?xml version="1.0" encoding="utf-8"?>
<!-- Generator: Adobe Illustrator 17.0.0, SVG Export Plug-In . SVG Version: 6.00 Build 0)  -->
<!DOCTYPE svg PUBLIC "-//W3C//DTD SVG 1.1//EN" "http://www.w3.org/Graphics/SVG/1.1/DTD/svg11.dtd">
<svg version="1.1" id="Layer_1" xmlns="http://www.w3.org/2000/svg" xmlns:xlink="http://www.w3.org/1999/xlink" x="0px" y="0px"
	 width="170.08px" height="170.08px" viewBox="0 0 170.08 170.08" enable-background="new 0 0 170.08 170.08" xml:space="preserve">
<polyline fill="#FFFFFF" points="70.84,4.257 99.24,4.257 160.608,7.413 162.623,31.294 162.047,131.182 154.563,135.788 
	93.536,135.788 103.611,161.119 64.462,164.574 73.098,137.227 11.784,135.212 7.178,130.894 7.178,13.447 12.072,7.413 "/>
<g>
	<path d="M16.879,20.035v83.939c0,1.742,1.413,3.156,3.156,3.156h130.01c1.742,0,3.156-1.413,3.156-3.156V20.035
		c0-1.742-1.413-3.156-3.156-3.156H20.035C18.293,16.879,16.879,18.293,16.879,20.035L16.879,20.035z M23.19,100.818V69.262h36.232
		l8.596,17.19c0.56,1.123,1.736,1.805,2.988,1.741c1.252-0.067,2.349-0.869,2.789-2.044L85.04,56.16l11.245,29.988
		c0.422,1.126,1.446,1.913,2.643,2.031c1.187,0.12,2.352-0.444,2.991-1.471l10.861-17.446h34.11v31.556H23.19z M146.89,23.19v39.76
		h-35.863c-1.09,0-2.102,0.562-2.679,1.487l-8.4,13.497l-11.952-31.87c-0.462-1.231-1.64-2.048-2.955-2.048
		c-1.315,0-2.493,0.817-2.955,2.048L70.426,77.156l-6.231-12.461c-0.534-1.069-1.627-1.744-2.822-1.744H23.19V23.19H146.89z
		 M146.89,23.19"/>
	<path d="M26.346,116.596c-1.742,0-3.156,1.413-3.156,3.156s1.413,3.156,3.156,3.156h9.467c1.742,0,3.156-1.413,3.156-3.156
		s-1.413-3.156-3.156-3.156H26.346z M26.346,116.596"/>
	<path d="M54.746,116.596c-1.742,0-3.156,1.413-3.156,3.156s1.413,3.156,3.156,3.156h9.467c1.742,0,3.156-1.413,3.156-3.156
		s-1.413-3.156-3.156-3.156H54.746z M54.746,116.596"/>
	<path d="M122.907,116.596c-1.742,0-3.156,1.413-3.156,3.156s1.413,3.156,3.156,3.156h20.827c1.742,0,3.156-1.413,3.156-3.156
		s-1.413-3.156-3.156-3.156H122.907z M122.907,116.596"/>
	<path d="M88.196,7.413c0,1.742-1.413,3.156-3.156,3.156c-1.742,0-3.156-1.413-3.156-3.156s1.413-3.156,3.156-3.156
		C86.782,4.257,88.196,5.67,88.196,7.413L88.196,7.413z M88.196,7.413"/>
	<path d="M156.356,4.257H99.24c-1.742,0-3.156,1.413-3.156,3.156s1.413,3.156,3.156,3.156h57.116c1.741,0,3.156,1.415,3.156,3.156
		v115.495c0,1.741-1.415,3.156-3.156,3.156H13.724c-1.741,0-3.156-1.415-3.156-3.156V13.724c0-1.741,1.415-3.156,3.156-3.156H70.84
		c1.742,0,3.156-1.413,3.156-3.156s-1.413-3.156-3.156-3.156H13.724c-5.22,0-9.467,4.247-9.467,9.467v115.495
		c0,5.22,4.247,9.467,9.467,9.467h57.407l-7.266,20.827H47.173c-1.742,0-3.156,1.413-3.156,3.156c0,1.742,1.413,3.156,3.156,3.156
		h75.734c1.742,0,3.156-1.413,3.156-3.156c0-1.742-1.413-3.156-3.156-3.156h-16.692l-7.266-20.827h57.407
		c5.22,0,9.467-4.247,9.467-9.467V13.724C165.823,8.504,161.576,4.257,156.356,4.257L156.356,4.257z M99.531,159.512H70.549
		l7.266-20.827h14.45L99.531,159.512z M99.531,159.512"/>
</g>
<path fill="#1D71B8" d="M16.879,20.035v83.939c0,1.742,1.413,3.156,3.156,3.156h130.01c1.742,0,3.156-1.413,3.156-3.156V20.035
	c0-1.742-1.413-3.156-3.156-3.156H20.035C18.293,16.879,16.879,18.293,16.879,20.035L16.879,20.035z M23.19,100.818V69.262h36.232
	l8.596,17.19c0.56,1.123,1.736,1.805,2.988,1.741c1.252-0.067,2.349-0.869,2.789-2.044L85.04,56.16l11.245,29.988
	c0.422,1.126,1.446,1.913,2.643,2.031c1.187,0.12,2.352-0.444,2.991-1.471l10.861-17.446h34.11v31.556H23.19z M146.89,23.19v39.76
	h-35.863c-1.09,0-2.102,0.562-2.679,1.487l-8.4,13.497l-11.952-31.87c-0.462-1.231-1.64-2.048-2.955-2.048
	c-1.315,0-2.493,0.817-2.955,2.048L70.426,77.156l-6.231-12.461c-0.534-1.069-1.627-1.744-2.822-1.744H23.19V23.19H146.89z
	 M146.89,23.19"/>
</svg>
