<?xml version="1.0" encoding="utf-8"?>
<!-- Generator: Adobe Illustrator 17.0.0, SVG Export Plug-In . SVG Version: 6.00 Build 0)  -->
<!DOCTYPE svg PUBLIC "-//W3C//DTD SVG 1.1//EN" "http://www.w3.org/Graphics/SVG/1.1/DTD/svg11.dtd">
<svg version="1.1" id="Layer_1" xmlns="http://www.w3.org/2000/svg" xmlns:xlink="http://www.w3.org/1999/xlink" x="0px" y="0px"
	 width="170.08px" height="170.08px" viewBox="0 0 170.08 170.08" enable-background="new 0 0 170.08 170.08" xml:space="preserve">
<ellipse fill="#FFFFFF" cx="85.185" cy="63.203" rx="62.115" ry="61.912"/>
<polyline fill="#FFFFFF" points="50.482,106.872 29.256,143.648 51.222,141.92 61.095,164.627 84.789,123.655 109.471,162.652 
	119.837,141.673 143.778,145.375 123.293,110.574 50.482,106.872 "/>
<path fill="#020202" d="M35.954,63.443c0,27.066,22.02,49.085,49.085,49.085c27.066,0,49.086-22.019,49.086-49.085
	s-22.02-49.085-49.086-49.085C57.974,14.358,35.954,36.376,35.954,63.443L35.954,63.443z M85.039,20.902
	c23.458,0,42.542,19.083,42.542,42.54s-19.083,42.54-42.542,42.54c-23.457,0-42.54-19.083-42.54-42.54S61.582,20.902,85.039,20.902
	L85.039,20.902z M85.039,20.902"/>
<path fill="#1D71B8" d="M54.735,57.609l12.683,12.498L64.5,87.671c-0.204,1.223,0.301,2.455,1.305,3.184
	c1.002,0.729,2.33,0.828,3.431,0.258l15.802-8.207l15.802,8.207c1.092,0.566,2.421,0.478,3.431-0.258
	c1.004-0.729,1.509-1.961,1.305-3.184l-2.918-17.564l12.683-12.498c0.884-0.87,1.199-2.163,0.816-3.343
	c-0.383-1.178-1.4-2.039-2.626-2.225L95.93,49.393l-7.965-15.929c-0.553-1.108-1.687-1.808-2.927-1.808
	c-1.24,0-2.372,0.7-2.927,1.808l-7.965,15.929l-17.603,2.649c-1.226,0.185-2.243,1.047-2.626,2.225
	C53.536,55.446,53.852,56.739,54.735,57.609L54.735,57.609z M76.802,55.611c1.053-0.159,1.963-0.82,2.44-1.771l5.797-11.596
	l5.798,11.596c0.476,0.951,1.387,1.612,2.44,1.771l12.811,1.929l-9.233,9.095c-0.757,0.748-1.105,1.817-0.931,2.869l2.125,12.783
	l-11.502-5.972c-0.471-0.245-0.989-0.368-1.508-0.368c-0.517,0-1.035,0.123-1.508,0.368l-11.502,5.972l2.125-12.783
	c0.175-1.051-0.173-2.121-0.931-2.869l-9.232-9.095L76.802,55.611z M76.802,55.611"/>
<g>
	<defs>
		<rect id="SVGID_1_" x="22.58" y="1.268" width="124.92" height="167.543"/>
	</defs>
	<clipPath id="SVGID_2_">
		<use xlink:href="#SVGID_1_"  overflow="visible"/>
	</clipPath>
	<path clip-path="url(#SVGID_2_)" fill="#020202" d="M88.312,4.541c0,1.807-1.465,3.273-3.273,3.273
		c-1.807,0-3.272-1.465-3.272-3.273c0-1.807,1.465-3.272,3.272-3.272C86.847,1.268,88.312,2.734,88.312,4.541L88.312,4.541z
		 M88.312,4.541"/>
	<path clip-path="url(#SVGID_2_)" fill="#020202" d="M69.617,3.197C42.09,10.223,22.864,34.998,22.864,63.443
		c0,17.667,7.428,34.314,20.468,46.103L23.618,144.29c-0.634,1.118-0.554,2.504,0.202,3.541c0.757,1.04,2.051,1.539,3.31,1.277
		l22.389-4.649l7.869,22.175c0.427,1.207,1.519,2.051,2.795,2.165c1.277,0.114,2.5-0.529,3.132-1.642l21.724-38.195l21.724,38.195
		c0.585,1.029,1.675,1.653,2.843,1.653c0.096,0,0.193-0.004,0.29-0.011c1.275-0.114,2.368-0.959,2.796-2.165l7.868-22.175
		l22.389,4.649c1.258,0.261,2.552-0.238,3.31-1.277c0.758-1.037,0.836-2.423,0.202-3.541l-19.715-34.744
		c13.04-11.789,20.468-28.436,20.468-46.103c0-28.444-19.225-53.219-46.751-60.245c-1.752-0.447-3.533,0.61-3.98,2.36
		c-0.447,1.752,0.61,3.533,2.36,3.981c24.628,6.287,41.828,28.453,41.828,53.904c0,30.976-25.158,55.63-55.631,55.63
		c-30.494,0-55.63-24.674-55.63-55.63c0-25.451,17.199-47.617,41.827-53.904c1.751-0.447,2.808-2.229,2.362-3.981
		C73.151,3.807,71.369,2.75,69.617,3.197L69.617,3.197z M61.163,157.704l-6.431-18.121c-0.547-1.542-2.148-2.443-3.75-2.111
		l-18.104,3.759l15.602-27.498c9.097,6.614,19.87,10.643,31.071,11.641L61.163,157.704z M119.095,137.472
		c-1.601-0.332-3.203,0.569-3.75,2.111l-6.43,18.121l-18.39-32.33c11.203-0.998,21.974-5.027,31.073-11.641l15.602,27.498
		L119.095,137.472z M119.095,137.472"/>
</g>
</svg>
