<?xml version="1.0" encoding="utf-8"?>
<!-- Generator: Adobe Illustrator 17.0.0, SVG Export Plug-In . SVG Version: 6.00 Build 0)  -->
<!DOCTYPE svg PUBLIC "-//W3C//DTD SVG 1.1//EN" "http://www.w3.org/Graphics/SVG/1.1/DTD/svg11.dtd">
<svg version="1.1" id="Layer_1" xmlns="http://www.w3.org/2000/svg" xmlns:xlink="http://www.w3.org/1999/xlink" x="0px" y="0px"
	 width="236.206px" height="84.524px" viewBox="0 0 236.206 84.524" enable-background="new 0 0 236.206 84.524"
	 xml:space="preserve">
<g id="iIXFER.tif">
	<g>
		<path fill="#FFFFFF" d="M88.834,40.358c0,6.493,0,12.879,0,19.427c-0.857-1.139-1.606-2.138-2.358-3.134
			c-0.785-1.041-1.57-1.038-2.366,0.016c-1.379,1.825-2.781,3.634-4.105,5.498c-0.327,0.46-0.547,1.105-0.553,1.668
			c-0.045,4.258-0.026,8.517-0.024,12.776c0.001,1.367,0.27,1.641,1.632,1.643c2.821,0.005,5.643,0.005,8.464,0
			c1.364-0.002,1.652-0.288,1.661-1.634c0.007-1.058,0.001-2.116,0.001-3.189c1.58,0,3.056,0,4.605,0
			c0,1.112-0.006,2.171,0.002,3.229c0.009,1.214,0.366,1.588,1.557,1.592c2.901,0.009,5.803,0.009,8.704,0
			c1.192-0.004,1.508-0.335,1.512-1.52c0.003-1.106,0.001-2.212,0.001-3.307c1.605,0,3.085,0,4.639,0
			c0,1.131-0.004,2.216,0.001,3.301c0.005,1.148,0.368,1.522,1.531,1.526c2.901,0.009,5.803,0.009,8.704,0
			c1.2-0.003,1.554-0.374,1.558-1.581c0.003-1.081,0.001-2.162,0.001-3.253c1.593,0,3.073,0,4.64,0c0,1.122-0.002,2.206,0.001,3.29
			c0.003,1.228,0.312,1.542,1.567,1.545c2.848,0.007,5.696,0.006,8.544,0.001c1.312-0.002,1.655-0.348,1.662-1.649
			c0.005-1.054,0.001-2.108,0.001-3.168c1.588,0,3.061,0,4.607,0c0,1.172-0.016,2.286,0.005,3.399
			c0.019,1.057,0.353,1.408,1.392,1.413c2.981,0.015,5.962,0.015,8.943,0.001c1.088-0.005,1.415-0.352,1.417-1.456
			c0.006-4.365,0.018-8.731-0.019-13.096c-0.004-0.488-0.208-1.048-0.496-1.448c-1.35-1.878-2.76-3.714-4.152-5.562
			c-0.876-1.163-1.539-1.149-2.432,0.037c-0.738,0.981-1.482,1.958-2.326,3.073c0-6.593,0-12.979,0-19.452
			c0.542,0.403,0.985,0.782,1.473,1.088c2.454,1.539,5.655,0.384,6.571-2.356c0.626-1.873-0.024-3.676-1.863-5.174
			c-2.805-2.286-5.61-4.572-8.413-6.86c-7.935-6.477-15.867-12.958-23.805-19.431c-2.199-1.793-4.21-1.791-6.41-0.011
			c-1.861,1.506-3.709,3.029-5.565,4.543c-1.453,1.186-2.91,2.368-4.494,3.657c0-0.428,0-0.683,0-0.939c0-2.316,0.001-4.631,0-6.947
			c-0.001-1.302-0.299-1.62-1.573-1.623c-3.38-0.007-6.761-0.007-10.141,0c-1.244,0.003-1.546,0.315-1.546,1.565
			c-0.003,5.137,0.002,10.274-0.004,15.411c-0.001,1.114,0.299,2.392-0.145,3.298c-0.46,0.938-1.651,1.522-2.53,2.25
			c-2.336,1.934-4.73,3.801-6.998,5.812c-1.692,1.501-1.754,4.054-0.335,5.859c1.364,1.735,3.944,2.159,5.809,0.939
			C87.866,41.109,88.314,40.743,88.834,40.358z"/>
		<path d="M88.834,40.358c-0.52,0.385-0.968,0.751-1.45,1.066c-1.865,1.22-4.445,0.796-5.809-0.939
			c-1.419-1.804-1.358-4.358,0.335-5.859c2.267-2.011,4.662-3.878,6.998-5.812c0.88-0.728,2.071-1.312,2.53-2.25
			c0.444-0.906,0.143-2.184,0.145-3.298c0.006-5.137,0.001-10.274,0.004-15.411c0.001-1.25,0.302-1.562,1.546-1.565
			c3.38-0.007,6.761-0.007,10.141,0c1.274,0.003,1.572,0.321,1.573,1.623c0.001,2.316,0,4.631,0,6.947c0,0.256,0,0.512,0,0.939
			c1.585-1.289,3.041-2.471,4.494-3.657c1.856-1.513,3.703-3.037,5.565-4.543c2.2-1.78,4.211-1.782,6.41,0.011
			c7.939,6.473,15.87,12.954,23.805,19.431c2.803,2.288,5.608,4.574,8.413,6.86c1.839,1.498,2.489,3.301,1.863,5.174
			c-0.915,2.739-4.117,3.894-6.571,2.356c-0.488-0.306-0.931-0.684-1.473-1.088c0,6.473,0,12.86,0,19.452
			c0.844-1.115,1.588-2.092,2.326-3.073c0.892-1.186,1.556-1.2,2.432-0.037c1.392,1.848,2.802,3.684,4.152,5.562
			c0.288,0.4,0.492,0.96,0.496,1.448c0.038,4.365,0.026,8.73,0.019,13.096c-0.002,1.104-0.329,1.451-1.417,1.456
			c-2.981,0.014-5.962,0.014-8.943-0.001c-1.039-0.005-1.372-0.356-1.392-1.413c-0.02-1.113-0.005-2.227-0.005-3.399
			c-1.546,0-3.019,0-4.607,0c0,1.06,0.004,2.114-0.001,3.168c-0.007,1.302-0.35,1.647-1.662,1.649
			c-2.848,0.005-5.696,0.006-8.544-0.001c-1.254-0.003-1.563-0.317-1.567-1.545c-0.003-1.084-0.001-2.168-0.001-3.29
			c-1.567,0-3.047,0-4.64,0c0,1.091,0.003,2.172-0.001,3.253c-0.004,1.208-0.358,1.578-1.558,1.581
			c-2.901,0.008-5.803,0.009-8.704,0c-1.163-0.004-1.526-0.378-1.531-1.526c-0.005-1.085-0.001-2.17-0.001-3.301
			c-1.554,0-3.034,0-4.639,0c0,1.095,0.002,2.201-0.001,3.307c-0.003,1.185-0.319,1.516-1.512,1.52
			c-2.901,0.009-5.803,0.009-8.704,0c-1.191-0.004-1.548-0.378-1.557-1.592c-0.008-1.059-0.002-2.118-0.002-3.229
			c-1.549,0-3.025,0-4.605,0c0,1.074,0.005,2.131-0.001,3.189c-0.009,1.345-0.297,1.631-1.661,1.634
			c-2.821,0.005-5.643,0.005-8.464,0c-1.362-0.003-1.631-0.277-1.632-1.643c-0.002-4.259-0.021-8.518,0.024-12.776
			c0.006-0.563,0.226-1.208,0.553-1.668c1.324-1.864,2.727-3.672,4.105-5.498c0.797-1.055,1.581-1.057,2.366-0.016
			c0.752,0.997,1.501,1.995,2.358,3.134C88.834,53.237,88.834,46.851,88.834,40.358z M145.02,65.553c0-1.094,0-2.127,0-3.161
			c0-7.744-0.006-15.489,0.012-23.233c0.001-0.565-0.181-0.923-0.615-1.275c-8.583-6.985-17.157-13.98-25.717-20.993
			c-0.468-0.384-0.738-0.373-1.199,0.005c-8.561,7.012-17.135,14.007-25.718,20.992c-0.435,0.354-0.612,0.714-0.61,1.277
			c0.017,7.744,0.012,15.489,0.012,23.233c0,1.052,0,2.104,0,3.153c1.63,0,3.081,0,4.607,0c0-0.625-0.063-1.214,0.019-1.782
			c0.073-0.504,0.2-1.062,0.488-1.464c1.38-1.922,2.819-3.803,4.244-5.692c0.79-1.047,1.503-1.053,2.295-0.013
			c1.207,1.587,2.351,3.226,3.617,4.765c0.843,1.025,1.301,2.092,1.119,3.419c-0.034,0.25,0.017,0.511,0.029,0.75
			c1.574,0,3.073,0,4.604,0c0-0.435,0.037-0.811-0.007-1.177c-0.12-0.991,0.223-1.783,0.836-2.558
			c1.32-1.668,2.562-3.396,3.844-5.094c0.832-1.102,1.603-1.115,2.422-0.032c1.428,1.888,2.859,3.773,4.245,5.691
			c0.26,0.36,0.384,0.863,0.437,1.315c0.073,0.618,0.018,1.251,0.018,1.878c1.599,0,3.079,0,4.64,0c0-0.456,0.04-0.879-0.008-1.293
			c-0.111-0.962,0.22-1.724,0.819-2.476c1.323-1.664,2.562-3.396,3.845-5.092c0.831-1.099,1.597-1.096,2.414-0.01
			c1.087,1.445,2.121,2.934,3.277,4.322c1.015,1.219,1.703,2.486,1.434,4.123c-0.02,0.122,0.023,0.254,0.04,0.422
			C141.945,65.553,143.396,65.553,145.02,65.553z M118.06,8.341c-0.641,0.36-1.262,0.602-1.755,1.002
			c-5.454,4.425-10.888,8.873-16.326,13.318c-5.376,4.394-10.753,8.786-16.119,13.193c-1.189,0.976-1.352,2.245-0.49,3.274
			c0.816,0.975,2.084,1.033,3.255,0.113c0.899-0.707,1.763-1.457,2.649-2.181c9.231-7.538,18.464-15.075,27.696-22.612
			c0.938-0.765,1.317-0.774,2.234-0.025c8.857,7.24,17.711,14.484,26.571,21.72c1.42,1.16,2.817,2.358,4.316,3.408
			c1.203,0.843,2.752,0.167,3.167-1.241c0.303-1.03-0.107-1.805-0.891-2.446c-2.699-2.205-5.394-4.415-8.092-6.621
			c-8.157-6.668-16.31-13.339-24.481-19.988C119.325,8.873,118.706,8.675,118.06,8.341z M93.879,8.577c0,5.381,0,10.72,0,16.087
			c0.106-0.046,0.16-0.056,0.197-0.086c2.741-2.228,5.487-4.45,8.209-6.702c0.199-0.165,0.315-0.538,0.318-0.816
			c0.023-2.631,0.015-5.261,0.011-7.892c0-0.201-0.038-0.401-0.058-0.591C99.627,8.577,96.766,8.577,93.879,8.577z M118.102,58.832
			c-1.138,1.517-2.212,2.906-3.228,4.334c-0.241,0.338-0.407,0.811-0.411,1.224c-0.032,3.593-0.018,7.186-0.018,10.779
			c0,0.256,0,0.513,0,0.78c2.487,0,4.866,0,7.249,0c0.029-0.127,0.062-0.203,0.062-0.278c0.004-3.859,0.007-7.718-0.001-11.578
			c0-0.2-0.047-0.439-0.161-0.595C120.461,61.964,119.31,60.442,118.102,58.832z M81.674,75.958c2.453,0,4.804,0,7.159,0
			c0.031-0.117,0.068-0.191,0.068-0.265c-0.003-3.907-0.008-7.814-0.021-11.721c-0.001-0.174-0.038-0.383-0.137-0.517
			c-1.129-1.533-2.274-3.055-3.445-4.621c-0.784,1.04-1.451,2.077-2.27,2.974c-1.112,1.217-1.446,2.561-1.388,4.195
			C81.755,69.291,81.674,72.587,81.674,75.958z M105.333,75.965c0-4.053,0.002-8.012-0.006-11.971c0-0.174-0.049-0.379-0.15-0.515
			c-1.134-1.532-2.283-3.053-3.48-4.647c-1.184,1.583-2.339,3.103-3.457,4.65c-0.151,0.208-0.154,0.552-0.156,0.834
			c-0.011,2.365-0.007,4.731-0.007,7.096c0,1.505,0,3.01,0,4.554C100.535,75.965,102.888,75.965,105.333,75.965z M138.128,75.965
			c0-0.404,0-0.721,0-1.038c0-3.003-0.08-6.008,0.032-9.007c0.059-1.579-0.264-2.888-1.345-4.057
			c-0.682-0.737-1.227-1.602-1.838-2.405c-0.149-0.196-0.317-0.376-0.498-0.589c-1.156,1.539-2.266,2.997-3.347,4.477
			c-0.157,0.214-0.247,0.529-0.249,0.797c-0.016,3.775-0.011,7.551-0.009,11.326c0,0.153,0.023,0.306,0.039,0.495
			C133.311,75.965,135.663,75.965,138.128,75.965z M154.48,75.961c0.02-0.14,0.047-0.241,0.047-0.342
			c0.003-3.854,0.006-7.708-0.002-11.562c0-0.199-0.042-0.438-0.155-0.592c-1.129-1.535-2.277-3.056-3.46-4.633
			c-1.172,1.563-2.313,3.062-3.418,4.587c-0.15,0.208-0.165,0.546-0.167,0.825c-0.019,3.083-0.024,6.166-0.031,9.249
			c-0.002,0.814,0,1.629,0,2.469C149.749,75.961,152.1,75.961,154.48,75.961z M107.597,71.085c1.561,0,3.039,0,4.563,0
			c0-1.09,0-2.137,0-3.213c-1.535,0-3.034,0-4.563,0C107.597,68.95,107.597,69.98,107.597,71.085z M128.6,67.876
			c-1.553,0-3.052,0-4.537,0c0,1.101,0,2.147,0,3.204c1.542,0,3.02,0,4.537,0C128.6,70.004,128.6,68.975,128.6,67.876z
			 M91.304,67.855c0,1.127,0,2.171,0,3.22c1.518,0,2.964,0,4.434,0c0-1.098,0-2.143,0-3.22
			C94.236,67.855,92.788,67.855,91.304,67.855z M144.937,67.866c-1.547,0-2.995,0-4.469,0c0,1.088,0,2.132,0,3.194
			c1.519,0,2.983,0,4.469,0C144.937,69.965,144.937,68.94,144.937,67.866z"/>
		<path fill="#FFFFFF" d="M145.02,65.553c-1.624,0-3.075,0-4.559,0c-0.018-0.168-0.06-0.3-0.04-0.422
			c0.269-1.637-0.419-2.904-1.434-4.123c-1.156-1.388-2.189-2.877-3.277-4.322c-0.817-1.085-1.583-1.088-2.414,0.01
			c-1.283,1.697-2.522,3.428-3.845,5.092c-0.599,0.753-0.929,1.515-0.819,2.476c0.048,0.413,0.008,0.837,0.008,1.293
			c-1.561,0-3.041,0-4.64,0c0-0.627,0.055-1.26-0.018-1.878c-0.053-0.453-0.177-0.955-0.437-1.315
			c-1.385-1.919-2.817-3.804-4.245-5.691c-0.819-1.083-1.59-1.07-2.422,0.032c-1.282,1.698-2.525,3.426-3.844,5.094
			c-0.613,0.775-0.955,1.567-0.836,2.558c0.044,0.366,0.007,0.742,0.007,1.177c-1.531,0-3.03,0-4.604,0
			c-0.011-0.239-0.063-0.5-0.029-0.75c0.183-1.327-0.276-2.394-1.119-3.419c-1.266-1.539-2.41-3.177-3.617-4.765
			c-0.791-1.04-1.505-1.035-2.295,0.013c-1.425,1.889-2.864,3.77-4.244,5.692c-0.288,0.402-0.415,0.959-0.488,1.464
			c-0.082,0.568-0.019,1.156-0.019,1.782c-1.525,0-2.977,0-4.607,0c0-1.05,0-2.101,0-3.153c0-7.744,0.006-15.489-0.012-23.233
			c-0.001-0.563,0.175-0.923,0.61-1.277c8.583-6.985,17.157-13.98,25.718-20.992c0.462-0.378,0.731-0.388,1.199-0.005
			c8.56,7.012,17.134,14.008,25.717,20.993c0.433,0.353,0.616,0.711,0.615,1.275c-0.018,7.744-0.012,15.489-0.012,23.233
			C145.02,63.426,145.02,64.459,145.02,65.553z M118.048,54.371c0,0.009,0,0.018,0,0.027c1.17,0,2.34,0.002,3.511,0
			c3.111-0.008,6.223-0.014,9.334-0.028c1.2-0.006,1.578-0.389,1.581-1.567c0.003-1.17,0.016-2.341-0.002-3.511
			c-0.042-2.655,0.101-5.333-0.191-7.961c-0.861-7.757-8.4-13.426-16.114-12.277c-7.273,1.083-12.417,7.031-12.435,14.386
			c-0.007,3.085-0.002,6.17-0.001,9.255c0,1.332,0.347,1.675,1.712,1.676C109.645,54.372,113.847,54.371,118.048,54.371z"/>
		<path fill="#FFFFFF" d="M118.06,8.341c0.646,0.334,1.265,0.532,1.734,0.914c8.171,6.649,16.325,13.321,24.481,19.988
			c2.698,2.206,5.393,4.415,8.092,6.621c0.784,0.641,1.194,1.416,0.891,2.446c-0.415,1.408-1.964,2.083-3.167,1.241
			c-1.499-1.05-2.896-2.248-4.316-3.408c-8.86-7.236-17.714-14.48-26.571-21.72c-0.917-0.749-1.296-0.741-2.234,0.025
			c-9.232,7.537-18.465,15.074-27.696,22.612c-0.886,0.724-1.75,1.474-2.649,2.181c-1.171,0.92-2.439,0.861-3.255-0.113
			c-0.862-1.029-0.698-2.298,0.49-3.274c5.366-4.406,10.744-8.799,16.119-13.193c5.438-4.445,10.872-8.893,16.326-13.318
			C116.798,8.943,117.419,8.701,118.06,8.341z"/>
		<path fill="#FFFFFF" d="M93.879,8.577c2.886,0,5.748,0,8.677,0c0.019,0.189,0.057,0.39,0.058,0.591
			c0.004,2.631,0.012,5.262-0.011,7.892c-0.002,0.278-0.118,0.651-0.318,0.816c-2.722,2.251-5.468,4.474-8.209,6.702
			c-0.037,0.03-0.09,0.041-0.197,0.086C93.879,19.297,93.879,13.958,93.879,8.577z"/>
		<path fill="#FFFFFF" d="M118.102,58.832c1.209,1.61,2.359,3.132,3.491,4.667c0.114,0.155,0.161,0.394,0.161,0.595
			c0.008,3.859,0.004,7.718,0.001,11.578c0,0.075-0.032,0.15-0.062,0.278c-2.382,0-4.762,0-7.249,0c0-0.268,0-0.524,0-0.78
			c0-3.593-0.013-7.186,0.018-10.779c0.004-0.413,0.17-0.885,0.411-1.224C115.89,61.738,116.964,60.35,118.102,58.832z"/>
		<path fill="#FFFFFF" d="M81.674,75.958c0-3.371,0.081-6.667-0.034-9.955c-0.057-1.633,0.277-2.978,1.388-4.195
			c0.819-0.897,1.486-1.934,2.27-2.974c1.171,1.566,2.316,3.088,3.445,4.621c0.099,0.134,0.136,0.343,0.137,0.517
			c0.013,3.907,0.018,7.814,0.021,11.721c0,0.074-0.037,0.147-0.068,0.265C86.478,75.958,84.127,75.958,81.674,75.958z"/>
		<path fill="#FFFFFF" d="M105.333,75.965c-2.445,0-4.798,0-7.256,0c0-1.544,0-3.049,0-4.554c0-2.366-0.005-4.731,0.007-7.096
			c0.001-0.281,0.005-0.626,0.156-0.834c1.118-1.547,2.273-3.067,3.457-4.65c1.197,1.594,2.346,3.115,3.48,4.647
			c0.101,0.136,0.15,0.342,0.15,0.515C105.335,67.953,105.333,71.912,105.333,75.965z"/>
		<path fill="#FFFFFF" d="M138.128,75.965c-2.464,0-4.817,0-7.215,0c-0.015-0.189-0.039-0.342-0.039-0.495
			c-0.002-3.775-0.007-7.551,0.009-11.326c0.001-0.269,0.092-0.583,0.249-0.797c1.081-1.479,2.191-2.937,3.347-4.477
			c0.181,0.213,0.349,0.394,0.498,0.589c0.611,0.804,1.156,1.668,1.838,2.405c1.082,1.169,1.404,2.478,1.345,4.057
			c-0.112,2.998-0.032,6.004-0.032,9.007C138.128,75.244,138.128,75.561,138.128,75.965z"/>
		<path fill="#FFFFFF" d="M154.48,75.961c-2.38,0-4.73,0-7.185,0c0-0.84-0.002-1.655,0-2.469c0.007-3.083,0.012-6.166,0.031-9.249
			c0.002-0.278,0.016-0.617,0.167-0.825c1.105-1.525,2.246-3.024,3.418-4.587c1.182,1.578,2.331,3.099,3.46,4.633
			c0.113,0.154,0.154,0.392,0.155,0.592c0.008,3.854,0.005,7.708,0.002,11.562C154.527,75.72,154.5,75.82,154.48,75.961z"/>
		<path fill="#FFFFFF" d="M107.597,71.085c0-1.104,0-2.134,0-3.213c1.529,0,3.028,0,4.563,0c0,1.076,0,2.123,0,3.213
			C110.636,71.085,109.158,71.085,107.597,71.085z"/>
		<path fill="#FFFFFF" d="M128.6,67.876c0,1.099,0,2.128,0,3.204c-1.517,0-2.995,0-4.537,0c0-1.057,0-2.103,0-3.204
			C125.549,67.876,127.048,67.876,128.6,67.876z"/>
		<path fill="#FFFFFF" d="M91.304,67.855c1.484,0,2.932,0,4.434,0c0,1.077,0,2.122,0,3.22c-1.47,0-2.917,0-4.434,0
			C91.304,70.026,91.304,68.982,91.304,67.855z"/>
		<path fill="#FFFFFF" d="M144.937,67.866c0,1.074,0,2.099,0,3.194c-1.486,0-2.95,0-4.469,0c0-1.061,0-2.106,0-3.194
			C141.942,67.866,143.39,67.866,144.937,67.866z"/>
		<path fill="#1D71B8" d="M118.048,54.371c-4.202,0-8.404,0.002-12.606-0.001c-1.364-0.001-1.711-0.344-1.712-1.676
			c-0.001-3.085-0.006-6.17,0.001-9.255c0.018-7.355,5.162-13.302,12.435-14.386c7.713-1.149,15.253,4.52,16.114,12.277
			c0.292,2.629,0.149,5.306,0.191,7.961c0.019,1.17,0.005,2.34,0.002,3.511c-0.003,1.179-0.381,1.562-1.581,1.567
			c-3.111,0.015-6.223,0.021-9.334,0.028c-1.17,0.003-2.34,0-3.511,0C118.048,54.389,118.048,54.38,118.048,54.371z M122.314,44.684
			c1.771,0.388,3.078,1.333,4.109,2.691c1.054,1.389,1.275,3.039,1.406,4.688c0.854,0,1.612,0,2.414,0
			c0-2.906,0.028-5.752-0.007-8.598c-0.051-4.209-1.738-7.604-5.174-10.083c-6.748-4.871-16.564-1.334-18.629,6.737
			c-0.286,1.12-0.426,2.301-0.453,3.458c-0.064,2.814-0.021,5.631-0.021,8.479c0.846,0,1.621,0,2.443,0
			c0.094-3.759,1.78-6.313,5.413-7.407c-1.598-3.223-1.219-5.649,1.147-7.491c1.929-1.501,4.823-1.365,6.733,0.385
			C123.349,39.056,124.202,41.767,122.314,44.684z M125.447,52.022c0.15-2.36-0.974-4.442-3.038-4.934
			c-2.848-0.678-5.811-0.696-8.654,0.012c-2.112,0.526-3.422,3.048-2.908,4.922C115.693,52.022,120.544,52.022,125.447,52.022z
			 M115.057,41.381c-0.003,1.714,1.412,3.145,3.077,3.112c1.664-0.033,3.014-1.419,3.015-3.095c0.001-1.67-1.371-3.049-3.038-3.054
			C116.443,38.338,115.06,39.714,115.057,41.381z"/>
		<path fill="#FFFFFF" d="M122.314,44.684c1.888-2.917,1.035-5.628-0.616-7.141c-1.91-1.75-4.804-1.885-6.733-0.385
			c-2.366,1.841-2.745,4.268-1.147,7.491c-3.632,1.095-5.318,3.648-5.413,7.407c-0.822,0-1.597,0-2.443,0
			c0-2.848-0.043-5.665,0.021-8.479c0.026-1.157,0.166-2.339,0.453-3.458c2.064-8.071,11.881-11.608,18.629-6.737
			c3.435,2.479,5.122,5.875,5.174,10.083c0.035,2.845,0.007,5.692,0.007,8.598c-0.802,0-1.56,0-2.414,0
			c-0.131-1.649-0.352-3.3-1.406-4.688C125.393,46.017,124.085,45.072,122.314,44.684z"/>
		<path fill="#FFFFFF" d="M125.447,52.022c-4.903,0-9.753,0-14.601,0c-0.513-1.874,0.796-4.395,2.908-4.922
			c2.843-0.709,5.806-0.69,8.654-0.012C124.473,47.579,125.597,49.662,125.447,52.022z"/>
		<path fill="#FFFFFF" d="M115.057,41.381c0.003-1.667,1.386-3.043,3.054-3.037c1.667,0.005,3.039,1.385,3.038,3.054
			c-0.001,1.676-1.351,3.062-3.015,3.095C116.469,44.526,115.054,43.094,115.057,41.381z"/>
	</g>
</g>
</svg>
