<?xml version="1.0" encoding="utf-8"?>
<!-- Generator: Adobe Illustrator 17.0.0, SVG Export Plug-In . SVG Version: 6.00 Build 0)  -->
<!DOCTYPE svg PUBLIC "-//W3C//DTD SVG 1.1//EN" "http://www.w3.org/Graphics/SVG/1.1/DTD/svg11.dtd">
<svg version="1.1" id="Layer_1" xmlns="http://www.w3.org/2000/svg" xmlns:xlink="http://www.w3.org/1999/xlink" x="0px" y="0px"
	 width="80.088px" height="75.271px" viewBox="0 0 80.088 75.271" enable-background="new 0 0 80.088 75.271" xml:space="preserve">
<g id="jSgPc6.tif">
	<g>
		<path fill="#FFFFFF" d="M16.473,61.176c0,0.397-0.002,0.718,0,1.039c0.013,2.002,1.445,3.445,3.441,3.447
			c5.959,0.006,11.917,0.01,17.876,0.006c1.895-0.001,3.357-1.48,3.371-3.379c0.003-0.361,0-0.723,0-1.087c3.057,0,5.999,0,8.989,0
			c0.416,3.542,1.977,6.455,4.796,8.634c2.849,2.203,6.099,2.998,9.627,2.387c6.413-1.11,10.336-6.715,10.249-12.374
			c-0.088-5.731-4.396-11.321-11.001-12.076c-2.823-0.323-5.489,0.274-7.895,1.813c-3.397,2.173-5.272,5.323-5.78,9.294
			c-3.015,0-5.99,0-8.991,0c0-0.357,0.001-0.66,0-0.963c-0.008-2.047-1.42-3.465-3.484-3.467c-5.935-0.006-11.871-0.005-17.806,0
			c-1.919,0.002-3.368,1.449-3.384,3.355c-0.003,0.364,0,0.728,0,1.13c-1.052,0-2.007,0.002-2.962,0
			c-3.616-0.008-6.008-2.398-6.012-6.017c-0.003-2.734,0-5.468,0.006-8.202c0.008-3.587,2.385-5.958,5.979-5.964
			c3.669-0.006,7.338-0.005,11.006-0.007c1.045-0.001,2.089,0,3.199,0c0,0.446-0.004,0.814,0.001,1.183
			c0.022,1.823,1.477,3.297,3.298,3.3c6.029,0.009,12.058,0.01,18.087,0c1.818-0.003,3.266-1.482,3.289-3.31
			c0.005-0.367,0.001-0.734,0.001-1.172c0.421,0,0.766,0,1.112,0c4.533,0,9.067,0.012,13.6-0.004
			c4.216-0.015,7.697-3.51,7.719-7.732c0.014-2.687,0.065-5.377-0.028-8.061c-0.036-1.046-0.249-2.157-0.679-3.104
			c-1.372-3.018-3.804-4.561-7.128-4.649c-1.111-0.029-2.224-0.005-3.372-0.005c0-0.429,0.002-0.754,0-1.078
			c-0.011-1.95-1.457-3.405-3.408-3.407c-5.982-0.007-11.964-0.011-17.946-0.005c-1.862,0.002-3.316,1.472-3.333,3.336
			c-0.003,0.366-0.001,0.733-0.001,1.102c-2.258,0-4.437,0-6.672,0c0-0.468-0.025-0.887,0.007-1.303
			c0.034-0.45-0.12-0.67-0.583-0.765c-0.637-0.13-1.256-0.345-1.884-0.522c-0.688-0.194-0.893-0.671-0.546-1.293
			c0.417-0.747,0.842-1.49,1.262-2.233c-1.399-1.4-2.745-2.762-4.118-4.097c-0.127-0.123-0.471-0.163-0.635-0.082
			c-0.648,0.319-1.26,0.708-1.892,1.059c-0.605,0.336-1.081,0.143-1.276-0.521c-0.197-0.67-0.395-1.341-0.551-2.021
			c-0.089-0.389-0.267-0.515-0.669-0.51c-1.729,0.023-3.459,0.025-5.187-0.002c-0.419-0.007-0.57,0.158-0.659,0.525
			c-0.165,0.678-0.358,1.35-0.551,2.021c-0.18,0.624-0.661,0.836-1.222,0.53c-0.614-0.335-1.225-0.677-1.819-1.046
			c-0.321-0.2-0.538-0.231-0.837,0.077C9.854,6.214,8.612,7.451,7.358,8.674c-0.276,0.269-0.281,0.47-0.09,0.777
			c0.369,0.594,0.709,1.206,1.048,1.818c0.337,0.608,0.145,1.082-0.524,1.277c-0.825,0.241-1.655,0.463-2.517,0.703
			c0,1.971-0.009,3.908,0.017,5.846c0.002,0.155,0.214,0.392,0.377,0.446c0.684,0.228,1.387,0.396,2.081,0.596
			c0.712,0.206,0.911,0.674,0.555,1.312c-0.408,0.731-0.829,1.456-1.211,2.126c1.498,1.506,2.958,2.973,4.436,4.458
			c0.679-0.388,1.384-0.797,2.095-1.197c0.677-0.381,1.135-0.192,1.345,0.546c0.178,0.627,0.383,1.249,0.518,1.885
			c0.09,0.427,0.285,0.563,0.713,0.558c1.729-0.019,3.458-0.014,5.187,0.004c0.366,0.004,0.542-0.104,0.626-0.473
			c0.161-0.703,0.362-1.397,0.565-2.09c0.171-0.582,0.695-0.789,1.227-0.491c0.752,0.422,1.498,0.856,2.137,1.222
			c1.522-1.495,2.998-2.945,4.499-4.419c-0.4-0.699-0.821-1.425-1.233-2.156c-0.324-0.575-0.125-1.088,0.5-1.27
			c0.693-0.202,1.402-0.353,2.082-0.59c0.19-0.066,0.402-0.347,0.427-0.551c0.062-0.5,0.02-1.013,0.02-1.537
			c2.262,0,4.444,0,6.675,0c0,0.389-0.002,0.736,0,1.083c0.016,1.901,1.47,3.362,3.381,3.364c5.982,0.005,11.964,0.002,17.947-0.006
			c1.867-0.003,3.326-1.466,3.346-3.325c0.004-0.366,0.001-0.733,0.001-1.159c1.051,0,2.027-0.002,3.003,0
			c3.57,0.01,5.965,2.408,5.971,5.987c0.004,2.36-0.001,4.72-0.006,7.08c-0.008,3.625-2.384,5.991-6.023,5.994
			c-4.487,0.004-8.973,0.001-13.46,0.001c-0.223,0-0.446,0-0.702,0c0-0.421,0.002-0.746,0-1.072
			c-0.012-1.959-1.449-3.405-3.404-3.407c-5.959-0.005-11.918-0.005-17.876,0c-1.953,0.002-3.383,1.451-3.394,3.415
			c-0.002,0.341,0,0.681,0,1.07c-0.377,0-0.654,0-0.931,0c-4.557,0-9.113-0.007-13.67,0.002c-4.351,0.009-7.819,3.48-7.831,7.831
			c-0.008,2.968-0.006,5.935-0.001,8.903c0.008,4.498,3.44,7.928,7.937,7.938C14.27,61.179,15.338,61.176,16.473,61.176z"/>
		<path d="M16.473,61.176c-1.135,0-2.204,0.002-3.272,0c-4.497-0.011-7.929-3.44-7.937-7.938c-0.005-2.968-0.008-5.935,0.001-8.903
			c0.012-4.352,3.479-7.822,7.831-7.831c4.557-0.01,9.113-0.002,13.67-0.002c0.277,0,0.554,0,0.931,0c0-0.388-0.002-0.729,0-1.07
			c0.011-1.964,1.441-3.414,3.394-3.415c5.959-0.005,11.918-0.005,17.876,0c1.955,0.001,3.392,1.448,3.404,3.407
			c0.002,0.325,0,0.65,0,1.072c0.256,0,0.479,0,0.702,0c4.487,0,8.973,0.003,13.46-0.001c3.639-0.003,6.014-2.37,6.023-5.994
			c0.005-2.36,0.01-4.72,0.006-7.08c-0.006-3.579-2.401-5.977-5.971-5.987c-0.976-0.003-1.952,0-3.003,0
			c0,0.426,0.003,0.793-0.001,1.159c-0.02,1.859-1.479,3.322-3.346,3.325c-5.982,0.009-11.964,0.012-17.947,0.006
			c-1.912-0.002-3.366-1.463-3.381-3.364c-0.003-0.347,0-0.694,0-1.083c-2.231,0-4.413,0-6.675,0c0,0.524,0.041,1.037-0.02,1.537
			c-0.025,0.204-0.237,0.485-0.427,0.551c-0.68,0.237-1.389,0.389-2.082,0.59c-0.625,0.182-0.824,0.695-0.5,1.27
			c0.412,0.731,0.833,1.457,1.233,2.156c-1.501,1.475-2.977,2.924-4.499,4.419c-0.639-0.366-1.384-0.8-2.137-1.222
			c-0.532-0.298-1.056-0.092-1.227,0.491c-0.204,0.692-0.404,1.387-0.565,2.09c-0.084,0.369-0.26,0.477-0.626,0.473
			c-1.729-0.019-3.458-0.023-5.187-0.004c-0.429,0.005-0.623-0.131-0.713-0.558c-0.135-0.636-0.34-1.258-0.518-1.885
			c-0.21-0.738-0.668-0.926-1.345-0.546c-0.711,0.399-1.416,0.808-2.095,1.197c-1.478-1.485-2.938-2.953-4.436-4.458
			c0.382-0.67,0.802-1.395,1.211-2.126c0.356-0.638,0.157-1.107-0.555-1.312c-0.693-0.2-1.397-0.368-2.081-0.596
			c-0.163-0.054-0.375-0.291-0.377-0.446c-0.026-1.937-0.017-3.875-0.017-5.846c0.862-0.24,1.692-0.462,2.517-0.703
			c0.669-0.195,0.861-0.669,0.524-1.277c-0.339-0.612-0.679-1.224-1.048-1.818c-0.191-0.308-0.185-0.509,0.09-0.777
			c1.255-1.223,2.497-2.461,3.716-3.719c0.298-0.308,0.515-0.276,0.837-0.077c0.594,0.369,1.205,0.712,1.819,1.046
			c0.561,0.306,1.042,0.094,1.222-0.53c0.193-0.671,0.386-1.343,0.551-2.021c0.089-0.367,0.24-0.531,0.659-0.525
			c1.729,0.027,3.458,0.024,5.187,0.002c0.402-0.005,0.58,0.121,0.669,0.51c0.156,0.68,0.354,1.351,0.551,2.021
			c0.195,0.664,0.671,0.857,1.276,0.521c0.632-0.351,1.245-0.74,1.892-1.059c0.164-0.081,0.509-0.041,0.635,0.082
			c1.373,1.335,2.719,2.697,4.118,4.097c-0.421,0.743-0.845,1.486-1.262,2.233c-0.347,0.622-0.142,1.099,0.546,1.293
			c0.627,0.177,1.247,0.392,1.884,0.522c0.463,0.094,0.617,0.314,0.583,0.765c-0.031,0.415-0.007,0.835-0.007,1.303
			c2.235,0,4.414,0,6.672,0c0-0.369-0.003-0.736,0.001-1.102c0.018-1.864,1.472-3.334,3.333-3.336
			c5.982-0.005,11.964-0.001,17.946,0.005c1.951,0.002,3.396,1.456,3.408,3.407c0.002,0.325,0,0.649,0,1.078
			c1.148,0,2.261-0.025,3.372,0.005c3.323,0.088,5.755,1.63,7.128,4.649c0.43,0.946,0.643,2.058,0.679,3.104
			c0.093,2.684,0.042,5.374,0.028,8.061c-0.022,4.222-3.503,7.716-7.719,7.732c-4.533,0.016-9.067,0.004-13.6,0.004
			c-0.345,0-0.69,0-1.112,0c0,0.438,0.004,0.805-0.001,1.172c-0.022,1.828-1.471,3.307-3.289,3.31c-6.029,0.01-12.058,0.01-18.087,0
			c-1.822-0.003-3.276-1.477-3.298-3.3c-0.004-0.368-0.001-0.737-0.001-1.183c-1.11,0-2.154,0-3.199,0
			c-3.669,0.002-7.338,0.001-11.006,0.007c-3.594,0.006-5.971,2.378-5.979,5.964c-0.006,2.734-0.01,5.468-0.006,8.202
			c0.004,3.619,2.396,6.01,6.012,6.017c0.955,0.002,1.91,0,2.962,0c0-0.401-0.003-0.765,0-1.13c0.016-1.906,1.465-3.353,3.384-3.355
			c5.935-0.005,11.871-0.006,17.806,0c2.065,0.002,3.476,1.419,3.484,3.467c0.001,0.303,0,0.606,0,0.963c3.001,0,5.976,0,8.991,0
			c0.509-3.971,2.383-7.121,5.78-9.294c2.406-1.539,5.072-2.136,7.895-1.813c6.605,0.755,10.913,6.345,11.001,12.076
			c0.087,5.659-3.836,11.264-10.249,12.374c-3.528,0.611-6.778-0.184-9.627-2.387c-2.819-2.18-4.38-5.092-4.796-8.634
			c-2.99,0-5.931,0-8.989,0c0,0.364,0.002,0.725,0,1.087c-0.014,1.899-1.477,3.378-3.371,3.379c-5.959,0.004-11.917,0-17.876-0.006
			c-1.995-0.002-3.428-1.444-3.441-3.447C16.472,61.894,16.473,61.573,16.473,61.176z M62.474,70.15
			c5.515-0.006,10.08-4.57,10.088-10.083c0.008-5.513-4.549-10.089-10.066-10.106c-5.541-0.018-10.136,4.575-10.122,10.117
			C52.387,65.594,56.963,70.156,62.474,70.15z M9.895,9.401c0.101,0.192,0.171,0.397,0.298,0.557
			c0.777,0.987,1.105,1.995,0.251,3.117c-0.122,0.16-0.188,0.382-0.219,0.585c-0.078,0.511-0.374,0.717-0.865,0.838
			C7.555,14.94,7.602,14.96,7.538,16.82c-0.025,0.739,0.208,1.075,0.912,1.15c1.08,0.115,1.859,0.563,2.033,1.76
			c0.048,0.33,0.333,0.62,0.423,0.952c0.068,0.252,0.083,0.58-0.023,0.805c-0.294,0.623-0.665,1.21-1.039,1.871
			c0.184,0.148,0.339,0.256,0.474,0.385c0.49,0.465,0.935,1.253,1.471,1.32c0.568,0.071,1.212-0.561,1.841-0.846
			c0.203-0.092,0.492-0.138,0.693-0.067c0.766,0.272,1.714,0.417,2.211,0.96c0.51,0.557,0.571,1.524,0.831,2.312
			c0.006,0.018,0.032,0.03,0.127,0.116c0.544,0,1.175-0.05,1.795,0.014c0.655,0.067,1.013-0.139,1.078-0.808
			c0.114-1.173,0.639-1.985,1.898-2.159c0.133-0.018,0.276-0.085,0.381-0.17c0.611-0.497,1.152-0.316,1.763,0.059
			c1.291,0.793,1.308,0.765,2.36-0.288c0.886-0.886,0.937-0.92,0.242-1.971c-0.503-0.761-0.411-1.36-0.148-2.218
			c0.428-1.395,1.271-1.958,2.582-2.152c0.185-0.027,0.472-0.276,0.482-0.436c0.049-0.81,0.023-1.625,0.023-2.436
			c-0.495-0.135-0.915-0.286-1.348-0.358c-0.777-0.13-1.112-0.579-1.494-1.285c-0.722-1.336-0.586-2.419,0.303-3.544
			c0.1-0.127,0.102-0.474,0.001-0.593c-0.525-0.62-1.098-1.199-1.631-1.767c-0.372,0.209-0.636,0.32-0.855,0.489
			c-0.882,0.681-1.668,0.668-2.766,0.234c-1.157-0.458-1.669-1.093-1.802-2.202c-0.081-0.668-0.416-0.84-1.075-0.823
			c-1.895,0.049-1.905,0.014-2.382,1.838c-0.115,0.44-0.28,0.72-0.775,0.843c-0.535,0.133-1.057,0.376-1.539,0.651
			c-0.425,0.242-0.752,0.196-1.14-0.053c-0.525-0.337-1.081-0.625-1.575-0.906C11.185,8.157,10.548,8.772,9.895,9.401z
			 M28.82,63.421c2.873,0,5.745,0.003,8.618-0.002c1.066-0.002,1.47-0.414,1.475-1.492c0.005-1.285,0.009-2.569-0.002-3.854
			c-0.008-0.94-0.438-1.38-1.371-1.381c-5.815-0.004-11.631-0.001-17.446,0.006c-0.945,0.001-1.355,0.425-1.363,1.38
			c-0.011,1.261-0.01,2.522-0.008,3.784c0.001,1.169,0.386,1.556,1.549,1.558C23.121,63.423,25.97,63.421,28.82,63.421z
			 M51.323,12.944c-2.896,0-5.793-0.003-8.689,0.001c-1.071,0.002-1.474,0.41-1.478,1.487c-0.005,1.285-0.009,2.569,0.001,3.854
			c0.007,0.941,0.435,1.385,1.366,1.386c5.816,0.006,11.632,0.006,17.448,0c0.93-0.001,1.365-0.446,1.372-1.381
			c0.01-1.261,0.005-2.523,0.002-3.784c-0.002-1.173-0.385-1.562-1.544-1.563C56.976,12.943,54.15,12.944,51.323,12.944z
			 M40.059,34.256c0,0.002,0,0.004,0,0.007c-2.872,0-5.743-0.003-8.615,0.001c-1.086,0.001-1.491,0.4-1.497,1.466
			c-0.008,1.261-0.011,2.521-0.006,3.782c0.004,1.068,0.412,1.474,1.49,1.474c5.72,0.001,11.439-0.002,17.159-0.006
			c1.133-0.001,1.527-0.391,1.534-1.502c0.007-1.237,0.01-2.475,0.006-3.712c-0.003-1.114-0.401-1.508-1.526-1.509
			C45.755,34.254,42.907,34.256,40.059,34.256z"/>
		<path fill="#FFFFFF" d="M62.474,70.15c-5.512,0.006-10.087-4.557-10.1-10.073c-0.014-5.542,4.581-10.134,10.122-10.117
			c5.517,0.018,10.074,4.593,10.066,10.106C72.554,65.581,67.989,70.144,62.474,70.15z M67.223,54.704
			c-2.746,2.749-5.442,5.449-8.25,8.261c-0.415-0.512-0.823-1.016-1.22-1.506c-0.624,0.608-1.137,1.109-1.589,1.549
			c1.016,1.013,2.016,2.009,2.91,2.899c3.187-3.189,6.425-6.428,9.665-9.669C68.318,55.811,67.828,55.316,67.223,54.704z"/>
		<path fill="#FFFFFF" d="M9.895,9.401c0.653-0.629,1.29-1.244,1.976-1.905c0.494,0.281,1.05,0.568,1.575,0.906
			c0.388,0.249,0.715,0.296,1.14,0.053c0.482-0.275,1.003-0.518,1.539-0.651c0.495-0.123,0.66-0.403,0.775-0.843
			c0.477-1.825,0.487-1.79,2.382-1.838c0.658-0.017,0.994,0.155,1.075,0.823c0.134,1.108,0.645,1.744,1.802,2.202
			c1.099,0.435,1.885,0.447,2.766-0.234c0.219-0.169,0.484-0.279,0.855-0.489c0.533,0.568,1.106,1.147,1.631,1.767
			c0.101,0.119,0.099,0.466-0.001,0.593c-0.889,1.124-1.025,2.207-0.303,3.544c0.381,0.706,0.717,1.155,1.494,1.285
			c0.433,0.072,0.852,0.224,1.348,0.358c0,0.812,0.027,1.626-0.023,2.436c-0.01,0.16-0.296,0.409-0.482,0.436
			c-1.311,0.194-2.155,0.757-2.582,2.152c-0.263,0.858-0.355,1.457,0.148,2.218c0.694,1.051,0.643,1.085-0.242,1.971
			c-1.052,1.053-1.069,1.08-2.36,0.288c-0.611-0.375-1.152-0.557-1.763-0.059c-0.105,0.085-0.248,0.152-0.381,0.17
			c-1.259,0.174-1.784,0.986-1.898,2.159c-0.065,0.669-0.423,0.876-1.078,0.808c-0.62-0.064-1.252-0.014-1.795-0.014
			c-0.095-0.086-0.121-0.098-0.127-0.116c-0.259-0.787-0.321-1.754-0.831-2.312c-0.497-0.543-1.444-0.688-2.211-0.96
			c-0.201-0.071-0.49-0.025-0.693,0.067c-0.629,0.285-1.273,0.917-1.841,0.846c-0.536-0.067-0.981-0.855-1.471-1.32
			c-0.135-0.128-0.29-0.236-0.474-0.385c0.374-0.661,0.745-1.248,1.039-1.871c0.106-0.225,0.092-0.553,0.023-0.805
			c-0.09-0.332-0.375-0.622-0.423-0.952c-0.174-1.197-0.952-1.645-2.033-1.76c-0.705-0.075-0.938-0.411-0.912-1.15
			c0.064-1.86,0.016-1.88,1.821-2.323c0.491-0.121,0.787-0.326,0.865-0.838c0.031-0.203,0.098-0.425,0.219-0.585
			c0.854-1.122,0.526-2.13-0.251-3.117C10.066,9.798,9.996,9.593,9.895,9.401z M25.495,16.352c0.004-3.727-3.03-6.761-6.765-6.765
			c-3.61-0.004-6.708,3.071-6.73,6.68c-0.023,3.732,2.982,6.781,6.716,6.815C22.456,23.115,25.491,20.103,25.495,16.352z"/>
		<path fill="#FFFFFF" d="M28.82,63.421c-2.849,0-5.699,0.002-8.548-0.001c-1.163-0.001-1.547-0.388-1.549-1.558
			c-0.002-1.261-0.003-2.522,0.008-3.784c0.008-0.955,0.418-1.379,1.363-1.38c5.815-0.008,11.631-0.01,17.446-0.006
			c0.933,0.001,1.363,0.441,1.371,1.381c0.011,1.284,0.007,2.569,0.002,3.854c-0.004,1.078-0.409,1.49-1.475,1.492
			C34.565,63.424,31.692,63.421,28.82,63.421z M23.156,61.148c0-0.771,0-1.477,0-2.18c-0.742,0-1.432,0-2.15,0
			c0,0.74,0,1.446,0,2.18C21.735,61.148,22.425,61.148,23.156,61.148z M27.662,58.982c-0.755,0-1.461,0-2.155,0
			c0,0.754,0,1.461,0,2.16c0.743,0,1.433,0,2.155,0C27.662,60.419,27.662,59.729,27.662,58.982z M29.948,61.135
			c0.77,0,1.477,0,2.188,0c0-0.755,0-1.462,0-2.148c-0.76,0-1.468,0-2.188,0C29.948,59.72,29.948,60.395,29.948,61.135z
			 M36.642,58.989c-0.777,0-1.484,0-2.18,0c0,0.744,0,1.434,0,2.146c0.742,0,1.448,0,2.18,0
			C36.642,60.404,36.642,59.714,36.642,58.989z"/>
		<path fill="#FFFFFF" d="M51.323,12.944c2.826,0,5.652-0.002,8.479,0.001c1.16,0.001,1.542,0.39,1.544,1.563
			c0.002,1.261,0.008,2.523-0.002,3.784c-0.007,0.935-0.442,1.38-1.372,1.381c-5.816,0.006-11.632,0.006-17.448,0
			c-0.931-0.001-1.359-0.444-1.366-1.386c-0.01-1.285-0.006-2.569-0.001-3.854c0.004-1.077,0.407-1.485,1.478-1.487
			C45.531,12.941,48.427,12.944,51.323,12.944z M56.894,17.393c0.74,0,1.447,0,2.164,0c0-0.745,0-1.451,0-2.153
			c-0.752,0-1.459,0-2.164,0C56.894,15.982,56.894,16.672,56.894,17.393z M54.579,17.4c0-0.77,0-1.46,0-2.168
			c-0.743,0-1.449,0-2.156,0c0,0.75,0,1.456,0,2.168C53.162,17.4,53.852,17.4,54.579,17.4z M47.93,15.216c0,0.765,0,1.473,0,2.164
			c0.758,0,1.467,0,2.169,0c0-0.749,0-1.44,0-2.164C49.372,15.216,48.68,15.216,47.93,15.216z M45.586,17.406
			c0-0.782,0-1.489,0-2.18c-0.746,0-1.436,0-2.143,0c0,0.744,0,1.45,0,2.18C44.177,17.406,44.866,17.406,45.586,17.406z"/>
		<path fill="#FFFFFF" d="M40.059,34.256c2.848,0,5.696-0.002,8.545,0.001c1.125,0.001,1.523,0.396,1.526,1.509
			c0.003,1.237,0.001,2.475-0.006,3.712c-0.006,1.111-0.401,1.501-1.534,1.502c-5.72,0.005-11.439,0.007-17.159,0.006
			c-1.078,0-1.486-0.406-1.49-1.474c-0.004-1.261-0.001-2.521,0.006-3.782c0.006-1.066,0.411-1.465,1.497-1.466
			c2.872-0.004,5.743-0.001,8.615-0.001C40.059,34.261,40.059,34.258,40.059,34.256z M32.225,36.536c0,0.741,0,1.447,0,2.16
			c0.748,0,1.454,0,2.147,0c0-0.755,0-1.461,0-2.16C33.628,36.536,32.939,36.536,32.225,36.536z M36.704,38.71
			c0.74,0,1.447,0,2.168,0c0-0.748,0-1.454,0-2.158c-0.755,0-1.462,0-2.168,0C36.704,37.294,36.704,37.984,36.704,38.71z
			 M43.368,36.545c-0.765,0-1.472,0-2.159,0c0,0.759,0,1.467,0,2.161c0.749,0,1.439,0,2.159,0
			C43.368,37.979,43.368,37.289,43.368,36.545z M45.658,38.698c0.77,0,1.476,0,2.177,0c0-0.752,0-1.459,0-2.139
			c-0.759,0-1.466,0-2.177,0C45.658,37.289,45.658,37.962,45.658,38.698z"/>
		<path d="M67.223,54.704c0.605,0.612,1.094,1.107,1.516,1.534c-3.24,3.242-6.478,6.481-9.665,9.669
			c-0.894-0.89-1.894-1.887-2.91-2.899c0.451-0.44,0.965-0.94,1.589-1.549c0.397,0.49,0.806,0.994,1.22,1.506
			C61.781,60.153,64.478,57.454,67.223,54.704z"/>
		<path d="M25.495,16.352c-0.004,3.751-3.039,6.763-6.779,6.729c-3.734-0.034-6.739-3.083-6.716-6.815
			c0.022-3.609,3.12-6.684,6.73-6.68C22.465,9.591,25.499,12.625,25.495,16.352z M23.211,16.386c0.01-2.508-1.982-4.517-4.464-4.501
			c-2.468,0.016-4.444,1.995-4.449,4.457c-0.006,2.46,1.979,4.452,4.439,4.456C21.222,20.803,23.201,18.85,23.211,16.386z"/>
		<path d="M23.156,61.148c-0.732,0-1.421,0-2.15,0c0-0.734,0-1.44,0-2.18c0.718,0,1.408,0,2.15,0
			C23.156,59.671,23.156,60.377,23.156,61.148z"/>
		<path d="M27.662,58.982c0,0.747,0,1.437,0,2.16c-0.722,0-1.412,0-2.155,0c0-0.699,0-1.406,0-2.16
			C26.201,58.982,26.907,58.982,27.662,58.982z"/>
		<path d="M29.948,61.135c0-0.74,0-1.415,0-2.148c0.72,0,1.428,0,2.188,0c0,0.686,0,1.393,0,2.148
			C31.426,61.135,30.718,61.135,29.948,61.135z"/>
		<path d="M36.642,58.989c0,0.726,0,1.415,0,2.146c-0.732,0-1.438,0-2.18,0c0-0.712,0-1.402,0-2.146
			C35.159,58.989,35.865,58.989,36.642,58.989z"/>
		<path d="M56.894,17.393c0-0.721,0-1.411,0-2.153c0.705,0,1.412,0,2.164,0c0,0.702,0,1.408,0,2.153
			C58.34,17.393,57.634,17.393,56.894,17.393z"/>
		<path d="M54.579,17.4c-0.727,0-1.417,0-2.156,0c0-0.712,0-1.418,0-2.168c0.707,0,1.412,0,2.156,0
			C54.579,15.94,54.579,16.63,54.579,17.4z"/>
		<path d="M47.93,15.216c0.751,0,1.442,0,2.169,0c0,0.724,0,1.415,0,2.164c-0.703,0-1.411,0-2.169,0
			C47.93,16.689,47.93,15.981,47.93,15.216z"/>
		<path d="M45.586,17.406c-0.72,0-1.41,0-2.143,0c0-0.73,0-1.436,0-2.18c0.707,0,1.396,0,2.143,0
			C45.586,15.917,45.586,16.624,45.586,17.406z"/>
		<path d="M32.225,36.536c0.714,0,1.404,0,2.147,0c0,0.698,0,1.405,0,2.16c-0.693,0-1.399,0-2.147,0
			C32.225,37.983,32.225,37.277,32.225,36.536z"/>
		<path d="M36.704,38.71c0-0.726,0-1.416,0-2.158c0.706,0,1.413,0,2.168,0c0,0.703,0,1.41,0,2.158
			C38.151,38.71,37.444,38.71,36.704,38.71z"/>
		<path d="M43.368,36.545c0,0.744,0,1.434,0,2.161c-0.72,0-1.41,0-2.159,0c0-0.694,0-1.402,0-2.161
			C41.895,36.545,42.603,36.545,43.368,36.545z"/>
		<path d="M45.658,38.698c0-0.736,0-1.409,0-2.139c0.711,0,1.418,0,2.177,0c0,0.681,0,1.387,0,2.139
			C47.134,38.698,46.428,38.698,45.658,38.698z"/>
		<path fill="#FFFFFF" d="M23.211,16.386c-0.01,2.464-1.989,4.417-4.474,4.413c-2.46-0.004-4.445-1.996-4.439-4.456
			c0.006-2.463,1.981-4.442,4.449-4.457C21.229,11.87,23.221,13.878,23.211,16.386z"/>
	</g>
</g>
</svg>
