<?xml version="1.0" encoding="UTF-8" standalone="no" ?>
<!DOCTYPE svg PUBLIC "-//W3C//DTD SVG 1.1//EN" "http://www.w3.org/Graphics/SVG/1.1/DTD/svg11.dtd">
<svg xmlns="http://www.w3.org/2000/svg" xmlns:xlink="http://www.w3.org/1999/xlink" version="1.1" width="787" height="315" viewBox="0 0 787 315" xml:space="preserve">
<desc>Created with Fabric.js 4.6.0</desc>
<defs>
</defs>
<g transform="matrix(12.42 0 0 4.97 393.5 157.5)" id="kmZaW8vW1zL1i7gzxoUHs"  >
<path style="stroke: rgb(66,255,91); stroke-width: 0; stroke-dasharray: none; stroke-linecap: butt; stroke-dashoffset: 0; stroke-linejoin: miter; stroke-miterlimit: 4; fill: rgb(255,255,255); fill-rule: nonzero; opacity: 1;" vector-effect="non-scaling-stroke"  transform=" translate(0, 0)" d="M -31.64557 -31.64557 L 31.64557 -31.64557 L 31.64557 31.64557 L -31.64557 31.64557 z" stroke-linecap="round" />
</g>
<g transform="matrix(1.46 0 0 1.46 393.5 157.5)" id="K2wTe5jd0vVA_NqBPr5_t"  >
<g style="" vector-effect="non-scaling-stroke"   >
		<g transform="matrix(1 0 0 1 -45.95 0)" id="UKu1VYAUV6F3sFkVxlnUp"  >
<path style="stroke: none; stroke-width: 1; stroke-dasharray: none; stroke-linecap: butt; stroke-dashoffset: 0; stroke-linejoin: miter; stroke-miterlimit: 4; fill: rgb(226,0,21); fill-rule: nonzero; opacity: 1;" vector-effect="non-scaling-stroke"  transform=" translate(-223.15, -119.7)" d="M 237.8 118.4 C 237.8 118.4 246.60000000000002 115.4 246.60000000000002 105.4 C 246.60000000000002 93.7 238.3 87.9 226.90000000000003 87.9 L 197 87.9 L 197 151.5 L 229.5 151.5 C 239.5 151.5 249.3 144.5 249.3 133.8 C 249.3 121.10000000000001 237.8 118.50000000000001 237.8 118.4 z M 212.60000000000002 101.10000000000001 L 224.20000000000002 101.10000000000001 C 227.8 101.10000000000001 230.20000000000002 103.50000000000001 230.20000000000002 107.10000000000001 C 230.20000000000002 109.9 228.00000000000003 112.9 223.9 112.9 L 212.5 112.9 L 212.5 101.10000000000001 z M 224.3 138.20000000000002 L 212.7 138.20000000000002 L 212.7 125.7 L 224 125.7 C 229.7 125.7 232.4 128.2 232.4 131.9 C 232.4 136.5 229 138.20000000000002 224.3 138.20000000000002 z" stroke-linecap="round" />
</g>
		<g transform="matrix(1 0 0 1 14.6 -0.1)" id="4uY6YcNhA1kQUO7L9fXp9"  >
<path style="stroke: none; stroke-width: 1; stroke-dasharray: none; stroke-linecap: butt; stroke-dashoffset: 0; stroke-linejoin: miter; stroke-miterlimit: 4; fill: rgb(226,0,21); fill-rule: nonzero; opacity: 1;" vector-effect="non-scaling-stroke"  transform=" translate(-283.7, -119.6)" d="M 283.7 86.3 C 265.3 86.3 254.5 101 254.5 119.6 C 254.5 138.29999999999998 265.3 152.89999999999998 283.7 152.89999999999998 C 302.2 152.89999999999998 312.9 138.29999999999998 312.9 119.59999999999998 C 312.9 100.99999999999997 302.2 86.29999999999998 283.7 86.29999999999998 z M 283.7 137.7 C 274.7 137.7 270.2 129.6 270.2 119.6 C 270.2 109.6 274.7 101.6 283.7 101.6 C 292.7 101.6 297.3 109.69999999999999 297.3 119.6 C 297.3 129.6 292.7 137.7 283.7 137.7 z" stroke-linecap="round" />
</g>
		<g transform="matrix(1 0 0 1 72.2 -0.3)" id="qq2LP73ReXqkPTn72riFU"  >
<path style="stroke: none; stroke-width: 1; stroke-dasharray: none; stroke-linecap: butt; stroke-dashoffset: 0; stroke-linejoin: miter; stroke-miterlimit: 4; fill: rgb(226,0,21); fill-rule: nonzero; opacity: 1;" vector-effect="non-scaling-stroke"  transform=" translate(-341.3, -119.4)" d="M 346.8 112.8 L 344.6 112.3 C 339.20000000000005 111.2 334.90000000000003 109.8 334.90000000000003 105.89999999999999 C 334.90000000000003 101.69999999999999 339.00000000000006 99.99999999999999 342.6 99.99999999999999 C 347.90000000000003 99.99999999999999 352.6 102.59999999999998 355.6 105.89999999999999 L 365.5 96.1 C 361 91 353.7 86.1 342.3 86.1 C 328.90000000000003 86.1 318.8 93.6 318.8 106.1 C 318.8 117.5 327 123.1 337 125.19999999999999 L 339.2 125.69999999999999 C 347.5 127.39999999999999 350.59999999999997 128.7 350.59999999999997 132.7 C 350.59999999999997 136.5 347.2 139 341.99999999999994 139 C 335.79999999999995 139 330.19999999999993 136.3 325.8999999999999 130.8 L 315.7999999999999 140.8 C 321.3999999999999 147.5 328.4999999999999 152.70000000000002 342.1999999999999 152.70000000000002 C 354.09999999999985 152.70000000000002 366.7999999999999 145.9 366.7999999999999 132.00000000000003 C 366.8999999999999 117.50000000000003 355.8999999999999 114.70000000000003 346.7999999999999 112.80000000000003 z" stroke-linecap="round" />
</g>
		<g transform="matrix(1 0 0 1 130.25 0)" id="EI610ueFrfnzdP7Rf1O26"  >
<path style="stroke: none; stroke-width: 1; stroke-dasharray: none; stroke-linecap: butt; stroke-dashoffset: 0; stroke-linejoin: miter; stroke-miterlimit: 4; fill: rgb(226,0,21); fill-rule: nonzero; opacity: 1;" vector-effect="non-scaling-stroke"  transform=" translate(-399.35, -119.7)" d="M 402.3 137.7 C 395.3 137.7 388 131.89999999999998 388 119.19999999999999 C 388 107.89999999999999 394.8 101.6 401.9 101.6 C 407.5 101.6 410.79999999999995 104.19999999999999 413.4 108.69999999999999 L 426.2 100.19999999999999 C 419.8 90.49999999999999 412.2 86.39999999999999 401.7 86.39999999999999 C 382.5 86.39999999999999 372.09999999999997 101.3 372.09999999999997 119.29999999999998 C 372.09999999999997 138.2 383.59999999999997 153 401.49999999999994 153 C 414.09999999999997 153 420.09999999999997 148.6 426.59999999999997 139.2 L 413.7 130.5 C 411.09999999999997 134.7 408.3 137.7 402.3 137.7 z" stroke-linecap="round" />
</g>
		<g transform="matrix(1 0 0 1 190.15 -0.1)" id="uy6Ss2z8qduGIC0vDvNUi"  >
<path style="stroke: none; stroke-width: 1; stroke-dasharray: none; stroke-linecap: butt; stroke-dashoffset: 0; stroke-linejoin: miter; stroke-miterlimit: 4; fill: rgb(226,0,21); fill-rule: nonzero; opacity: 1;" vector-effect="non-scaling-stroke"  transform=" translate(-459.25, -119.6)" d="M 449.6 111.2 L 449.6 87.80000000000001 L 432.90000000000003 87.80000000000001 L 432.90000000000003 151.4 L 449.6 151.4 L 449.6 126.30000000000001 L 468.90000000000003 126.30000000000001 L 468.90000000000003 151.4 L 485.6 151.4 L 485.6 87.80000000000001 L 468.90000000000003 87.80000000000001 L 468.90000000000003 111.20000000000002 z" stroke-linecap="round" />
</g>
		<g transform="matrix(1 0 0 1 -168.3 0)" id="-jKBSXbG1KvYvSqy7hyFP"  >
<path style="stroke: none; stroke-width: 1; stroke-dasharray: none; stroke-linecap: butt; stroke-dashoffset: 0; stroke-linejoin: miter; stroke-miterlimit: 4; fill: rgb(87,87,87); fill-rule: nonzero; opacity: 1;" vector-effect="non-scaling-stroke"  transform=" translate(-100.8, -119.7)" d="M 100.8 71.5 C 74.19999999999999 71.5 52.599999999999994 93.1 52.599999999999994 119.7 C 52.599999999999994 146.3 74.19999999999999 167.9 100.8 167.9 C 127.4 167.9 149 146.3 149 119.7 C 149 93.1 127.4 71.5 100.8 71.5 z M 100.8 163.4 C 76.69999999999999 163.4 57.099999999999994 143.8 57.099999999999994 119.7 C 57.099999999999994 95.6 76.69999999999999 76 100.8 76 C 124.9 76 144.5 95.6 144.5 119.7 C 144.5 143.8 124.9 163.4 100.8 163.4 z" stroke-linecap="round" />
</g>
		<g transform="matrix(1 0 0 1 -168.3 0)" id="qRGoDX_PBc0Ob7baJX-Hp"  >
<path style="stroke: none; stroke-width: 1; stroke-dasharray: none; stroke-linecap: butt; stroke-dashoffset: 0; stroke-linejoin: miter; stroke-miterlimit: 4; fill: rgb(87,87,87); fill-rule: nonzero; opacity: 1;" vector-effect="non-scaling-stroke"  transform=" translate(-100.8, -119.7)" d="M 120.7 89.6 L 117.4 89.6 L 117.4 106.1 L 84.3 106.1 L 84.3 89.6 L 80.89999999999999 89.6 C 71.19999999999999 96.1 64.69999999999999 107.1 64.69999999999999 119.69999999999999 C 64.69999999999999 132.29999999999998 71.19999999999999 143.29999999999998 80.89999999999999 149.79999999999998 L 84.3 149.79999999999998 L 84.3 133.29999999999998 L 117.4 133.29999999999998 L 117.4 149.79999999999998 L 120.7 149.79999999999998 C 130.5 143.29999999999998 136.9 132.29999999999998 136.9 119.69999999999999 C 136.9 107.1 130.5 96.1 120.7 89.6 z M 79.7 143.3 C 73 137.4 69.1 128.9 69.1 119.7 C 69.1 110.5 73 102 79.7 96.1 Z M 117.4 128.70000000000002 L 84.3 128.70000000000002 L 84.3 110.60000000000002 L 117.4 110.60000000000002 C 117.4 110.70000000000002 117.4 128.70000000000002 117.4 128.70000000000002 z M 121.9 143.20000000000002 L 121.9 133.20000000000002 L 121.9 133.20000000000002 L 121.9 106.10000000000002 L 121.9 106.10000000000002 L 121.9 96.10000000000002 C 128.5 102.00000000000003 132.4 110.50000000000003 132.4 119.60000000000002 C 132.4 128.8 128.5 137.3 121.9 143.20000000000002 z" stroke-linecap="round" />
</g>
</g>
</g>
</svg>