<?xml version="1.0" encoding="UTF-8" standalone="no" ?>
<!DOCTYPE svg PUBLIC "-//W3C//DTD SVG 1.1//EN" "http://www.w3.org/Graphics/SVG/1.1/DTD/svg11.dtd">
<svg xmlns="http://www.w3.org/2000/svg" xmlns:xlink="http://www.w3.org/1999/xlink" version="1.1" width="787" height="315" viewBox="0 0 787 315" xml:space="preserve">
<desc>Created with Fabric.js 4.6.0</desc>
<defs>
</defs>
<g transform="matrix(12.42 0 0 4.97 393.5 157.5)" id="kmZaW8vW1zL1i7gzxoUHs"  >
<path style="stroke: rgb(66,255,91); stroke-width: 0; stroke-dasharray: none; stroke-linecap: butt; stroke-dashoffset: 0; stroke-linejoin: miter; stroke-miterlimit: 4; fill: rgb(255,255,255); fill-rule: nonzero; opacity: 1;" vector-effect="non-scaling-stroke"  transform=" translate(0, 0)" d="M -31.64557 -31.64557 L 31.64557 -31.64557 L 31.64557 31.64557 L -31.64557 31.64557 z" stroke-linecap="round" />
</g>
<g transform="matrix(0.59 0 0 0.59 393.5 157.5)" id="kdvUr5BPZT8FhTtQDbEmC"  >
<g style="" vector-effect="non-scaling-stroke"   >
		<g transform="matrix(1 0 0 1 0 0)" id="eq212f77sXZgyCkFj3LHU"  >
<path style="stroke: none; stroke-width: 1; stroke-dasharray: none; stroke-linecap: butt; stroke-dashoffset: 0; stroke-linejoin: miter; stroke-miterlimit: 4; fill: rgb(0,45,89); fill-rule: nonzero; opacity: 1;" vector-effect="non-scaling-stroke"  transform=" translate(-253.3, -250)" d="M 0 500 L 0 0 L 506.6 0 L 506.6 500 z" stroke-linecap="round" />
</g>
		<g transform="matrix(1 0 0 1 64.4 -6.4)" id="M52HDS2G2pCuz9dMcdxDC"  >
<path style="stroke: none; stroke-width: 1; stroke-dasharray: none; stroke-linecap: butt; stroke-dashoffset: 0; stroke-linejoin: miter; stroke-miterlimit: 4; fill: rgb(255,255,255); fill-rule: nonzero; opacity: 1;" vector-effect="non-scaling-stroke"  transform=" translate(-385.2, -314.5)" d="M 384.7 333.3 L 384.7 317.2 C 384.7 311.09999999999997 388.3 307.2 394.9 306.3 C 397.5 306 398.79999999999995 306.2 400.2 306.5 L 400.2 295.6 C 390.7 295.6 386.2 298 384.2 304.70000000000005 L 384 304.70000000000005 L 384 297 L 370.2 297 L 370.2 333.4 L 384.7 333.3 z" stroke-linecap="round" />
</g>
		<g transform="matrix(1 0 0 1 159.45 -5.95)" id="94ERe4DKSl-udIl8dg3le"  >
<path style="stroke: none; stroke-width: 1; stroke-dasharray: none; stroke-linecap: butt; stroke-dashoffset: 0; stroke-linejoin: miter; stroke-miterlimit: 4; fill: rgb(255,255,255); fill-rule: nonzero; opacity: 1;" vector-effect="non-scaling-stroke"  transform=" translate(-480.25, -314.95)" d="M 456.8 321.6 C 459.3 332 469.5 335.1 482.6 335.1 C 492.8 335.1 503.70000000000005 331.3 503.70000000000005 321.3 C 503.70000000000005 306.1 472.6 311.90000000000003 472.6 305.6 C 472.6 303.20000000000005 477.3 302.5 479.70000000000005 302.5 C 481.70000000000005 302.6 484.90000000000003 303.1 485.90000000000003 303.8 C 486.90000000000003 304.6 488.1 305.40000000000003 488.3 306.90000000000003 L 502 306.90000000000003 C 499.5 299.00000000000006 490.7 294.8 480.3 294.8 C 467.7 294.8 457.7 298.8 457.7 308.2 C 457.7 322.59999999999997 488.8 317 488.8 323.7 C 488.8 326.5 483.90000000000003 327.2 480.8 327.09999999999997 C 478.7 326.99999999999994 476 326.7 474 325.29999999999995 C 472.8 324.69999999999993 471.6 322.99999999999994 471.3 321.49999999999994 L 456.8 321.49999999999994 z" stroke-linecap="round" />
</g>
		<g transform="matrix(1 0 0 1 17.25 -5.75)" id="tVTt9yrScJNu2JJ4q7miW"  >
<path style="stroke: none; stroke-width: 1; stroke-dasharray: none; stroke-linecap: butt; stroke-dashoffset: 0; stroke-linejoin: miter; stroke-miterlimit: 4; fill: rgb(255,255,255); fill-rule: nonzero; opacity: 1;" vector-effect="non-scaling-stroke"  transform=" translate(-338.05, -315.15)" d="M 328.6 310.7 C 329.3 306.4 332.70000000000005 303 338.1 303 C 343.40000000000003 303 346.90000000000003 306.4 347.5 310.7 L 328.6 310.7 z M 347.5 323 C 345.6 326.2 342.1 327 338.3 327 C 332.5 327 328.8 323.9 328.3 318.3 L 363.3 318.3 C 364.8 307.8 357.6 295.1 338.3 295.1 C 323.3 295.1 312.6 302.20000000000005 312.6 315.8 C 312.6 328.6 324.6 335.2 338.20000000000005 335.2 C 348.40000000000003 335.2 358.00000000000006 331.4 361.90000000000003 323 L 347.5 323 z" stroke-linecap="round" />
</g>
		<g transform="matrix(1 0 0 1 -96.75 -4.95)" id="y11QFezsZMbHcqPY3HG0d"  >
<path style="stroke: none; stroke-width: 1; stroke-dasharray: none; stroke-linecap: butt; stroke-dashoffset: 0; stroke-linejoin: miter; stroke-miterlimit: 4; fill: rgb(255,255,255); fill-rule: nonzero; opacity: 1;" vector-effect="non-scaling-stroke"  transform=" translate(-224.05, -315.95)" d="M 232.3 297.1 L 232.3 317.1 C 232.3 321.6 229.3 325.8 224 325.8 C 218.7 325.8 215.7 321.5 215.7 316.7 L 215.7 297.09999999999997 L 201.2 297.09999999999997 L 201.2 318.49999999999994 C 201.2 329.09999999999997 210.1 334.79999999999995 219 334.79999999999995 C 224.2 334.79999999999995 228.9 332.99999999999994 232.6 329.29999999999995 L 232.79999999999998 329.29999999999995 L 232.79999999999998 333.4 L 246.89999999999998 333.4 L 246.89999999999998 297.09999999999997 L 232.3 297.09999999999997 z" stroke-linecap="round" />
</g>
		<g transform="matrix(1 0 0 1 106.75 -5.35)" id="Nno6vlpMWy5wPw7dY6TiR"  >
<path style="stroke: none; stroke-width: 1; stroke-dasharray: none; stroke-linecap: butt; stroke-dashoffset: 0; stroke-linejoin: miter; stroke-miterlimit: 4; fill: rgb(255,255,255); fill-rule: nonzero; opacity: 1;" vector-effect="non-scaling-stroke"  transform=" translate(-427.55, -315.55)" d="M 435.8 296.8 L 435.8 316.8 C 435.8 321.3 432.8 325.5 427.5 325.5 C 422.2 325.5 419.2 321.2 419.2 316.4 L 419.2 296.79999999999995 L 404.7 296.69999999999993 L 404.7 318.0999999999999 C 404.7 328.69999999999993 413.59999999999997 334.3999999999999 422.5 334.3999999999999 C 427.7 334.3999999999999 432.4 332.5999999999999 436.1 328.8999999999999 L 436.3 328.8999999999999 L 436.3 332.99999999999994 L 450.40000000000003 332.99999999999994 L 450.40000000000003 296.69999999999993 L 435.8 296.69999999999993 z" stroke-linecap="round" />
</g>
		<g transform="matrix(1 0 0 1 -1.05 29.9)" id="5_M0j3idqV0SJSURxzJlX"  >
<path style="stroke: none; stroke-width: 1; stroke-dasharray: none; stroke-linecap: butt; stroke-dashoffset: 0; stroke-linejoin: miter; stroke-miterlimit: 4; fill: rgb(255,255,255); fill-rule: nonzero; opacity: 1;" vector-effect="non-scaling-stroke"  transform=" translate(-181.85, -2)" d="M 0 4 L 0 0 L 363.7 0 L 363.7 4 z" stroke-linecap="round" />
</g>
		<g transform="matrix(1 0 0 1 -154.55 -12.76)" id="9nRffrYq9TmmQnhE3rzSj"  >
<path style="stroke: none; stroke-width: 1; stroke-dasharray: none; stroke-linecap: butt; stroke-dashoffset: 0; stroke-linejoin: miter; stroke-miterlimit: 4; fill: rgb(255,255,255); fill-rule: nonzero; opacity: 1;" vector-effect="non-scaling-stroke"  transform=" translate(-166.25, -308.14)" d="M 137.9 333.9 L 174.3 333.79999999999995 C 188.60000000000002 333.99999999999994 194.70000000000002 326.49999999999994 194.70000000000002 318.99999999999994 C 194.70000000000002 312.49999999999994 189.70000000000002 307.3999999999999 181.70000000000002 306.49999999999994 L 181.60000000000002 306.59999999999997 C 188.50000000000003 305.49999999999994 192.90000000000003 300.9 192.40000000000003 294.29999999999995 C 192.00000000000003 289.49999999999994 189.90000000000003 281.9 170.10000000000002 282.4 L 137.8 282.4 L 137.8 333.9 z M 168.1 292.3 C 174.5 292.3 176.1 294.2 176.1 297.1 C 176.1 300.3 174.5 302.90000000000003 168.1 302.90000000000003 L 153.2 302.90000000000003 L 153.2 292.3 L 168.1 292.3 z M 169.3 312 C 175.10000000000002 312 177.4 314 177.4 318.4 C 177.4 322.29999999999995 175 324.09999999999997 165.70000000000002 324.09999999999997 L 153.20000000000002 324.09999999999997 L 153.20000000000002 312.09999999999997 L 169.3 312.09999999999997 z" stroke-linecap="round" />
</g>
		<g transform="matrix(1 0 0 1 -154.55 -12.76)" id="YXPHlK4D4KTnT679Hc6_p"  >
<path style="stroke: none; stroke-width: 1; stroke-dasharray: none; stroke-linecap: butt; stroke-dashoffset: 0; stroke-linejoin: miter; stroke-miterlimit: 4; fill: rgb(255,255,255); fill-rule: nonzero; opacity: 1;" vector-effect="non-scaling-stroke"  transform=" translate(-166.25, -308.14)" d="M 137.9 333.9 L 174.3 333.79999999999995 C 188.60000000000002 333.99999999999994 194.70000000000002 326.49999999999994 194.70000000000002 318.99999999999994 C 194.70000000000002 312.49999999999994 189.70000000000002 307.3999999999999 181.70000000000002 306.49999999999994 L 181.60000000000002 306.59999999999997 C 188.50000000000003 305.49999999999994 192.90000000000003 300.9 192.40000000000003 294.29999999999995 C 192.00000000000003 289.49999999999994 189.90000000000003 281.9 170.10000000000002 282.4 L 137.8 282.4 L 137.8 333.9 z M 168.1 292.3 C 174.5 292.3 176.1 294.2 176.1 297.1 C 176.1 300.3 174.5 302.90000000000003 168.1 302.90000000000003 L 153.2 302.90000000000003 L 153.2 292.3 L 168.1 292.3 z M 169.3 312 C 175.10000000000002 312 177.4 314 177.4 318.4 C 177.4 322.29999999999995 175 324.09999999999997 165.70000000000002 324.09999999999997 L 153.20000000000002 324.09999999999997 L 153.20000000000002 312.09999999999997 L 169.3 312.09999999999997 z" stroke-linecap="round" />
</g>
		<g transform="matrix(1 0 0 1 -40.9 -12)" id="BBGpY1cYz12zlQbi480kK"  >
<path style="stroke: none; stroke-width: 1; stroke-dasharray: none; stroke-linecap: butt; stroke-dashoffset: 0; stroke-linejoin: miter; stroke-miterlimit: 4; fill: rgb(255,255,255); fill-rule: nonzero; opacity: 1;" vector-effect="non-scaling-stroke"  transform=" translate(-279.9, -308.9)" d="M 269.5 315.1 C 269.5 309.20000000000005 274.5 304.40000000000003 280.6 304.40000000000003 C 286.70000000000005 304.40000000000003 291.70000000000005 309.20000000000005 291.70000000000005 315.1 C 291.70000000000005 321 286.70000000000005 325.8 280.6 325.8 C 274.4 325.8 269.5 321 269.5 315.1 M 291 299.6 C 287.3 296.20000000000005 281.6 295.3 276.6 295.3 C 261.3 295.5 254.00000000000003 307.1 254.00000000000003 315.8 C 254.00000000000003 328 267.20000000000005 335.1 276.8 335.1 C 283.1 335.1 288.7 333.20000000000005 291.3 329.40000000000003 L 291.5 329.40000000000003 L 291.5 333.8 L 305.8 333.8 L 305.8 282.7 L 291 282.7 L 291 299.6 z" stroke-linecap="round" />
</g>
</g>
</g>
</svg>