<?xml version="1.0" encoding="utf-8"?>
<!-- Generator: Adobe Illustrator 27.2.0, SVG Export Plug-In . SVG Version: 6.00 Build 0)  -->
<svg version="1.1" id="Layer_1" xmlns="http://www.w3.org/2000/svg" xmlns:xlink="http://www.w3.org/1999/xlink" x="0px" y="0px"
	 viewBox="0 0 787 315" style="enable-background:new 0 0 787 315;" xml:space="preserve">
<style type="text/css">
	.st0{fill:#FFFFFF;}
	.st1{fill:#CD072D;}
	.st2{fill:#1D1D1B;}
</style>
<rect y="0" class="st0" width="787" height="315"/>
<g>
	<rect y="0" class="st0" width="787" height="315"/>
	<g>
		<rect x="33.6" y="100.4" class="st1" width="709.6" height="12.2"/>
		<rect x="33.6" y="202.4" class="st1" width="709.6" height="12.2"/>
		<g>
			<g>
				<polygon class="st2" points="322.9,178 298,178 298,162.5 320.4,162.5 320.4,150.4 298,150.4 298,136.9 322,136.9 322,124.8 
					282.3,124.8 282.3,190.2 322.9,190.2 				"/>
				<g>
					<polygon class="st2" points="742.4,124.8 727.6,124.8 727.6,162.9 727.6,163.2 727.5,163.2 727.3,162.9 698.8,124.8 685,124.8 
						685,190.2 700.1,190.2 700.1,150.4 700.1,149.8 700.2,149.8 700.5,150.4 729.6,190.2 742.4,190.2 					"/>
				</g>
				<path class="st2" d="M640.9,123.8c-18.9,0-33,14.4-33,33.3c0,18.9,14.1,33.7,32.6,33.7h0.4c18.5-0.1,33-14.7,33-33.7
					C673.9,138.2,659.2,123.8,640.9,123.8 M640.9,177.5c-10,0-16.8-7.9-16.8-20.1c0-12.1,6.5-20,16.8-20c9.9,0,16.8,7.9,16.8,20.4
					C657.7,169.3,650.5,177.5,640.9,177.5"/>
				<polygon class="st2" points="375,178 352.1,178 352.1,124.8 336.5,124.8 336.5,190.2 375,190.2 				"/>
				<polygon class="st2" points="446.6,178 421.7,178 421.7,162.5 444.1,162.5 444.1,150.4 421.7,150.4 421.7,136.9 445.8,136.9 
					445.8,124.8 406.1,124.8 406.1,190.2 446.6,190.2 				"/>
				<polygon class="st2" points="498.2,178 475.4,178 475.4,124.8 459.7,124.8 459.7,190.2 498.2,190.2 				"/>
				<path class="st2" d="M258.6,154.3c5-2.6,8.3-7.4,8.3-13.1c0-6.8-4.8-12.8-11.8-15c-2.7-0.8-4.7-1.2-9.1-1.4h-25.4v65.4l25.4,0.3
					h2c3.5,0,6.3-0.3,8.6-0.7c2.7-0.5,5.3-1.4,7.5-3c4.8-3.5,7.4-9,7.4-15.5C271.4,162.8,267.2,157.1,258.6,154.3 M236.2,136.6h5.7
					c1.5,0,2.8,0,4,0.3c3.7,0.9,5.6,2.9,5.6,6.8c0,3.9-2.1,5.9-5.6,6.8c-1.2,0.1-2.7,0.3-4.4,0.3h-5.4V136.6z M245.9,178.6h-9.7v-16
					h9.7c7,0.4,9.8,2.9,9.8,8.1C255.7,176,252.7,178.2,245.9,178.6"/>
				<polygon class="st2" points="209,178 184.1,178 184.1,162.5 206.5,162.5 206.5,150.4 184.1,150.4 184.1,136.9 208.1,136.9 
					208.1,124.8 168.4,124.8 168.4,190.2 209,190.2 				"/>
				<polygon class="st2" points="154,124.8 138.4,124.8 138.3,190.2 154,190.2 				"/>
				<polygon class="st2" points="81.5,124.8 81.5,136.9 98,136.9 98,190.2 113.6,190.2 113.6,136.9 130.2,136.9 130.2,124.8 				"/>
				<polygon class="st2" points="491.5,124.8 491.5,136.9 508,136.9 508,190.2 523.6,190.2 523.6,136.9 540.2,136.9 540.2,124.8 
									"/>
				<g>
					<path class="st2" d="M573.8,124.8c9.5,0,13,0.7,17.3,3.3c5.2,3.4,8.5,9.4,8.5,15.6c0,4.8-2,9.4-5.6,12.5
						c-1.7,1.4-2.8,2.1-5.7,3.4c3.5,1.7,6.4,5.5,9.4,12.3l2.6,5.5l1.8,3.7l2,4.4l1.8,3.6l0.5,1.1h-18l-0.4-0.6l-1.2-2.7l-1.2-3
						l-1.9-4.2l-2.5-5.5c-2.5-5.6-5.6-9.7-8.7-10.5c-1.4-0.4-1.9-0.4-4.7-0.4h-2.4v27h-15.6v-65.4H573.8z M565.3,151.6h6.8l1.2,0
						l2-0.1c4.4-0.1,7.7-2.8,7.7-7.3c0-5.2-3.5-7.5-9.4-7.5h-8.2V151.6z"/>
				</g>
			</g>
			<path class="st2" d="M82.9,170.4L82.9,170.4c-0.1-3.1-0.8-5.8-2.3-8.1c-2.5-4.8-7.8-8.3-15.7-11.1l-5-1.7
				c-7.5-2.5-10.6-5-10.6-7.9c0-3.5,4.4-5,10-5.3c4.1-0.2,10.3,0.2,15.3,2.1v-12.1c-5-1.6-11.8-2-16.7-2c-14.2,0-24,6.8-24,18.3
				c0,4.8,1.1,8.8,3.9,12c1.9,1.9,3.7,3.3,6.2,4.8c3.2,1.7,5.6,2.8,10.5,4.5l4.3,1.4c4.8,1.6,6.3,2.8,7.4,4.5l0,0
				c0.7,0.9,0.9,2.2,0.9,3.4c-0.1,3.5-3.7,5.7-10.1,5.7c-4.1,0-8-0.7-12.1-2.5c-3.3-1.3-5.8-2.7-10.6-5.7v14.2
				c1.7,1.2,2.1,1.3,5.9,2.8c6.7,2.6,11.7,3.6,17.3,3.6c15.4,0,25.6-7.8,25.6-19.6C83,171.3,82.9,170.8,82.9,170.4z"/>
		</g>
	</g>
</g>
</svg>
