<?xml version="1.0" encoding="utf-8"?>
<!-- Generator: Adobe Illustrator 17.0.0, SVG Export Plug-In . SVG Version: 6.00 Build 0)  -->
<!DOCTYPE svg PUBLIC "-//W3C//DTD SVG 1.1//EN" "http://www.w3.org/Graphics/SVG/1.1/DTD/svg11.dtd">
<svg version="1.1" id="Layer_1" xmlns="http://www.w3.org/2000/svg" xmlns:xlink="http://www.w3.org/1999/xlink" x="0px" y="0px"
	 width="283.465px" height="47.504px" viewBox="0 0 283.465 47.504" enable-background="new 0 0 283.465 47.504"
	 xml:space="preserve">
<g>
	<path fill="#FFFFFF" d="M62.922,27.405l-5.701-1.374c-1.54-0.391-2.674-0.932-3.404-1.623c-0.731-0.691-1.097-1.593-1.097-2.705
		c0-1.421,0.541-2.538,1.623-3.347c1.082-0.809,2.567-1.213,4.458-1.213c1.344,0,2.51,0.235,3.493,0.702
		c0.984,0.467,1.992,1.249,3.026,2.339c0.623,0.623,1.1,1.038,1.432,1.243c0.332,0.205,0.721,0.306,1.169,0.306
		c0.643,0,1.16-0.186,1.549-0.555c0.389-0.372,0.585-0.877,0.585-1.522c0-0.76-0.268-1.527-0.803-2.309
		c-0.537-0.779-1.262-1.481-2.178-2.104c-2.242-1.481-4.932-2.221-8.068-2.221c-3.411,0-6.134,0.817-8.171,2.456
		c-2.037,1.637-3.055,3.82-3.055,6.546c0,4.287,2.641,7.035,7.922,8.243l5.846,1.344c1.346,0.333,2.392,0.888,3.143,1.667
		c0.75,0.781,1.124,1.705,1.124,2.779c0,1.421-0.579,2.546-1.739,3.374c-1.16,0.831-2.723,1.243-4.691,1.243
		c-3.06,0-5.525-1.082-7.396-3.246c-0.896-1.109-1.714-1.664-2.455-1.664c-0.683,0-1.219,0.199-1.608,0.598
		c-0.391,0.399-0.585,0.951-0.585,1.65c0,1.872,1.141,3.462,3.421,4.765c2.377,1.347,5.164,2.019,8.359,2.019
		c3.586,0,6.422-0.825,8.507-2.47c2.085-1.648,3.128-3.874,3.128-6.68c0-2.183-0.639-3.943-1.915-5.276
		C67.566,29.036,65.592,28.047,62.922,27.405z"/>
	<path fill="#FFFFFF" d="M112.33,2.703c-0.898,0-1.652,0.298-2.266,0.891c-0.613,0.596-0.921,1.35-0.921,2.268
		c0,0.915,0.311,1.68,0.936,2.292c0.623,0.615,1.374,0.921,2.251,0.921c0.954,0,1.743-0.306,2.368-0.921
		c0.623-0.612,0.936-1.377,0.936-2.292c0-0.918-0.313-1.672-0.936-2.268C114.073,3.001,113.283,2.703,112.33,2.703z"/>
	<path fill="#FFFFFF" d="M112.387,13.255c-0.76,0-1.373,0.24-1.841,0.719c-0.467,0.475-0.701,1.172-0.701,2.09v25.931
		c0,0.896,0.234,1.587,0.701,2.076c0.469,0.486,1.072,0.73,1.813,0.73c0.74,0,1.344-0.238,1.813-0.716
		c0.467-0.478,0.701-1.175,0.701-2.09V16.064c0-0.896-0.229-1.59-0.687-2.076C113.727,13.501,113.128,13.255,112.387,13.255z"/>
	<path fill="#FFFFFF" d="M137.172,27.405l-5.701-1.374c-1.54-0.391-2.673-0.932-3.404-1.623c-0.731-0.691-1.097-1.593-1.097-2.705
		c0-1.421,0.541-2.538,1.623-3.347c1.082-0.809,2.567-1.213,4.458-1.213c1.344,0,2.51,0.235,3.493,0.702
		c0.984,0.467,1.992,1.249,3.026,2.339c0.623,0.623,1.1,1.038,1.432,1.243c0.332,0.205,0.721,0.306,1.169,0.306
		c0.644,0,1.16-0.186,1.549-0.555c0.389-0.372,0.585-0.877,0.585-1.522c0-0.76-0.268-1.527-0.803-2.309
		c-0.537-0.779-1.262-1.481-2.178-2.104c-2.242-1.481-4.932-2.221-8.068-2.221c-3.411,0-6.134,0.817-8.171,2.456
		c-2.037,1.637-3.055,3.82-3.055,6.546c0,4.287,2.641,7.035,7.922,8.243l5.846,1.344c1.346,0.333,2.392,0.888,3.143,1.667
		c0.75,0.781,1.124,1.705,1.124,2.779c0,1.421-0.579,2.546-1.739,3.374c-1.16,0.831-2.723,1.243-4.691,1.243
		c-3.06,0-5.525-1.082-7.396-3.246c-0.896-1.109-1.714-1.664-2.455-1.664c-0.683,0-1.219,0.199-1.608,0.598
		c-0.391,0.399-0.585,0.951-0.585,1.65c0,1.872,1.141,3.462,3.421,4.765c2.377,1.347,5.164,2.019,8.359,2.019
		c3.586,0,6.422-0.825,8.507-2.47c2.085-1.648,3.128-3.874,3.128-6.68c0-2.183-0.639-3.943-1.915-5.276
		C141.815,29.036,139.841,28.047,137.172,27.405z"/>
	<path fill="#FFFFFF" d="M165.377,27.405l-5.701-1.374c-1.54-0.391-2.673-0.932-3.404-1.623c-0.731-0.691-1.097-1.593-1.097-2.705
		c0-1.421,0.541-2.538,1.623-3.347c1.082-0.809,2.567-1.213,4.458-1.213c1.344,0,2.51,0.235,3.493,0.702
		c0.984,0.467,1.992,1.249,3.026,2.339c0.623,0.623,1.1,1.038,1.432,1.243c0.332,0.205,0.721,0.306,1.169,0.306
		c0.643,0,1.16-0.186,1.549-0.555c0.389-0.372,0.585-0.877,0.585-1.522c0-0.76-0.268-1.527-0.803-2.309
		c-0.537-0.779-1.262-1.481-2.178-2.104c-2.242-1.481-4.932-2.221-8.068-2.221c-3.411,0-6.134,0.817-8.171,2.456
		c-2.037,1.637-3.055,3.82-3.055,6.546c0,4.287,2.641,7.035,7.922,8.243l5.846,1.344c1.346,0.333,2.392,0.888,3.143,1.667
		c0.75,0.781,1.124,1.705,1.124,2.779c0,1.421-0.579,2.546-1.739,3.374c-1.16,0.831-2.723,1.243-4.691,1.243
		c-3.06,0-5.525-1.082-7.396-3.246c-0.896-1.109-1.714-1.664-2.455-1.664c-0.683,0-1.219,0.199-1.608,0.598
		c-0.391,0.399-0.585,0.951-0.585,1.65c0,1.872,1.141,3.462,3.421,4.765c2.377,1.347,5.164,2.019,8.359,2.019
		c3.586,0,6.422-0.825,8.507-2.47c2.085-1.648,3.128-3.874,3.128-6.68c0-2.183-0.639-3.943-1.915-5.276
		C170.02,29.036,168.046,28.047,165.377,27.405z"/>
	<path fill="#FFFFFF" d="M191.361,13.023c-3.781,0-6.865,1.257-9.253,3.77c-2.387,2.514-3.581,5.76-3.581,9.735v4.852
		c0,4.15,1.188,7.423,3.567,9.822c2.377,2.396,5.631,3.596,9.764,3.596c2.065,0,3.97-0.303,5.714-0.907
		c1.743-0.604,3.102-1.424,4.078-2.456c0.955-0.995,1.432-1.967,1.432-2.923c0-0.604-0.184-1.109-0.555-1.519
		c-0.37-0.41-0.839-0.615-1.403-0.615c-0.429,0-0.799,0.098-1.111,0.292c-0.313,0.197-0.867,0.664-1.667,1.404
		c-1.637,1.579-3.723,2.366-6.255,2.366c-2.631,0-4.697-0.773-6.198-2.322c-1.5-1.549-2.261-3.658-2.28-6.328v-1.609h17.481
		c1.072,0,1.798-0.292,2.178-0.877c0.381-0.585,0.571-1.713,0.571-3.391c0-3.781-1.165-6.874-3.493-9.281
		C198.021,14.225,195.025,13.023,191.361,13.023z M198.844,26.088h-15.231v-0.087c0-2.571,0.721-4.656,2.164-6.254
		c1.441-1.598,3.322-2.399,5.642-2.399c2.26,0,4.063,0.781,5.407,2.339c1.346,1.56,2.018,3.664,2.018,6.314V26.088z"/>
	<path fill="#FFFFFF" d="M221.633,40.326c-0.156,0-0.448,0.014-0.877,0.044c-0.429,0.027-0.79,0.044-1.082,0.044
		c-1.422,0-2.387-0.298-2.893-0.893c-0.507-0.593-0.76-1.708-0.76-3.347V17.815h4.091c0.721,0,1.291-0.183,1.71-0.555
		c0.419-0.369,0.628-0.885,0.628-1.549c0-0.661-0.209-1.183-0.628-1.563c-0.419-0.38-0.989-0.571-1.71-0.571h-4.121V8.52
		c0-0.877-0.219-1.557-0.657-2.046c-0.438-0.486-1.057-0.73-1.857-0.73c-0.78,0-1.388,0.243-1.826,0.73
		c-0.439,0.489-0.658,1.169-0.658,2.046l-0.029,27.595c0,3.178,0.579,5.407,1.739,6.694c1.158,1.287,3.142,1.929,5.948,1.929
		c1.598,0,2.807-0.205,3.626-0.612c0.857-0.41,1.286-1.055,1.286-1.932c0-0.563-0.18-1.016-0.541-1.358
		C222.66,40.495,222.198,40.326,221.633,40.326z"/>
	<path fill="#FFFFFF" d="M240.016,13.023c-3.781,0-6.865,1.257-9.253,3.77c-2.387,2.514-3.581,5.76-3.581,9.735v4.852
		c0,4.15,1.189,7.423,3.567,9.822c2.377,2.396,5.631,3.596,9.764,3.596c2.066,0,3.97-0.303,5.714-0.907
		c1.743-0.604,3.102-1.424,4.078-2.456c0.955-0.995,1.432-1.967,1.432-2.923c0-0.604-0.184-1.109-0.555-1.519
		c-0.37-0.41-0.839-0.615-1.403-0.615c-0.429,0-0.799,0.098-1.111,0.292c-0.313,0.197-0.867,0.664-1.667,1.404
		c-1.637,1.579-3.723,2.366-6.255,2.366c-2.631,0-4.697-0.773-6.198-2.322c-1.5-1.549-2.261-3.658-2.28-6.328v-1.609h17.481
		c1.072,0,1.798-0.292,2.178-0.877c0.381-0.585,0.571-1.713,0.571-3.391c0-3.781-1.165-6.874-3.493-9.281
		C246.675,14.225,243.68,13.023,240.016,13.023z M247.499,26.088h-15.231v-0.087c0-2.571,0.721-4.656,2.164-6.254
		c1.441-1.598,3.322-2.399,5.642-2.399c2.26,0,4.063,0.781,5.407,2.339c1.346,1.56,2.018,3.664,2.018,6.314V26.088z"/>
	<path fill="#FFFFFF" d="M281.419,35.998c-0.419-0.388-0.93-0.585-1.534-0.585c-0.41,0-0.794,0.112-1.154,0.336
		c-0.361,0.224-0.619,0.424-0.775,0.601c-0.157,0.175-0.37,0.437-0.643,0.787c-1.579,2.126-3.723,3.188-6.432,3.188
		c-2.514,0-4.423-0.825-5.729-2.47c-1.305-1.647-1.958-3.836-1.958-6.563v-4.795c0-2.727,0.657-4.91,1.973-6.549
		c1.316-1.637,3.21-2.454,5.686-2.454c2.709,0,4.824,1.063,6.343,3.186c0.273,0.372,0.492,0.653,0.658,0.847
		c0.165,0.197,0.424,0.391,0.775,0.585c0.351,0.197,0.74,0.292,1.169,0.292c0.682,0,1.213-0.219,1.593-0.658
		c0.38-0.437,0.57-0.997,0.57-1.68c0-0.973-0.37-1.924-1.111-2.85c-0.74-0.926-1.648-1.71-2.719-2.352
		c-2.046-1.227-4.492-1.841-7.337-1.841c-3.975,0-7.089,1.194-9.339,3.579c-2.251,2.388-3.377,5.598-3.377,9.634v5.32
		c0,4.074,1.13,7.298,3.391,9.675c2.261,2.38,5.399,3.568,9.412,3.568c2.768,0,5.184-0.604,7.25-1.814
		c1.169-0.661,2.115-1.462,2.836-2.396c0.72-0.934,1.081-1.891,1.081-2.866C282.047,36.962,281.838,36.389,281.419,35.998z"/>
	<path fill="#FFFFFF" d="M99.26,13.255c-1.589,0-2.586,1.042-2.586,2.722v16.335c0,5.272-2.475,8.052-7.357,8.052
		c-4.886,0-7.376-2.781-7.376-8.052V15.977c0-1.68-1.001-2.722-2.59-2.722c-1.589,0-2.452,1.042-2.452,2.722v16.509
		c0,10.564,6.122,12.282,12.418,12.282c6.292,0,12.413-1.718,12.413-12.282V15.977C101.731,14.297,100.849,13.255,99.26,13.255z"/>
	<path fill="#FFFFFF" d="M33.159,16.64c-0.053,0.095-1.332,2.343-5.256,3.352c-5.778,1.487-7.908,4.749-8.132,5.116
		c-0.63,1.033-0.306,2.362,0.715,3.011c0.364,0.232,0.773,0.342,1.178,0.342c0.729,0,1.447-0.358,1.877-1.005
		c0.058-0.086,1.452-2.128,5.468-3.162c5.876-1.511,7.887-5.203,8.097-5.618c0.546-1.081,0.115-2.381-0.956-2.946
		C35.082,15.165,33.744,15.58,33.159,16.64z"/>
	<path fill="#FFFFFF" d="M39.299,21.182c-1.072-0.564-2.408-0.15-2.992,0.909c-0.053,0.095-1.332,2.343-5.256,3.353
		c-5.778,1.487-7.908,4.748-8.132,5.115c-0.63,1.033-0.306,2.362,0.715,3.011c0.364,0.232,0.772,0.342,1.178,0.342
		c0.729,0,1.447-0.358,1.877-1.005c0.058-0.086,1.452-2.128,5.468-3.161c5.876-1.512,7.887-5.202,8.097-5.618
		C40.8,23.047,40.369,21.748,39.299,21.182z"/>
	<path fill="#FFFFFF" d="M17.198,22.425c0.364,0.232,0.772,0.342,1.178,0.342c0.729,0,1.447-0.358,1.877-1.005
		c0.058-0.086,1.452-2.128,5.468-3.161c5.876-1.511,7.887-5.203,8.097-5.618c0.546-1.081,0.115-2.381-0.956-2.946
		c-1.068-0.566-2.407-0.15-2.991,0.91c-0.053,0.095-1.332,2.343-5.256,3.352c-5.778,1.487-7.908,4.748-8.132,5.115
		C15.852,20.446,16.177,21.775,17.198,22.425z"/>
	<path fill="#FFFFFF" d="M29.86,32.795c-1.17,0-2.12,0.949-2.12,2.119v4.56c0,0.304-0.247,0.551-0.551,0.551H6.207
		c-0.304,0-0.551-0.247-0.551-0.551V18.493c0-0.304,0.247-0.551,0.551-0.551h8.566c1.17,0,2.119-0.949,2.119-2.119
		s-0.949-2.119-2.119-2.119H6.207c-2.641,0-4.79,2.148-4.79,4.789v20.982c0,2.641,2.149,4.79,4.79,4.79h20.982
		c2.641,0,4.79-2.149,4.79-4.79v-4.56C31.979,33.744,31.03,32.795,29.86,32.795z"/>
</g>
</svg>
