<?xml version="1.0" encoding="utf-8"?>
<!-- Generator: Adobe Illustrator 17.0.0, SVG Export Plug-In . SVG Version: 6.00 Build 0)  -->
<!DOCTYPE svg PUBLIC "-//W3C//DTD SVG 1.1//EN" "http://www.w3.org/Graphics/SVG/1.1/DTD/svg11.dtd">
<svg version="1.1" xmlns="http://www.w3.org/2000/svg" xmlns:xlink="http://www.w3.org/1999/xlink" x="0px" y="0px" width="787px"
	 height="315px" viewBox="0 0 787 315" enable-background="new 0 0 787 315" xml:space="preserve">
<g id="Layer_6">
	<g id="layer1_1_" transform="translate(106.80193,-432.76044)">
		<path id="path137" fill="#E6332A" d="M68.736,617.188v-66.951H43.815v66.951H68.736"/>
		<path id="path139" fill="none" stroke="#E6332A" stroke-width="1.3353" d="M68.736,617.188v-66.951H43.815v66.951H68.736z"/>
		<path id="path141" fill="#E6332A" d="M355.483,550.238l-33.618,0.005l-10.348,27.712c-0.85,2.292-1.099,6.672-1.099,6.672
			s-0.361-4.446-1.184-6.672l-10.264-27.712l-33.493-0.005l-0.031,66.96l21.494-0.009v-39.831c0,0,0,2.363,0.917,4.495
			l15.213,35.345h14.697l15.213-36.164c0.904-2.145,0.904-4.509,0.904-4.509v40.664h21.6V550.238"/>
		<path id="path143" fill="none" stroke="#E6332A" stroke-width="1.3353" d="M355.483,550.238l-33.618,0.005l-10.348,27.712
			c-0.85,2.292-1.099,6.672-1.099,6.672s-0.361-4.446-1.184-6.672l-10.264-27.712l-33.493-0.005l-0.031,66.96l21.494-0.009v-39.831
			c0,0,0,2.363,0.917,4.495l15.213,35.345h14.697l15.213-36.164c0.904-2.145,0.904-4.509,0.904-4.509v40.664h21.6V550.238z"/>
		<path id="path145" fill="#E6332A" d="M541.429,550.238h-23.519v36.76c0,0,0-2.363-1.544-4.162l-27.947-32.599H463.64v66.951
			h24.778v-36.756c0,0,0,2.359,1.482,4.153l26.91,32.616l24.618-0.014V550.238"/>
		<path id="path147" fill="none" stroke="#E6332A" stroke-width="1.3353" d="M541.429,550.238h-23.519v36.76
			c0,0,0-2.363-1.544-4.162l-27.947-32.599H463.64v66.951h24.778v-36.756c0,0,0,2.359,1.482,4.153l26.91,32.616l24.618-0.014
			V550.238z"/>
		<path id="path149" fill="#E6332A" d="M455.593,617.197l-33.854-66.951h-26.318l-33.854,66.951h22.74l0,0h3.578l6.258-12.382
			l28.869,0.004l6.263,12.378h1.032v0.005h23.003l-0.005-0.005H455.593z M400.477,587.866c0,0,6.017-11.937,7.059-14.007
			c1.042-2.07,1.042-4.429,1.042-4.429s0,2.359,1.046,4.438l7.09,14.065L400.477,587.866"/>
		<path id="path151" fill="none" stroke="#E6332A" stroke-width="1.3353" d="M455.593,617.197l-33.854-66.951h-26.318
			l-33.854,66.951h22.74l0,0h3.578l6.258-12.382l28.869,0.004l6.263,12.378h1.032v0.005h23.003l-0.005-0.005H455.593z
			 M400.477,587.866c0,0,6.017-11.937,7.059-14.007c1.042-2.07,1.042-4.429,1.042-4.429s0,2.359,1.046,4.438l7.09,14.065
			L400.477,587.866z"/>
		<path id="path153" fill="#E6332A" d="M114.874,599.331l0.004-9.289h37.379v-15.066h-37.379v-8.297h45.497v-16.437l-69.118-0.005
			v66.951h70.934v-17.853L114.874,599.331"/>
		<path id="path155" fill="none" stroke="#E6332A" stroke-width="1.3353" d="M114.874,599.331l0.004-9.289h37.379v-15.066h-37.379
			v-8.297h45.497v-16.437l-69.118-0.005v66.951h70.934v-17.853L114.874,599.331z"/>
		<path id="path157" fill="#E6332A" d="M-66.879,550.233l35.803,67.044H-2.23l35.332-67.04H5.123l-19.954,40.771
			c-1.033,2.105-1.033,4.464-1.033,4.464s0-2.359-1.059-4.522l-19.949-40.713L-66.879,550.233"/>
		<path id="path159" fill="none" stroke="#E6332A" stroke-width="1.3353" d="M-66.879,550.233l35.803,67.044H-2.23l35.332-67.04
			H5.123l-19.954,40.771c-1.033,2.105-1.033,4.464-1.033,4.464s0-2.359-1.059-4.522l-19.949-40.713L-66.879,550.233z"/>
		<path id="path161" fill="#E6332A" d="M248.149,515.32l-54.938-0.04c0,0-21.547,0.53-21.547,21.805
			c0,21.885,21.547,21.391,21.547,21.391l32.648-0.044c0,0,4.308,0,4.308,4.518c0,3.913-4.322,3.913-4.322,3.913h-52.677v18.36
			l54.582,0.004c0,0,23.234,0.886,23.234-23.029c0-20.581-23.234-21.186-23.234-21.186h-30.938c0,0-4.802,0-4.802-3.922
			c0-3.792,4.802-3.792,4.802-3.792h51.337V515.32"/>
		<path id="path163" fill="none" stroke="#E6332A" stroke-width="1.3353" d="M248.149,515.32l-54.938-0.04
			c0,0-21.547,0.53-21.547,21.805c0,21.885,21.547,21.391,21.547,21.391l32.648-0.044c0,0,4.308,0,4.308,4.518
			c0,3.913-4.322,3.913-4.322,3.913h-52.677v18.36l54.582,0.004c0,0,23.234,0.886,23.234-23.029
			c0-20.581-23.234-21.186-23.234-21.186h-30.938c0,0-4.802,0-4.802-3.922c0-3.792,4.802-3.792,4.802-3.792h51.337V515.32z"/>
		<path id="path165" fill="#E6332A" d="M640.276,550.247h-23.519v36.76c0,0,0-2.363-1.54-4.162l-27.947-32.599h-24.778v66.956
			h24.778v-36.76c0,0,0,2.364,1.482,4.157l26.91,32.612l24.614-0.009V550.247"/>
		<path id="path167" fill="none" stroke="#E6332A" stroke-width="1.3353" d="M640.276,550.247h-23.519v36.76c0,0,0-2.363-1.54-4.162
			l-27.947-32.599h-24.778v66.956h24.778v-36.76c0,0,0,2.364,1.482,4.157l26.91,32.612l24.614-0.009V550.247z"/>
		<path id="path169" fill="#E6332A" d="M248.166,595.33l-54.938-0.036c0,0-21.551,0.525-21.551,21.805
			c0,21.881,21.551,21.387,21.551,21.387l32.643-0.04c0,0,4.308,0,4.308,4.518c0,3.913-4.317,3.913-4.317,3.913h-52.677v18.36
			h54.577c0,0,23.238,0.89,23.238-23.025c0-20.586-23.238-21.186-23.238-21.186l-30.934-0.004c0,0-4.803,0-4.803-3.921
			c0-3.792,4.803-3.792,4.803-3.792l51.337,0.004V595.33"/>
		<path id="path171" fill="none" stroke="#E6332A" stroke-width="1.3353" d="M248.166,595.33l-54.938-0.036
			c0,0-21.551,0.525-21.551,21.805c0,21.881,21.551,21.387,21.551,21.387l32.643-0.04c0,0,4.308,0,4.308,4.518
			c0,3.913-4.317,3.913-4.317,3.913h-52.677v18.36h54.577c0,0,23.238,0.89,23.238-23.025c0-20.586-23.238-21.186-23.238-21.186
			l-30.934-0.004c0,0-4.803,0-4.803-3.921c0-3.792,4.803-3.792,4.803-3.792l51.337,0.004V595.33z"/>
	</g>
	<rect y="0" fill="#FFFFFF" width="787" height="315"/>
</g>
<g id="Layer_1" display="none">
	<g display="inline">
		<path fill="#3C3C3B" d="M268.216,144.741c2.337,0,4.207,0.187,6.45,0.468v-1.495c0-4.861-1.963-6.917-7.758-6.917
			c-3.459,0-8.507,0.748-11.871,1.496l-1.776-9.348c4.019-0.841,9.254-1.87,14.582-1.87c11.498,0,17.854,4.955,17.854,15.33v28.79
			h-7.852l-1.122-3.271c-2.43,1.963-6.543,4.206-11.965,4.206c-8.039,0-14.769-4.767-14.769-13.648
			C249.988,149.696,256.438,144.741,268.216,144.741z M267.095,163.249c2.991,0,5.889-1.308,7.572-2.523v-7.759
			c-1.963-0.187-4.58-0.374-6.076-0.374c-4.674,0-7.385,1.776-7.385,5.422C261.205,161.38,263.542,163.249,267.095,163.249z"/>
		<path fill="#3C3C3B" d="M294.341,110.996h11.03v60.199h-11.03V110.996z"/>
		<path fill="#3C3C3B" d="M325.215,188.208h-11.03v-60.199h7.852l1.122,2.992c2.711-1.963,6.263-3.926,11.684-3.926
			c10.469,0,16.452,7.385,16.452,22.248c0,15.423-6.543,22.808-18.508,22.808c-2.711,0-5.422-0.374-7.571-0.841V188.208z
			 M331.291,162.782c6.824,0,8.786-3.645,8.786-12.899c0-9.535-1.963-13.087-7.571-13.087c-2.991,0-5.422,0.935-7.291,1.869v23.276
			C327.178,162.501,329.422,162.782,331.291,162.782z"/>
		<path fill="#3C3C3B" d="M358.174,110.996h11.03v18.882c3.178-1.776,6.917-2.805,10.843-2.805c10.189,0,14.395,6.543,14.395,14.956
			v29.164h-11.03v-27.762c0-4.207-1.683-6.637-6.263-6.637c-2.898,0-5.889,1.028-7.945,2.056v32.343h-11.03V110.996z"/>
		<path fill="#3C3C3B" d="M418.455,144.741c2.337,0,4.207,0.187,6.45,0.468v-1.495c0-4.861-1.963-6.917-7.758-6.917
			c-3.459,0-8.506,0.748-11.871,1.496l-1.776-9.348c4.019-0.841,9.254-1.87,14.582-1.87c11.498,0,17.854,4.955,17.854,15.33v28.79
			h-7.852l-1.121-3.271c-2.431,1.963-6.543,4.206-11.965,4.206c-8.039,0-14.77-4.767-14.77-13.648
			C400.227,149.696,406.677,144.741,418.455,144.741z M417.334,163.249c2.991,0,5.889-1.308,7.572-2.523v-7.759
			c-1.963-0.187-4.58-0.374-6.076-0.374c-4.674,0-7.384,1.776-7.384,5.422C411.445,161.38,413.782,163.249,417.334,163.249z"/>
		<path fill="#3C3C3B" d="M469.678,110.996h6.543v8.226h-6.543V110.996z M469.678,128.009h6.543v43.186h-6.543V128.009z"/>
		<path fill="#3C3C3B" d="M487.401,128.009h5.048l0.561,4.207c3.646-2.618,8.506-5.142,14.583-5.142
			c8.225,0,13.741,4.674,13.741,14.209v29.912h-6.543v-29.258c0-6.45-3.085-9.068-8.32-9.068c-4.674,0-9.347,2.15-12.526,4.3v34.025
			h-6.543V128.009z"/>
		<path fill="#3C3C3B" d="M532.324,128.009h5.048l0.561,4.207c3.646-2.618,8.506-5.142,14.582-5.142
			c8.226,0,13.741,4.674,13.741,14.209v29.912h-6.543v-29.258c0-6.45-3.085-9.068-8.32-9.068c-4.674,0-9.347,2.15-12.525,4.3v34.025
			h-6.544V128.009z"/>
		<path fill="#3C3C3B" d="M594.195,127.074c13.927,0,19.35,9.161,19.35,22.528c0,13.367-5.422,22.528-19.35,22.528
			c-13.835,0-19.256-9.161-19.256-22.528C574.938,136.235,580.36,127.074,594.195,127.074z M594.195,166.334
			c9.815,0,12.619-7.104,12.619-16.732c0-9.628-2.805-16.733-12.619-16.733c-9.816,0-12.526,7.104-12.526,16.733
			C581.669,159.23,584.379,166.334,594.195,166.334z"/>
		<path fill="#3C3C3B" d="M623.9,133.43h-6.263v-4.767l6.543-0.374l0.467-12.9h5.796v12.619h12.339v5.422h-12.339v26.267
			c0,4.486,1.028,6.637,4.954,6.637c1.87,0,4.019-0.468,6.544-1.496l1.776,5.235c-2.431,1.122-5.609,2.057-9.067,2.057
			c-6.73,0-10.75-3.459-10.75-12.058V133.43z"/>
		<path fill="#3C3C3B" d="M664.944,127.074c11.31,0,16.452,8.506,16.452,19.35c0,2.057-0.187,3.833-0.374,5.515h-27.388
			c0.468,8.694,3.646,14.396,12.713,14.396c4.487,0,8.694-1.403,12.432-3.179l2.243,5.235c-4.019,1.963-9.067,3.739-15.049,3.739
			c-11.965,0-19.069-7.198-19.069-22.06C646.903,135.674,653.446,127.074,664.944,127.074z M674.945,146.704
			c-0.093-7.011-2.336-13.835-10.095-13.835c-7.198,0-10.843,5.889-11.217,13.835H674.945z"/>
		<path fill="#3C3C3B" d="M708.176,127.074c3.739,0,8.132,0.561,11.591,1.402l-0.935,5.609c-2.991-0.561-7.291-1.215-10.656-1.215
			c-9.535,0-13.274,5.142-13.274,16.639c0,9.721,2.711,16.826,12.806,16.826c3.739,0,8.133-1.028,11.965-2.618l1.963,5.235
			c-3.833,1.776-8.974,3.178-14.302,3.178c-13.274,0-19.163-8.6-19.163-22.901C688.172,136.235,693.034,127.074,708.176,127.074z"/>
		<g>
			<path fill="#BE1622" d="M103.946,110.992c0-12.105,1.858-23.777,5.303-34.745H65.341V230.67h154.423v-3.861l0,0
				C155.799,226.809,103.946,174.956,103.946,110.992z"/>
			<path fill="#BE1622" d="M219.763,188.204L219.763,188.204V76.247h-68.971c-5.272,10.444-8.241,22.248-8.241,34.745
				C142.552,153.635,177.121,188.204,219.763,188.204z"/>
		</g>
		<g>
			<path fill="#3C3C3B" d="M358.794,225.065l2.17-12.27h-2.791l0.399-2.17l2.924-0.222l1.417-6.157h2.658l-1.063,5.98h5.448
				l-0.443,2.569h-5.448l-2.126,12.137c-0.133,0.664-0.177,1.107-0.177,1.55c0,1.196,0.487,1.905,2.215,1.905
				c0.797,0,1.683-0.133,2.613-0.443l0.532,2.569c-1.063,0.355-2.303,0.62-3.588,0.62c-3.012,0-4.961-1.24-4.961-4.297
				C358.573,226.35,358.661,225.73,358.794,225.065z"/>
			<path fill="#3C3C3B" d="M375.356,202.164h3.101l-1.683,9.612c1.639-1.063,3.721-1.993,5.98-1.993
				c3.234,0,5.316,1.816,5.316,5.006c0,0.664-0.044,1.24-0.177,1.949l-2.481,13.953h-3.101l2.436-13.732
				c0.089-0.576,0.177-1.196,0.177-1.728c0-1.728-0.93-2.702-3.012-2.702c-1.993,0-4.031,0.975-5.626,1.905l-2.879,16.257h-3.101
				L375.356,202.164z"/>
			<path fill="#3C3C3B" d="M393.907,213.726c1.639-2.481,3.987-3.942,7.043-3.942c4.341,0,6.556,2.879,6.556,6.955
				c0,1.506-0.31,3.189-0.709,4.828h-12.358c-0.088,0.62-0.133,1.285-0.133,1.816c0,3.012,1.329,5.006,4.828,5.006
				c1.728,0,3.677-0.487,5.36-1.196l0.797,2.614c-1.816,0.753-3.987,1.373-6.334,1.373c-4.828,0-7.796-2.525-7.796-7.752
				C391.16,220.636,392.002,216.605,393.907,213.726z M404.227,219.085c0.133-0.753,0.177-1.55,0.177-2.082
				c0-2.525-0.93-4.474-3.632-4.474c-3.101,0-5.006,2.614-5.936,6.556H404.227z"/>
			<path fill="#3C3C3B" d="M425.179,202.164h3.101l-1.595,9.081c1.373-0.797,2.924-1.462,4.961-1.462c4.075,0,6.29,2.614,6.29,7.309
				c0,2.569-0.665,6.556-2.171,9.479c-1.595,3.101-3.898,4.563-7.663,4.563c-2.525,0-5.36-0.665-7.752-1.683L425.179,202.164z
				 M428.014,228.52c2.658,0,4.164-1.196,5.183-3.411c0.975-2.17,1.595-5.537,1.595-7.796c0-3.012-1.107-4.828-4.031-4.828
				c-1.462,0-3.057,0.487-4.518,1.329l-2.481,13.953C425.223,228.21,426.685,228.52,428.014,228.52z"/>
			<path fill="#3C3C3B" d="M443.654,213.726c1.639-2.481,3.987-3.942,7.043-3.942c4.341,0,6.556,2.879,6.556,6.955
				c0,1.506-0.31,3.189-0.709,4.828h-12.358c-0.089,0.62-0.133,1.285-0.133,1.816c0,3.012,1.329,5.006,4.828,5.006
				c1.728,0,3.677-0.487,5.36-1.196l0.797,2.614c-1.816,0.753-3.987,1.373-6.334,1.373c-4.828,0-7.796-2.525-7.796-7.752
				C440.908,220.636,441.749,216.605,443.654,213.726z M453.975,219.085c0.133-0.753,0.177-1.55,0.177-2.082
				c0-2.525-0.93-4.474-3.632-4.474c-3.101,0-5.006,2.614-5.936,6.556H453.975z"/>
			<path fill="#3C3C3B" d="M460.982,225.065l2.171-12.27h-2.791l0.399-2.17l2.924-0.222l1.418-6.157h2.658l-1.063,5.98h5.448
				l-0.443,2.569h-5.448l-2.126,12.137c-0.133,0.664-0.177,1.107-0.177,1.55c0,1.196,0.487,1.905,2.215,1.905
				c0.797,0,1.683-0.133,2.613-0.443l0.532,2.569c-1.063,0.355-2.304,0.62-3.588,0.62c-3.012,0-4.961-1.24-4.961-4.297
				C460.761,226.35,460.849,225.73,460.982,225.065z"/>
			<path fill="#3C3C3B" d="M474.988,225.065l2.171-12.27h-2.791l0.398-2.17l2.924-0.222l1.418-6.157h2.658l-1.063,5.98h5.449
				l-0.443,2.569h-5.448l-2.126,12.137c-0.133,0.664-0.177,1.107-0.177,1.55c0,1.196,0.487,1.905,2.215,1.905
				c0.797,0,1.683-0.133,2.614-0.443l0.531,2.569c-1.063,0.355-2.303,0.62-3.588,0.62c-3.012,0-4.961-1.24-4.961-4.297
				C474.767,226.35,474.855,225.73,474.988,225.065z"/>
			<path fill="#3C3C3B" d="M489.465,213.726c1.639-2.481,3.987-3.942,7.043-3.942c4.341,0,6.556,2.879,6.556,6.955
				c0,1.506-0.31,3.189-0.709,4.828h-12.358c-0.089,0.62-0.133,1.285-0.133,1.816c0,3.012,1.329,5.006,4.828,5.006
				c1.728,0,3.677-0.487,5.36-1.196l0.797,2.614c-1.816,0.753-3.987,1.373-6.334,1.373c-4.828,0-7.796-2.525-7.796-7.752
				C486.719,220.636,487.56,216.605,489.465,213.726z M499.786,219.085c0.133-0.753,0.177-1.55,0.177-2.082
				c0-2.525-0.93-4.474-3.632-4.474c-3.101,0-5.006,2.614-5.936,6.556H499.786z"/>
			<path fill="#3C3C3B" d="M509.079,210.226h2.436l-0.044,2.038c1.816-1.772,3.544-2.481,5.537-2.481
				c0.797,0,1.728,0.133,2.392,0.31l-0.531,2.924c-0.62-0.177-1.418-0.31-2.259-0.31c-1.949,0-3.721,0.709-5.227,2.259
				l-2.791,15.725h-3.101L509.079,210.226z"/>
			<path fill="#3C3C3B" d="M530.872,210.226h3.056c0.044,6.113,0.355,11.915,1.108,17.674h0.221
				c2.348-5.537,4.828-11.871,6.91-17.674h4.43c0.089,5.758,0.266,12.137,0.664,17.674h0.221c2.747-5.67,5.05-11.295,7.309-17.674
				h3.012c-2.525,7.22-5.67,14.573-8.726,20.465h-4.252c-0.443-5.227-0.798-11.915-0.842-17.674h-0.177
				c-2.126,5.759-4.784,12.447-7.043,17.674h-4.341C531.448,224.8,530.916,217.358,530.872,210.226z"/>
			<path fill="#3C3C3B" d="M560.235,214.612c1.595-3.189,4.031-4.828,7.885-4.828c2.569,0,5.271,0.709,7.663,1.683l-3.411,19.224
				h-2.392v-1.506c-1.462,1.108-3.278,1.949-5.493,1.949c-4.119,0-6.334-2.569-6.334-7.22
				C558.154,221.3,558.818,217.358,560.235,214.612z M569.981,226.749l2.392-13.554c-1.418-0.443-2.968-0.797-4.297-0.797
				c-2.525,0-4.075,1.152-5.138,3.455c-0.975,2.126-1.639,5.758-1.639,7.929c0,2.879,1.063,4.651,3.854,4.651
				C566.791,228.432,568.607,227.679,569.981,226.749z"/>
			<path fill="#3C3C3B" d="M579.167,210.226h3.057c0.31,6.246,0.842,12.181,1.86,17.807h0.177c3.145-5.98,6.113-12.181,8.505-17.807
				h3.012c-3.854,9.169-9.169,19.977-14.307,28.527h-3.057c1.506-2.525,3.012-5.227,4.563-8.062h-1.329
				C580.452,226.217,579.388,217.136,579.167,210.226z"/>
			<path fill="#3C3C3B" d="M607.383,225.065l2.171-12.27h-2.791l0.398-2.17l2.924-0.222l1.417-6.157h2.658l-1.063,5.98h5.449
				l-0.443,2.569h-5.448l-2.126,12.137c-0.133,0.664-0.177,1.107-0.177,1.55c0,1.196,0.487,1.905,2.215,1.905
				c0.797,0,1.683-0.133,2.614-0.443l0.531,2.569c-1.063,0.355-2.303,0.62-3.588,0.62c-3.012,0-4.961-1.24-4.961-4.297
				C607.161,226.35,607.25,225.73,607.383,225.065z"/>
			<path fill="#3C3C3B" d="M620.857,214.744c1.595-3.056,4.075-4.961,8.062-4.961c4.696,0,7.309,2.614,7.309,7.707
				c0,2.525-0.62,5.936-2.038,8.682c-1.595,3.056-4.075,4.961-8.062,4.961c-4.695,0-7.309-2.614-7.309-7.707
				C618.82,220.901,619.44,217.491,620.857,214.744z M631.533,224.667c0.975-2.082,1.55-5.05,1.55-7.132
				c0-2.879-1.107-5.006-4.341-5.006c-2.436,0-4.075,1.196-5.227,3.721c-0.974,2.082-1.55,5.05-1.55,7.132
				c0,2.879,1.107,5.006,4.341,5.006C628.742,228.388,630.381,227.192,631.533,224.667z"/>
			<path fill="#3C3C3B" d="M653.99,202.164h3.101l-1.683,9.612c1.639-1.063,3.721-1.993,5.98-1.993c3.234,0,5.316,1.816,5.316,5.006
				c0,0.664-0.044,1.24-0.177,1.949l-2.481,13.953h-3.101l2.436-13.732c0.089-0.576,0.177-1.196,0.177-1.728
				c0-1.728-0.93-2.702-3.012-2.702c-1.993,0-4.031,0.975-5.626,1.905l-2.879,16.257h-3.101L653.99,202.164z"/>
			<path fill="#3C3C3B" d="M672.54,213.726c1.639-2.481,3.987-3.942,7.043-3.942c4.341,0,6.556,2.879,6.556,6.955
				c0,1.506-0.31,3.189-0.709,4.828h-12.358c-0.089,0.62-0.133,1.285-0.133,1.816c0,3.012,1.329,5.006,4.828,5.006
				c1.728,0,3.677-0.487,5.36-1.196l0.797,2.614c-1.816,0.753-3.987,1.373-6.334,1.373c-4.828,0-7.796-2.525-7.796-7.752
				C669.794,220.636,670.636,216.605,672.54,213.726z M682.861,219.085c0.133-0.753,0.177-1.55,0.177-2.082
				c0-2.525-0.93-4.474-3.632-4.474c-3.101,0-5.006,2.614-5.936,6.556H682.861z"/>
			<path fill="#3C3C3B" d="M691.149,214.612c1.595-3.189,4.031-4.828,7.885-4.828c2.569,0,5.271,0.709,7.663,1.683l-3.411,19.224
				h-2.392v-1.506c-1.462,1.108-3.278,1.949-5.493,1.949c-4.119,0-6.334-2.569-6.334-7.22
				C689.067,221.3,689.731,217.358,691.149,214.612z M700.894,226.749l2.392-13.554c-1.417-0.443-2.968-0.797-4.297-0.797
				c-2.525,0-4.075,1.152-5.138,3.455c-0.974,2.126-1.639,5.758-1.639,7.929c0,2.879,1.063,4.651,3.854,4.651
				C697.705,228.432,699.521,227.679,700.894,226.749z"/>
			<path fill="#3C3C3B" d="M710.497,225.065l2.171-12.27h-2.791l0.398-2.17l2.924-0.222l1.418-6.157h2.658l-1.063,5.98h5.449
				l-0.443,2.569h-5.448l-2.126,12.137c-0.133,0.664-0.177,1.107-0.177,1.55c0,1.196,0.487,1.905,2.215,1.905
				c0.797,0,1.683-0.133,2.614-0.443l0.531,2.569c-1.063,0.355-2.303,0.62-3.588,0.62c-3.012,0-4.961-1.24-4.961-4.297
				C710.275,226.35,710.364,225.73,710.497,225.065z"/>
		</g>
	</g>
</g>
<g id="Layer_2" display="none">
	<g display="inline">
		<defs>
			<rect id="SVGID_1_" x="222.718" y="22.194" width="339.169" height="209.983"/>
		</defs>
		<clipPath id="SVGID_2_">
			<use xlink:href="#SVGID_1_"  overflow="visible"/>
		</clipPath>
		<path clip-path="url(#SVGID_2_)" fill="#006331" d="M561.887,232.177H222.72V22.191h339.167V232.177z M531.636,194.471
			c12.637-13.037,12.444-33.679,12.444-33.679h-39.185c0,0-0.042,11.94-6.448,18.552c-2.025,2.089-5.114,4.323-10.241,4.323
			c-5.114,0-10.052-2.05-12.623-4.701c-5.712-5.894-7.331-17.037-7.331-30.058c0-12.099,2.353-26.454,7.877-32.15
			c3.835-3.958,6.771-4.91,11.709-4.91c4.938,0,7.891,2.245,10.283,4.713c5.481,5.671,5.849,15.887,5.849,15.887h39.377
			c0,0,0.365-17.218-13.004-31.013c-9.316-9.612-23.095-14.355-43.238-14.355c-20.335,0-33.732,5.317-44.708,16.642
			c-10.977,11.325-16.104,27.771-16.104,45.747c0,19.084,6.077,34.057,14.104,42.338c8.038,8.278,23.61,17.02,46.897,17.02
			C510.566,208.826,524.306,202.022,531.636,194.471 M464.772,81.578V47.729H320.487v33.974l48.599-0.042l0.053,126.942h47.009
			V81.62L464.772,81.578z M347.69,194.471c12.636-13.037,12.458-33.679,12.458-33.679h-39.199c0,0-0.028,11.94-6.448,18.552
			c-2.011,2.089-5.114,4.323-10.227,4.323c-5.128,0-10.066-2.05-12.636-4.701c-5.713-5.894-7.331-17.037-7.331-30.058
			c0-12.099,2.354-26.454,7.877-32.15c3.835-3.958,6.788-4.91,11.723-4.91c4.924,0,7.877,2.245,10.269,4.713
			c5.495,5.671,5.863,15.887,5.863,15.887h39.361c0,0,0.382-17.218-12.987-31.013c-9.331-9.612-23.095-14.355-43.252-14.355
			c-20.321,0-33.732,5.317-44.708,16.642c-10.977,11.325-16.104,27.771-16.104,45.747c0,19.084,6.077,34.057,14.115,42.338
			c8.027,8.278,23.599,17.02,46.886,17.02C326.62,208.826,340.359,202.022,347.69,194.471"/>
		<path clip-path="url(#SVGID_2_)" fill="#FFFFFF" d="M544.082,160.792c0,0,0.189,20.641-12.444,33.679
			c-7.331,7.551-21.07,14.355-44.341,14.355c-23.287,0-38.859-8.743-46.9-17.02c-8.024-8.28-14.104-23.254-14.104-42.338
			c0-17.976,5.128-34.422,16.104-45.747c10.976-11.325,24.376-16.642,44.708-16.642c20.145,0,33.924,4.743,43.24,14.355
			c13.369,13.795,13.001,31.013,13.001,31.013h-39.374c0,0-0.368-10.216-5.849-15.887c-2.395-2.468-5.345-4.715-10.283-4.715
			c-4.938,0-7.877,0.955-11.712,4.913c-5.52,5.696-7.874,20.054-7.874,32.15c0,13.021,1.618,24.165,7.331,30.058
			c2.571,2.652,7.509,4.701,12.623,4.701c5.128,0,8.214-2.234,10.241-4.323c6.406-6.612,6.448-18.552,6.448-18.552H544.082z"/>
		<polygon clip-path="url(#SVGID_2_)" fill="#FFFFFF" points="464.771,47.73 464.771,81.576 416.147,81.618 416.147,208.601 
			369.138,208.601 369.085,81.662 320.486,81.704 320.486,47.73 		"/>
		<path clip-path="url(#SVGID_2_)" fill="#FFFFFF" d="M360.149,160.792c0,0,0.175,20.641-12.458,33.679
			c-7.331,7.551-21.07,14.355-44.341,14.355c-23.287,0-38.859-8.743-46.886-17.02c-8.038-8.28-14.118-23.254-14.118-42.338
			c0-17.976,5.128-34.422,16.104-45.747c10.976-11.325,24.39-16.642,44.708-16.642c20.159,0,33.924,4.743,43.254,14.355
			c13.369,13.795,12.987,31.013,12.987,31.013h-39.361c0,0-0.368-10.216-5.863-15.887c-2.395-2.468-5.345-4.715-10.269-4.715
			c-4.938,0-7.888,0.955-11.726,4.913c-5.52,5.696-7.874,20.054-7.874,32.15c0,13.021,1.618,24.165,7.331,30.058
			c2.571,2.652,7.509,4.701,12.637,4.701c5.114,0,8.214-2.234,10.227-4.323c6.42-6.612,6.448-18.552,6.448-18.552H360.149z"/>
	</g>
	<g display="inline">
		<path fill="#646363" d="M253.196,283.295h-6.475l-5.022-21.202h-0.083l-4.939,21.202h-6.599l-7.844-31.147h6.516l4.69,21.201
			h0.083l5.146-21.201h6.101l5.063,21.463h0.083l4.856-21.463h6.392L253.196,283.295z"/>
		<path fill="#646363" d="M271.535,252.147h6.682l11.082,31.147h-6.765l-2.241-6.937h-11.082l-2.324,6.937h-6.599L271.535,252.147z
			 M267.717,243.552h5.603v5.104h-5.603V243.552z M270.913,271.255h7.678l-3.735-11.43h-0.083L270.913,271.255z M276.267,243.552
			h5.603v5.104h-5.603V243.552z"/>
		<path fill="#646363" d="M291.869,252.147h15.979c5.312,0,8.674,3.882,8.674,8.594c0,3.664-1.411,6.412-4.69,7.809v0.087
			c3.196,0.873,4.109,4.145,4.316,7.285c0.125,1.964,0.083,5.628,1.245,7.373h-6.516c-0.789-1.963-0.706-4.974-1.038-7.46
			c-0.457-3.271-1.66-4.711-4.939-4.711h-6.516v12.171h-6.516V252.147z M298.385,266.237h7.139c2.905,0,4.482-1.309,4.482-4.449
			c0-3.011-1.577-4.319-4.482-4.319h-7.139V266.237z"/>
		<path fill="#646363" d="M321.831,252.147h9.172l6.931,21.419h0.083l6.558-21.419h9.172v31.147h-6.101V261.22h-0.083l-7.263,22.074
			h-5.022l-7.263-21.856h-0.083v21.856h-6.101V252.147z"/>
		<path fill="#646363" d="M359.47,252.147h22.163v5.758h-15.647v6.675h14.36v5.322h-14.36v7.634h15.979v5.759H359.47V252.147z"/>
		<path fill="#646363" d="M386.361,252.147h13.364c7.388,0,10.251,4.929,10.251,9.989s-2.863,9.99-10.251,9.99h-6.848v11.168h-6.516
			V252.147z M392.877,266.804h5.063c3.03,0,5.728-0.698,5.728-4.668s-2.697-4.668-5.728-4.668h-5.063V266.804z"/>
		<path fill="#646363" d="M439.192,271.516c0,8.419-4.731,12.52-12.659,12.52c-7.969,0-12.617-4.057-12.617-12.52v-19.369h6.517
			v19.369c0,3.402,0.83,6.762,6.101,6.762c4.648,0,6.143-2.138,6.143-6.762v-19.369h6.517V271.516z"/>
		<path fill="#646363" d="M444.792,252.147h9.172l6.932,21.419h0.083l6.558-21.419h9.172v31.147h-6.101V261.22h-0.083l-7.264,22.074
			h-5.021l-7.264-21.856h-0.083v21.856h-6.101V252.147z"/>
		<path fill="#646363" d="M482.432,252.147h13.364c7.388,0,10.251,4.929,10.251,9.989s-2.863,9.99-10.251,9.99h-6.849v11.168h-6.516
			V252.147z M488.947,266.804h5.063c3.03,0,5.728-0.698,5.728-4.668s-2.697-4.668-5.728-4.668h-5.063V266.804z"/>
		<path fill="#646363" d="M510.111,252.147h22.163v5.758h-15.646v6.675h14.359v5.322h-14.359v7.634h15.979v5.759h-22.495V252.147z"
			/>
		<path fill="#646363" d="M537.003,252.147h6.475l12.369,20.895h0.082v-20.895h6.102v31.147h-6.516l-12.327-20.853h-0.083v20.853
			h-6.102V252.147z"/>
	</g>
</g>
<g id="Layer_3" display="none">
	<g id="layer1" transform="translate(-177.78125,-565.33093)" display="inline">
		<path id="path70" fill="#E52620" d="M269.011,616.238v213.186h0.863h603.307h0.37V616.238H269.011L269.011,616.238z"/>
		<path id="path84" fill="#FFFFFF" d="M410.836,689.454c-9.378-0.274-15.171,9.654-15.171,20.32
			c0,10.757,5.793,19.767,15.171,19.767s15.171-9.011,15.171-19.767c0-10.665-5.795-20.594-15.173-20.317L410.836,689.454
			L410.836,689.454z M410.836,676.307c19.491-0.37,31.72,15.077,31.72,33.375c0,18.295-12.229,33.284-31.72,33.19
			c-19.491,0.094-31.72-14.803-31.72-33.099S391.345,675.938,410.836,676.307z M518.317,714.279
			c-5.425,0.735-8.276,3.586-8.276,7.632c0,4.044,3.586,7.721,8.091,7.63c8.55,0.367,13.884-5.425,13.975-10.298v-7.906
			C532.106,711.337,519.971,714.003,518.317,714.279z M523.924,701.039c7.906-1.655,7.906-2.39,8.182-5.608
			c0-2.942-3.309-5.978-8.826-5.978c-5.608,0-11.033,0.92-10.848,9.931h-15.999c0,0-1.379-23.353,25.56-22.986
			c14.066,0,26.571,3.494,25.651,23.262v41.098h-15.997v-2.942c-4.047,3.492-9.654,5.055-15.63,5.055
			c-12.323,0-22.433-8.917-22.433-19.95c0-9.931,4.87-17.563,18.939-19.77C517.488,702.235,521.165,701.591,523.924,701.039
			L523.924,701.039z M571.518,652.217l-16.379,0.008v88.537l16.379-0.002v-88.542V652.217z M468.484,717.312l12.229-38.891h16.458
			l-21.698,62.338h-16.367l-17.928-62.338h16.917L468.484,717.312L468.484,717.312z M305.313,652.217v88.542h17.745V702.97h32.822
			v37.789h17.837v-88.542h-17.837v35.491h-32.822v-35.491"/>
	</g>
</g>
<g id="Layer_4" display="none">
	<g display="inline">
		<path fill="#BD1F1E" d="M100.101,166.314c6.298-1.671,12.652-2.295,19.171-1.543c18.841,2.167,35.193,17.61,38.306,36.323
			c1.276,7.685,0.79,15.82-1.185,20.971c-2.047-4.416-3.893-9.099-6.298-13.47c-10.89-19.814-27.022-33.623-48.213-41.492
			c-0.569-0.211-1.184-0.285-1.781-0.413V166.314z"/>
		<path fill="#BD1F1E" d="M174.02,92.769c1.579,3.957,2.864,8.071,4.802,11.844c10.88,21.081,27.518,35.698,49.82,43.852
			c0.285,0.101,0.569,0.239,0.845,0.358c0.027,0.184,0.046,0.367,0.073,0.551c-3.526,0.523-7.033,1.359-10.577,1.524
			c-24.35,1.166-44.632-16.38-47.075-40.629c-0.597-5.931,0.193-11.762,1.736-17.5H174.02z"/>
		<path fill="#BD1F1E" d="M100.101,148.768c5.417-2.396,11.11-4.324,16.214-7.272c18.758-10.834,31.796-26.627,39.325-46.955
			c0.211-0.569,0.312-1.175,0.459-1.772h0.377c0.606,4.784,1.717,9.558,1.745,14.342c0.128,21.843-17.592,41.262-39.316,43.558
			c-6.078,0.643-12.028,0.248-17.895-1.432c-0.285-0.083-0.606-0.064-0.909-0.092V148.768z"/>
		<path fill="#BD1F1E" d="M451.15,211.08v-4.214h11.67v-98.317h-11.642v-4.233h2.039c27.931,0,55.861-0.037,83.801,0.018
			c9.687,0.018,19.089,1.533,27.536,6.703c9.632,5.885,13.314,17.179,8.915,27.224c-2.268,5.169-6.39,8.475-11.367,10.816
			c-6.391,3.002-13.222,4.205-20.227,4.572c-0.864,0.046-1.727,0.129-2.672,0.202v2.911c2.488,0.202,4.995,0.432,7.502,0.615
			c6.317,0.459,12.45,1.616,18.134,4.554c7.979,4.123,12.689,10.504,12.992,19.621c0.322,9.678-2.901,17.702-11.596,22.862
			c-6.289,3.737-13.268,5.261-20.429,5.867c-6.005,0.514-12.046,0.744-18.07,0.771c-24.754,0.073-49.517,0.028-74.279,0.028H451.15z
			 M510.877,206.746c2.488,0,4.784,0.147,7.061-0.037c4.867-0.376,8.108-2.993,9.384-7.703c0.578-2.13,0.872-4.398,0.918-6.602
			c0.11-6.712,0.055-13.433,0.018-20.145c-0.009-1.616-0.101-3.241-0.349-4.83c-0.56-3.517-1.947-6.583-5.335-8.273
			c-3.7-1.845-7.657-1.598-11.697-1.423V206.746z M510.933,108.585v44.66c2.625,0,5.114,0.147,7.584-0.028
			c4.04-0.303,7.299-3.517,7.483-8.447c0.349-9.301,0.248-18.63,0.046-27.94c-0.064-3.296-2.011-5.867-5.151-7.189
			C517.727,108.3,514.385,108.328,510.933,108.585"/>
		<path fill="#BD1F1E" d="M663.66,181.167h-4.867c-0.56-2.497-0.955-5.004-1.69-7.41c-1.643-5.344-4.664-9.723-9.604-12.57
			c-2.599-1.497-5.399-2.167-8.567-1.855v47.166c12.983,1.901,24.221-0.652,32.145-12.202c4.581-6.684,7.869-13.947,10.302-21.614
			c0.56-1.763,1.258-2.672,3.186-2.314c0.661,0.119,1.359,0.018,2.332,0.018c-0.266,13.543-0.523,26.985-0.79,40.555H579.942v-4.058
			h11.312v-98.372h-11.33v-4.095h104.763c0.266,12.349,0.542,24.68,0.808,37.149h-4.949c-1.497-3.884-2.791-7.777-4.454-11.505
			c-2.828-6.317-6.702-11.918-12.267-16.187c-4.692-3.608-10.008-5.408-15.939-5.399c-2.966,0.009-5.941,0-8.998,0v46.588
			c5.876,0.56,10.32-2.002,14.002-6.225c3.617-4.132,5.059-9.182,5.73-14.562h5.041V181.167z"/>
		<path fill="#BD1F1E" d="M347.709,161.189v-2.461v-40.684c0-5.298-2.433-8.282-7.731-9.218c-1.937-0.349-3.93-0.349-5.986-0.514
			v-3.856h32.145v4.022c-1.653,0-3.259-0.028-4.857,0.009c-4.141,0.073-6.243,1.671-7.015,5.739c-0.468,2.488-0.67,5.059-0.68,7.593
			c-0.046,28.931-0.027,57.854-0.027,86.785v2.387c-0.698,0.037-1.295,0.092-1.891,0.092c-7.584,0-15.177-0.028-22.761,0.028
			c-1.267,0.009-1.992-0.413-2.736-1.423c-20.117-27.343-40.28-54.659-60.434-81.974c-0.386-0.523-0.799-1.019-1.598-1.405v1.974
			c0,21.522-0.064,43.044,0.073,64.566c0.018,3.039,0.689,6.179,1.616,9.09c1.074,3.342,3.801,4.921,7.355,4.921h4.811v4.077h-31.87
			c-0.073-0.239-0.147-0.413-0.165-0.588c-0.276-3.48-0.276-3.48,3.195-3.489c4.021-0.018,6.565-1.497,7.804-5.353
			c0.927-2.911,1.57-6.06,1.588-9.108c0.129-24.689,0.083-49.388,0.028-74.087c0-0.964-0.432-2.038-0.955-2.874
			c-0.808-1.313-1.836-2.507-2.846-3.682c-1.965-2.286-4.362-3.673-7.502-3.406c-0.248,0.018-0.496-0.009-0.744-0.037
			c-0.11-0.018-0.22-0.101-0.469-0.22v-3.783h2.075c18.474,0,36.947,0.018,55.43-0.037c1.432,0,2.232,0.514,3.03,1.607
			c13.194,17.849,26.434,35.671,39.655,53.502C346.607,159.857,346.993,160.307,347.709,161.189"/>
		<path fill="#BD1F1E" d="M383.804,206.858v-98.363h-11.551v-4.077h71.957v4.049H432.53v98.354h11.698v4.104h-71.856
			c-0.073-0.119-0.174-0.22-0.174-0.321c-0.34-3.746-0.34-3.746,3.443-3.746H383.804z"/>
		<path fill="#BD1F1E" d="M173.824,222.231c-4.205-11.899-2.782-30.676,10.797-44.485c13.02-13.24,31.484-15.783,44.999-11.275
			C202.406,176.534,183.859,195.099,173.824,222.231"/>
		<path fill="#BD1F1E" d="M181.259,157.698c0.027,8.98-7.217,16.224-16.224,16.233c-8.961,0-16.316-7.327-16.288-16.233
			c0.027-8.934,7.373-16.27,16.279-16.279C173.968,141.419,181.231,148.709,181.259,157.698"/>
	</g>
</g>
<g id="Layer_7" display="none">
	<g display="inline">
		<defs>
			<rect id="SVGID_3_" x="87.799" y="81.477" width="611.402" height="152.047"/>
		</defs>
		<clipPath id="SVGID_4_">
			<use xlink:href="#SVGID_3_"  overflow="visible"/>
		</clipPath>
		<path clip-path="url(#SVGID_4_)" fill="#DE3516" d="M88.244,131.207c-0.356-2.592-0.496-5.209-0.428-7.822
			c0.546-24.883,17.561-41.643,42.232-41.592c24.416,0.022,41.571,16.802,41.995,41.898c0.381,24.632-15.458,41.923-39.069,43.53
			c-22.648,1.553-39.737-11.55-44.094-32.267C88.621,133.706,88.406,132.458,88.244,131.207 M113.199,123.572
			c-0.047,1.603,0.022,3.207,0.187,4.781c1.273,12.754,7.826,18.74,16.968,18.481c9.781-0.284,16.45-7.308,16.662-21.447
			c0.025-1.603-0.072-3.228-0.259-4.831c-1.51-12.654-8.178-18.898-17.345-18.711C120.22,102.01,113.505,109.128,113.199,123.572
			 M537.123,165.092V83.583h69.499v20.311h-44.446v9.684h38.738v19.02h-38.81v10.885h46.334v21.609H537.123z M446.512,165.614
			V83.321h24.269l24.866,42.207l0.043-42.042h24.2v82.296h-24.132l-24.646-43.505l-0.047,43.336H446.512z M359.089,138.045h25.074
			l0.309,1.388c1.226,5.493,5.137,8.318,12.56,8.2c7.046-0.093,10.321-2.897,10.321-6.169c-0.022-2.977-2.024-4.573-11.076-7.049
			l-12.391-3.886c-15.296-4.86-21.569-12.161-21.871-22.723c-0.428-13.409,9.803-23.776,30.279-25.193
			c1.459-0.093,2.948-0.137,4.411-0.162c4.544-0.047,8.739,0.471,12.604,1.485c11.687,3.059,17.633,10.252,19.067,20.857
			l0.467,3.415h-23.417l-1.301-2.333c-1.65-2.991-3.534-4.314-7.826-4.997c-0.658-0.115-1.344-0.187-2.002-0.187
			c-1.79-0.072-3.181,0.259-4.36,0.87c-2.211,1.201-3.365,2.944-3.437,4.361c-0.072,1.884,1.201,3.041,6.176,4.479l10.558,2.732
			c1.201,0.306,2.376,0.636,3.559,1.014c13.998,4.335,18.758,7.614,22.478,14.07c2.006,3.487,3.088,7.445,3.135,11.45
			c0.165,14.21-10.774,25.286-31.063,27.346c-2.096,0.208-4.217,0.298-6.338,0.277c-21.138-0.115-34.665-12.492-35.654-25.782
			L359.089,138.045z M272.716,165.092V83.486h24.812v28.094h23.499V83.486h24.815v81.516h-24.887v-31.98h-23.352v32.069H272.716z
			 M259.498,110.986l0.467,2.592h-24.387l-0.518-1.93c-1.535-5.773-7.071-9.922-13.103-9.782
			c-8.441,0.169-15.886,8.013-16.216,20.879c-0.399,14.847,7.495,23.381,16.637,23.334c2.57-0.022,5.094-0.827,7.236-2.337
			c2.786-1.927,4.501-4.544,5.489-8.739l0.475-1.981l25.049,0.352l-0.87,4.716c-3.016,16.658-16.263,28.277-36.221,29.01
			c-23.284,0.845-41.405-15.907-42.559-40.348c-1.132-24.175,13.854-42.254,36.455-44.986c1.909-0.234,3.839-0.331,5.748-0.284
			C241.988,81.768,256.478,94.163,259.498,110.986 M647.524,118.766h11.852c0.518,0,1.039,0,1.553-0.047
			c7.614-0.352,10.982-3.368,10.842-8.649c-0.137-4.598-3.487-7.776-9.002-7.801l-15.246-0.025V118.766z M623.061,165.002V83.486
			l36.153-0.022c4.828,0,8.912,0.072,12.604,0.212c15.39,0.611,24.671,9.638,24.768,22.931c0.05,7.801-3.386,14.487-9.677,18.92
			l-2.646,1.884l2.002,0.83c4.878,1.977,8.347,6.999,9.71,17.273c0.144,1.129,0.284,2.236,0.378,3.368l0.899,8.836
			c0.284,2.448,0.705,4.152,1.219,5.468l0.737,1.815h-24.79l-0.69-1.675c-0.396-1.01-0.726-2.355-1.197-5.701
			c-0.122-0.967-0.241-2.117-0.547-6.996c-0.072-0.877-0.187-1.747-0.349-2.592c-1.722-8.297-5.475-11.622-12.938-11.622
			l-11.007-0.022v28.608H623.061z"/>
		<path clip-path="url(#SVGID_4_)" fill="#6E7376" d="M662.329,233.883v-35.488l27.274,35.488h7.053v-45.155h-6.589v35.452
			l-27.274-35.452h-7.053v45.155H662.329z M643.78,233.883v-5.324h-31.883v-15.375h28.733v-5.302h-28.733v-13.829h30.682v-5.324
			h-37.548v45.155H643.78z M560.825,194.053h13.29c3.117,0,5.249,0.137,6.41,0.406c1.79,0.431,3.242,1.316,4.339,2.664
			c1.1,1.348,1.65,2.959,1.65,4.853c0,2.606-0.938,4.63-2.801,6.064c-1.866,1.442-5.018,2.153-9.461,2.153h-13.427V194.053z
			 M560.825,233.883v-18.359h13.323c7.344,0,12.424-1.326,15.235-3.99c2.804-2.657,4.217-5.903,4.217-9.746
			c0-2.24-0.525-4.292-1.582-6.162c-1.046-1.869-2.437-3.322-4.155-4.357c-1.733-1.042-3.865-1.747-6.417-2.114
			c-1.815-0.284-4.454-0.428-7.901-0.428h-19.585v45.155H560.825z M497.395,233.883v-38.44l15.023,38.44h6.201l15.084-37.792v37.792
			h6.625v-45.155h-9.246l-12.435,31.419c-1.251,3.185-2.171,5.597-2.761,7.24c-0.521-1.481-1.348-3.71-2.48-6.69l-12.291-31.969
			h-10.346v45.155H497.395z M470.131,214.788c0,5.665-1.078,9.498-3.224,11.489c-2.15,1.995-5.755,2.987-10.806,2.987
			c-2.951,0-5.45-0.5-7.495-1.51c-2.038-1.003-3.48-2.437-4.317-4.292c-0.838-1.862-1.258-4.752-1.258-8.674v-26.059h-6.87v26.091
			c0,4.785,0.658,8.552,1.981,11.324c1.326,2.754,3.53,4.867,6.625,6.323c3.092,1.463,7.071,2.189,11.939,2.189
			c5.004,0,9.048-0.838,12.133-2.513c3.081-1.672,5.213-3.843,6.395-6.514c1.176-2.671,1.765-6.277,1.765-10.81v-26.091h-6.866
			V214.788z M391.994,194.053h13.287c3.117,0,5.252,0.137,6.41,0.406c1.797,0.431,3.243,1.316,4.343,2.664
			c1.096,1.348,1.646,2.959,1.646,4.853c0,2.606-0.931,4.63-2.8,6.064c-1.866,1.442-5.018,2.153-9.458,2.153h-13.427V194.053z
			 M391.994,233.883v-18.359h13.322c7.341,0,12.424-1.326,15.228-3.99c2.815-2.657,4.217-5.903,4.217-9.746
			c0-2.24-0.521-4.292-1.575-6.162c-1.057-1.869-2.441-3.322-4.163-4.357c-1.726-1.042-3.861-1.747-6.41-2.114
			c-1.823-0.284-4.454-0.428-7.905-0.428h-19.585v45.155H391.994z M373.089,233.883v-5.324h-31.883v-15.375h28.73v-5.302h-28.73
			v-13.829h30.678v-5.324h-37.548v45.155H373.089z M277.635,233.883v-38.44l15.016,38.44h6.201l15.091-37.792v37.792h6.625v-45.155
			h-9.242l-12.442,31.419c-1.247,3.185-2.171,5.597-2.761,7.24c-0.518-1.481-1.348-3.71-2.48-6.69l-12.294-31.969h-10.342v45.155
			H277.635z M223.267,193.715h16.436c3.85,0,6.665,0.69,8.451,2.067c1.779,1.373,2.675,3.131,2.675,5.266
			c0,1.456-0.46,2.808-1.384,4.048c-0.917,1.247-2.265,2.15-4.037,2.714c-1.772,0.564-4.228,0.845-7.369,0.845h-14.771V193.715z
			 M223.267,233.883v-20.048h7.97c1.772,0,3.045,0.068,3.829,0.209c1.06,0.23,2.11,0.625,3.135,1.208
			c1.028,0.575,2.189,1.578,3.491,3.02c1.294,1.434,2.948,3.509,4.957,6.219l6.873,9.393h8.646l-9.034-12.291
			c-1.797-2.398-3.699-4.404-5.705-6.003c-0.945-0.744-2.326-1.492-4.148-2.254c4.986-0.59,8.667-1.988,11.054-4.181
			c2.383-2.204,3.577-4.9,3.577-8.106c0-2.488-0.719-4.752-2.157-6.805c-1.445-2.056-3.365-3.487-5.78-4.303
			c-2.405-0.805-5.928-1.211-10.554-1.211h-23.021v45.155H223.267z M193.06,179.637h-6.658v6.313h6.658V179.637z M179.849,179.637
			h-6.658v6.313h6.658V179.637z M180.345,202.094c1.204-2.854,2.139-5.73,2.8-8.628c0.798,2.452,2.027,5.568,3.685,9.365
			l5.417,12.514h-17.604L180.345,202.094z M166.954,233.883l5.705-13.678h21.713l6.057,13.678h7.83l-21.253-45.155h-7.405
			l-19.944,45.155H166.954z M110.429,233.883l11.015-34.406c0.474-1.456,0.981-3.221,1.524-5.299
			c0.165,0.658,0.708,2.423,1.628,5.299l10.946,34.406h6.625l14.243-45.155h-6.909l-8.146,29.014
			c-1.068,3.699-1.93,6.97-2.588,9.828c-0.827-4.986-2.171-10.321-4.037-15.986l-7.441-22.856h-8.29l-9.882,30.495
			c-0.237,0.737-1.014,3.523-2.337,8.347c-0.615-3.056-1.348-6.14-2.2-9.242l-7.898-29.6h-7.049l13.783,45.155H110.429z"/>
	</g>
</g>
<g id="Layer_5" display="none">
	<g id="g6" display="inline">
		<path id="path8" fill="#010202" d="M71.133,123.17l0.471,0.655l-0.141,13.336c-0.562,0.471-1.221,0.004-1.878,0.006
			c-6.769-2.135-16.261-4.356-22.726-0.015c-1.123,1.132-1.682,2.636-1.206,4.231c1.89,3.467,5.744,4.676,8.942,6.167
			c10.25,3.908,24.726,7.896,26.932,21.129c1.437,8.165-1.352,16.157-8.38,20.501c-12.836,8.309-31.627,5.744-44.142-1.536
			l-0.378-0.562l0.135-14.836c1.126-0.286,2.258,0.931,3.385,1.396c7.53,4.763,16.18,8.114,25.942,6.577
			c1.971-0.382,3.939-1.423,5.154-3.306c0.745-1.599,0.83-4.135-0.395-5.634c-1.226-1.592-2.919-2.243-4.613-3.177l-15.328-5.957
			c-7.899-2.976-15.342-10.088-15.374-19.104c-0.303-6.29,1.647-12.307,6.987-16.177C44.261,119.038,59.666,120.206,71.133,123.17z"
			/>
		<path id="path10" fill="#010202" d="M122.966,121.957c2.068,0,4.062-0.044,6.199-0.044c0.202,3.943,0.219,9.131,0.045,13.452
			l-0.468,0.377l-16.528,0.058l-0.469,0.377l-0.272,56.628c0.003,0.751-0.843,0.472-1.312,0.661l-16.81-0.13l-0.191-0.843
			l-0.008-56.439l-0.658-0.373c-5.353,0.019-11.011-0.131-16.341-0.131l-0.377-0.375l0.144-12.771l0.28-0.377L122.966,121.957z"/>
		<path id="path12" fill="#010202" d="M150.951,122.009c1.128,0.278,0.664,1.876,0.762,2.909l-0.233,68.162l-0.281,0.377
			l-17.373-0.072l-0.47-0.186l0.02-32.586l-0.062-22.633l0.04-15.401l0.562-0.565L150.951,122.009z"/>
		<path id="path14" fill="#010202" d="M207.954,122.131c0.377,0.187,0.47,0.28,0.566,0.655l-0.051,12.397l-0.562,0.471l-24.51,0.085
			c-0.188,0.096-0.375,0.284-0.562,0.471c0,4.034,0.157,9.082,0.157,13.428l23.273,0.015l0.47,0.185
			c0.204,4.508,0.127,9.391-0.141,13.336l-0.75,0.191l-22.632,0.079l-0.375,0.283c-0.074,5.729-0.152,10.425-0.039,15.965
			l0.377,0.373l25.449,0.007l0.283,0.281c0.015,4.32,0.217,8.451-0.143,12.865l-0.469,0.284l-43.668,0.042l-0.283-0.469
			l0.152-37.642l0.073-32.775c0.655-0.941,2.065-0.288,3.003-0.574L207.954,122.131z"/>
		<path id="path16" fill="#010202" d="M325.811,122.754l0.377,0.28l0.044,12.771l-0.468,0.471l-25.355,0.088
			c-0.361,4.322-0.25,9.204-0.047,13.523l0.657,0.28l23.197,0.294l0.283,0.187l0.045,12.865l-0.468,0.471l-23.572,0.082l-0.373,0.47
			l0.054,15.776l0.377,0.281l25.826,0.192l0.47,0.469l-0.144,12.277l-0.375,0.284l-37.093-0.032l-7.043,0.023l-0.284-0.469
			l0.039-69.868c0.187-0.376,0.185-0.845,0.561-0.941l28.642-0.006L325.811,122.754z"/>
		<path id="path18" fill="#010202" d="M356.802,123.116l0.083,23.665l-0.094,27.139l0.116,6.292l0.377,0.374l22.82,0.014
			l0.376,0.281c0.108,4.132,0.406,8.159-0.237,12.482l-1.408,0.286l-39.911,0.045l-0.377-0.28l-0.086-24.501l0.215-45.922
			c0.373-0.658,1.314-0.098,1.782-0.381l16.059,0.132L356.802,123.116z"/>
		<path id="path20" fill="#010202" d="M452.962,122.406l0.472,0.468c-0.08,4.226,0.216,8.546-0.238,12.866
			c-8.637,0.686-16.998-0.035-25.354,0.37l-0.281,0.377c0.205,4.788,0.063,8.806,0.063,13.522l23.743,0.012l0.471,0.562
			l-0.144,12.584l-0.28,0.376l-23.477,0.27c-0.656,0.285-0.56,1.129-0.558,1.693l0.052,14.555l0.47,0.375l25.731-0.09l0.376,0.469
			l-0.05,12.583l-0.469,0.19l-44.137,0.153l-0.192-1.126l0.063-35.591l0.069-34.276l1.031-0.285l21.881-0.077l0.094-0.094
			C439.065,122.642,446.107,122.335,452.962,122.406z"/>
		<path id="path22" fill="#010202" d="M548.279,122.261l0.045,12.96l-0.374,0.376l-16.716,0.152l-0.28,0.47l-0.102,24.417
			l0.019,32.398l-0.468,0.471l-17.468-0.128l-0.377-0.28l-0.084-24.322l-0.019-32.304c0.186-0.376-0.097-0.656-0.378-0.75
			l-16.622-0.036l-0.283-0.281c-0.204-4.508-0.314-9.108,0.049-13.053l0.75-0.285l51.931-0.086L548.279,122.261z"/>
		<path id="path24" fill="#010202" d="M482.448,122.209c0.754,0.373,0.567,1.219,0.57,1.97l0.004,27.798
			c0.095,0.187-0.186,0.752,0.191,0.938h-0.094l-0.167,6.011l0.07,20.472l0.189,0.375l6.481,0.165l16.528-0.058
			c0.095,0.187,0.189,0.187,0.377,0.187c0.39,4.224,0.218,8.92,0.138,13.052l-0.374,0.283l-41.319,0.051l-0.285-0.47l0.05-66.862
			l0.083-3.381c0.279-0.658,1.033-0.192,1.501-0.475L482.448,122.209z"/>
		<path id="path26" fill="#010202" d="M722.053,135.086l19.06,25.947l0.375-0.284l0.098-26.294l0.051-12.303l0.47-0.19
			c5.771,0,11.606,0.023,17.316,0.023l-0.032,1.608l-0.168,59.82l-0.059,9.86l-0.374,0.284l-14.181,0.05l-1.507-1.591
			l-26.044-35.971c-0.849-1.218-1.7-2.717-2.924-3.745l-0.182,1.409l-0.144,39.443l-0.375,0.47l-17.09,0.059l-0.284-0.374
			l-0.128-36.718l0.07-33.902c0.094-0.283,0.186-0.47,0.467-0.659c5.917-0.021,10.33-0.13,15.965,0.038L722.053,135.086z"/>
		<path id="path28" fill="#010202" d="M616.138,192.927l-9.178-19.971c-1.889-3.28-3.216-6.844-6.045-9.746
			c-0.849-1.218-2.355-2.058-3.11-3.183c5.626-2.367,10.207-8.393,11.031-14.312c1.098-8.456-2.592-16.331-9.933-20.814
			c-5.74-3.361-13.438-2.582-20.201-3.122v0.094l-24.321,0.085l-0.655,0.471l-0.122,18.97l-0.017,49.301l-0.016,2.829l17.024,0.023
			l1.126-0.192l0.277-28.456c1.406-0.567,3.38-0.199,4.975-0.299c5.07-0.206,8.47,4.949,10.455,8.792l8.613,19.314l0.754,0.749
			l18.782,0.122C615.859,193.585,616.327,193.395,616.138,192.927z M589.495,146.628c-3.17,6.491-11.256,3.796-17.265,4.286
			c-0.487-4.976-0.036-10.33-0.054-15.307c3.38-0.388,6.855-0.212,10.424-0.131c2.443,0.367,4.981,1.015,6.398,3.264
			C590.226,140.897,590.707,144.277,589.495,146.628z"/>
		<path id="path30" fill="#010202" d="M681.4,137.575c-4.628-7.496-12.724-13.197-20.901-15.328
			c-12.312-3.15-25.354,0.37-34.338,9.228c-10.858,10.367-12.863,27.841-7.65,41.253c4.36,11.63,16.412,20.602,28.53,21.781
			c14.279,1.547,27.217-4.508,34.781-16.743C688.73,166.004,688.953,149.1,681.4,137.575z M663.872,174.072
			c-3.739,4.709-9.273,6.606-15.099,5.688c-4.791-0.453-9.31-3.817-11.674-8.223c-4.257-9.001-4.017-21.209,1.87-29.401
			c4.583-5.65,12.562-6.335,19.048-4.199c3.292,1.21,6.308,4.298,7.915,7.485C669.625,153.956,669.575,166.446,663.872,174.072z"/>
		<path id="path32" fill="#010202" d="M271.867,164.919c-1.707-4.784-6.791-8.616-11.306-10.479
			c1.873-1.602,3.745-3.393,5.146-5.371c3.738-5.178,3.335-13.252-0.158-18.311c-4.154-6.09-10.828-8.414-17.966-8.578
			l-26.671,0.038c-0.375,0.19-1.033,0.098-1.031,0.661l-0.038,69.962l0.378,0.749l29.3,0.009c6.666-0.211,13.049-1.04,17.823-5.658
			C273.242,182.099,274.43,172.704,271.867,164.919z M236.737,135.647c0.655-0.471,1.69-0.006,2.441-0.29
			c2.067,0.18,4.32-0.015,6.2,0.542c1.973,0.087,4.041,0.831,5.362,2.611c1.417,2.342,1.053,5.725,0.311,8.263
			c-3.366,4.238-8.628,3.223-13.887,3.429l-0.471-0.562L236.737,135.647z M255.937,174.928c-0.464,1.597-1.586,2.916-3.086,3.767
			c-4.878,1.707-10.419,1.351-15.961,1.276c-0.393-5.258-0.319-10.798-0.15-16.151c3.004-0.386,6.574-0.023,10.142-0.036
			c2.536,0.367,5.167,0.64,7.238,2.228C256.759,168.164,256.115,172.017,255.937,174.928z"/>
		
			<rect id="rect34" x="28.895" y="101.625" fill="#E63724" stroke="#E63724" stroke-width="0.2817" width="730.601" height="13.617"/>
		
			<rect id="rect36" x="28.895" y="199.758" fill="#E63724" stroke="#E63724" stroke-width="0.2817" width="730.601" height="13.617"/>
	</g>
</g>
<g id="Layer_8">
	<g id="layer1_2_" transform="translate(106.80193,-432.76044)">
		<path id="path137_1_" fill="#E6332A" d="M63.842,617.793v-68.454h-25.48v68.454H63.842"/>
		<path id="path139_1_" fill="none" stroke="#E6332A" stroke-width="1.3653" d="M63.842,617.793v-68.454h-25.48v68.454H63.842z"/>
		<path id="path141_1_" fill="#E6332A" d="M357.027,549.339l-34.373,0.005l-10.581,28.334c-0.869,2.344-1.124,6.822-1.124,6.822
			s-0.369-4.546-1.21-6.822l-10.494-28.334L265,549.339l-0.032,68.463l21.976-0.009v-40.726c0,0,0,2.417,0.937,4.596l15.555,36.138
			h15.027l15.555-36.976c0.924-2.193,0.924-4.61,0.924-4.61v41.577h22.085V549.339"/>
		<path id="path143_1_" fill="none" stroke="#E6332A" stroke-width="1.3653" d="M357.027,549.339l-34.373,0.005l-10.581,28.334
			c-0.869,2.344-1.124,6.822-1.124,6.822s-0.369-4.546-1.21-6.822l-10.494-28.334L265,549.339l-0.032,68.463l21.976-0.009v-40.726
			c0,0,0,2.417,0.937,4.596l15.555,36.138h15.027l15.555-36.976c0.924-2.193,0.924-4.61,0.924-4.61v41.577h22.085V549.339z"/>
		<path id="path145_1_" fill="#E6332A" d="M547.149,549.339h-24.047v37.586c0,0,0-2.417-1.579-4.255l-28.575-33.331h-25.335v68.454
			h25.335v-37.581c0,0,0,2.412,1.515,4.246l27.515,33.349l25.171-0.014V549.339"/>
		<path id="path147_1_" fill="none" stroke="#E6332A" stroke-width="1.3653" d="M547.149,549.339h-24.047v37.586
			c0,0,0-2.417-1.579-4.255l-28.575-33.331h-25.335v68.454h25.335v-37.581c0,0,0,2.412,1.515,4.246l27.515,33.349l25.171-0.014
			V549.339z"/>
		<path id="path149_1_" fill="#E6332A" d="M459.386,617.802l-34.614-68.454h-26.909l-34.614,68.454h23.25l0,0h3.659l6.399-12.66
			l29.517,0.004l6.403,12.656h1.056v0.005h23.519l-0.005-0.005H459.386z M403.032,587.812c0,0,6.153-12.205,7.218-14.322
			c1.065-2.116,1.065-4.528,1.065-4.528s0,2.412,1.069,4.537l7.25,14.381L403.032,587.812"/>
		<path id="path151_1_" fill="none" stroke="#E6332A" stroke-width="1.3653" d="M459.386,617.802l-34.614-68.454h-26.909
			l-34.614,68.454h23.25l0,0h3.659l6.399-12.66l29.517,0.004l6.403,12.656h1.056v0.005h23.519l-0.005-0.005H459.386z
			 M403.032,587.812c0,0,6.153-12.205,7.218-14.322c1.065-2.116,1.065-4.528,1.065-4.528s0,2.412,1.069,4.537l7.25,14.381
			L403.032,587.812z"/>
		<path id="path153_1_" fill="#E6332A" d="M111.016,599.535l0.004-9.498h38.218v-15.404h-38.218v-8.483h46.519v-16.806
			l-70.671-0.005v68.454h72.527V599.54L111.016,599.535"/>
		<path id="path155_1_" fill="none" stroke="#E6332A" stroke-width="1.3653" d="M111.016,599.535l0.004-9.498h38.218v-15.404
			h-38.218v-8.483h46.519v-16.806l-70.671-0.005v68.454h72.527V599.54L111.016,599.535z"/>
		<path id="path157_1_" fill="#E6332A" d="M-74.819,549.334l36.607,68.55h29.494l36.125-68.545H-1.2l-20.402,41.686
			c-1.056,2.152-1.056,4.564-1.056,4.564s0-2.412-1.083-4.624l-20.397-41.627L-74.819,549.334"/>
		<path id="path159_1_" fill="none" stroke="#E6332A" stroke-width="1.3653" d="M-74.819,549.334l36.607,68.55h29.494l36.125-68.545
			H-1.2l-20.402,41.686c-1.056,2.152-1.056,4.564-1.056,4.564s0-2.412-1.083-4.624l-20.397-41.627L-74.819,549.334z"/>
		<path id="path161_1_" fill="#E6332A" d="M247.283,513.637l-56.172-0.041c0,0-22.031,0.542-22.031,22.295
			c0,22.377,22.031,21.871,22.031,21.871l33.381-0.046c0,0,4.405,0,4.405,4.619c0,4-4.419,4-4.419,4h-53.86v18.772l55.807,0.004
			c0,0,23.756,0.906,23.756-23.546c0-21.043-23.756-21.662-23.756-21.662h-31.633c0,0-4.91,0-4.91-4.009
			c0-3.877,4.91-3.877,4.91-3.877h52.49V513.637"/>
		<path id="path163_1_" fill="none" stroke="#E6332A" stroke-width="1.3653" d="M247.283,513.637l-56.172-0.041
			c0,0-22.031,0.542-22.031,22.295c0,22.377,22.031,21.871,22.031,21.871l33.381-0.046c0,0,4.405,0,4.405,4.619c0,4-4.419,4-4.419,4
			h-53.86v18.772l55.807,0.004c0,0,23.756,0.906,23.756-23.546c0-21.043-23.756-21.662-23.756-21.662h-31.633c0,0-4.91,0-4.91-4.009
			c0-3.877,4.91-3.877,4.91-3.877h52.49V513.637z"/>
		<path id="path165_1_" fill="#E6332A" d="M648.215,549.348h-24.047v37.586c0,0,0-2.417-1.575-4.255l-28.575-33.331h-25.335v68.459
			h25.335v-37.586c0,0,0,2.417,1.515,4.251l27.514,33.344l25.166-0.009V549.348"/>
		<path id="path167_1_" fill="none" stroke="#E6332A" stroke-width="1.3653" d="M648.215,549.348h-24.047v37.586
			c0,0,0-2.417-1.575-4.255l-28.575-33.331h-25.335v68.459h25.335v-37.586c0,0,0,2.417,1.515,4.251l27.514,33.344l25.166-0.009
			V549.348z"/>
		<path id="path169_1_" fill="#E6332A" d="M247.301,595.444l-56.172-0.036c0,0-22.035,0.537-22.035,22.295
			c0,22.372,22.035,21.867,22.035,21.867l33.376-0.041c0,0,4.405,0,4.405,4.619c0,4-4.414,4-4.414,4h-53.86v18.773h55.803
			c0,0,23.76,0.91,23.76-23.542c0-21.048-23.76-21.662-23.76-21.662l-31.629-0.004c0,0-4.91,0-4.91-4.009
			c0-3.877,4.91-3.877,4.91-3.877l52.49,0.004V595.444"/>
		<path id="path171_1_" fill="none" stroke="#E6332A" stroke-width="1.3653" d="M247.301,595.444l-56.172-0.036
			c0,0-22.035,0.537-22.035,22.295c0,22.372,22.035,21.867,22.035,21.867l33.376-0.041c0,0,4.405,0,4.405,4.619c0,4-4.414,4-4.414,4
			h-53.86v18.773h55.803c0,0,23.76,0.91,23.76-23.542c0-21.048-23.76-21.662-23.76-21.662l-31.629-0.004c0,0-4.91,0-4.91-4.009
			c0-3.877,4.91-3.877,4.91-3.877l52.49,0.004V595.444z"/>
	</g>
</g>
</svg>
