<?xml version="1.0" encoding="utf-8"?>
<!-- Generator: Adobe Illustrator 17.0.0, SVG Export Plug-In . SVG Version: 6.00 Build 0)  -->
<!DOCTYPE svg PUBLIC "-//W3C//DTD SVG 1.1//EN" "http://www.w3.org/Graphics/SVG/1.1/DTD/svg11.dtd">
<svg version="1.1" id="Layer_1" xmlns="http://www.w3.org/2000/svg" xmlns:xlink="http://www.w3.org/1999/xlink" x="0px" y="0px"
	 width="283.465px" height="68.984px" viewBox="0 0 283.465 68.984" enable-background="new 0 0 283.465 68.984"
	 xml:space="preserve">
<g>
	<polygon fill="#FFFFFF" points="23.389,21.764 20.785,40.439 17.938,21.764 12.566,21.764 9.679,40.236 7.115,21.764 1.417,21.764 
		6.381,48.414 12.649,48.414 15.253,32.83 17.816,48.414 24.123,48.414 29.087,21.764 	"/>
	<path fill="#FFFFFF" d="M45.432,30.674c0,5.615-2.482,8.748-6.794,8.748h-2.36v8.992h-5.737v-26.65h7.772
		C42.83,21.763,45.432,24.977,45.432,30.674 M36.278,34.783h1.871c1.1,0,1.587-0.976,1.587-4.028c0-3.133-0.487-3.947-1.587-3.947
		h-1.871V34.783z"/>
	<path fill="#FFFFFF" d="M62.237,27.419l-4.069,1.709c-0.528-2.198-1.504-2.849-2.726-2.849c-1.139,0-1.627,0.611-1.627,2.115
		c0,3.988,8.463,4.598,8.463,12.736c0,4.882-2.726,7.649-7.121,7.649c-3.541,0-6.673-2.441-7.324-6.672l4.434-1.343
		c0.53,2.439,1.75,3.214,2.849,3.214c1.303,0,1.749-0.651,1.749-1.954c0-5.004-8.706-5.615-8.706-13.305
		c0-4.067,2.563-7.324,6.796-7.324C59.023,21.396,61.097,23.717,62.237,27.419"/>
	<polygon fill="#FFFFFF" points="74.014,41.009 74.014,48.414 68.319,48.414 68.319,40.967 62.256,21.763 68.522,21.763 
		71.207,33.767 73.853,21.763 80.118,21.763 	"/>
	<path fill="#FFFFFF" d="M94.269,27.419L90.2,29.128c-0.53-2.198-1.506-2.849-2.726-2.849c-1.139,0-1.627,0.611-1.627,2.115
		c0,3.988,8.462,4.598,8.462,12.736c0,4.882-2.725,7.649-7.119,7.649c-3.541,0-6.673-2.441-7.324-6.672l4.434-1.343
		c0.53,2.439,1.75,3.214,2.849,3.214c1.303,0,1.75-0.651,1.75-1.954c0-5.004-8.708-5.615-8.708-13.305
		c0-4.067,2.563-7.324,6.794-7.324C91.053,21.396,93.129,23.717,94.269,27.419"/>
	<polygon fill="#FFFFFF" points="109.611,21.763 109.611,27.052 105.339,27.052 105.339,48.413 99.56,48.413 99.56,27.052 
		95.288,27.052 95.288,21.763 	"/>
	<polygon fill="#FFFFFF" points="123.688,21.763 123.688,27.013 116.853,27.013 116.853,32.383 121.857,32.383 121.857,36.981 
		116.853,36.981 116.853,43.246 123.891,43.246 123.891,48.413 111.116,48.413 111.116,21.763 	"/>
	<polygon fill="#FFFFFF" points="146.298,21.763 146.298,48.413 141.13,48.413 141.13,35.11 137.184,44.711 134.579,44.711 
		130.715,35.149 130.715,48.413 125.546,48.413 125.546,21.763 130.958,21.763 135.922,36.411 140.927,21.763 	"/>
	<polygon fill="#FFFFFF" points="170.587,21.763 170.587,48.413 165.42,48.413 165.42,35.11 161.473,44.711 158.868,44.711 
		155.004,35.149 155.004,48.413 149.837,48.413 149.837,21.763 155.247,21.763 160.213,36.411 165.216,21.763 	"/>
	<path fill="#FFFFFF" d="M188.179,30.064v10.051c0,5.451-2.644,8.667-7.813,8.667c-5.166,0-7.811-3.215-7.811-8.667V30.064
		c0-5.453,2.646-8.667,7.811-8.667C185.535,21.397,188.179,24.611,188.179,30.064 M182.442,30.064c0-2.807-0.57-3.58-2.076-3.58
		c-1.504,0-2.115,0.773-2.115,3.58v10.051c0,2.888,0.611,3.744,2.115,3.744c1.465,0,2.076-0.855,2.076-3.744V30.064z"/>
	<path fill="#FFFFFF" d="M197.919,21.763c5.005,0,7.854,3.255,7.854,8.708v9.154c0,5.494-2.849,8.789-7.854,8.789h-7.811v-26.65
		H197.919 M197.919,26.93h-2.074V43.41h2.074c1.506,0,2.115-0.733,2.115-3.906v-8.789C200.034,27.662,199.425,26.93,197.919,26.93"
		/>
	<path fill="#FFFFFF" d="M223.133,21.763v18.392c0,5.615-2.847,8.625-7.772,8.625c-5.045,0-7.894-2.93-7.894-8.341V21.763h5.737
		v18.676c0,2.115,0.733,2.971,2.157,2.971c1.343,0,2.076-0.773,2.076-2.971V21.763H223.133"/>
	<polygon fill="#FFFFFF" points="230.891,21.763 230.891,43.084 237.4,43.084 237.4,48.413 225.317,48.413 225.317,21.763 	"/>
	<polygon fill="#FFFFFF" points="9.488,56.584 9.488,58.011 6.293,58.011 6.293,61.024 8.781,61.024 8.781,62.275 6.293,62.275 
		6.293,65.657 9.632,65.657 9.632,67.068 4.735,67.068 4.735,56.584 	"/>
	<polygon fill="#FFFFFF" points="16.485,56.584 16.485,58.011 13.257,58.011 13.257,61.136 16.053,61.136 16.053,62.467 
		13.257,62.467 13.257,67.068 11.7,67.068 11.7,56.584 	"/>
	<polygon fill="#FFFFFF" points="23.351,56.584 23.351,58.011 20.123,58.011 20.123,61.136 22.917,61.136 22.917,62.467 
		20.123,62.467 20.123,67.068 18.565,67.068 18.565,56.584 	"/>
	<rect x="25.502" y="56.585" fill="#FFFFFF" width="1.59" height="10.483"/>
	<polygon fill="#FFFFFF" points="34.519,67.067 29.251,67.067 29.251,66.104 32.833,58.011 29.46,58.011 29.46,56.584 
		34.535,56.584 34.535,57.562 30.97,65.657 34.519,65.657 	"/>
	<rect x="36.734" y="56.585" fill="#FFFFFF" width="1.59" height="10.483"/>
	<polygon fill="#FFFFFF" points="45.525,56.584 45.525,58.011 42.33,58.011 42.33,61.024 44.818,61.024 44.818,62.275 42.33,62.275 
		42.33,65.657 45.669,65.657 45.669,67.068 40.772,67.068 40.772,56.584 	"/>
	<polygon fill="#FFFFFF" points="48.909,56.584 52.008,63.203 52.008,56.584 53.374,56.584 53.374,67.068 52.312,67.068 
		49.118,60.239 49.118,67.068 47.736,67.068 47.736,56.584 	"/>
	<polygon fill="#FFFFFF" points="60.781,56.584 60.781,58.028 58.853,58.028 58.853,67.068 57.28,67.068 57.28,58.028 
		55.353,58.028 55.353,56.584 	"/>
	<polygon fill="#FFFFFF" points="67.513,56.584 67.513,58.011 64.318,58.011 64.318,61.024 66.807,61.024 66.807,62.275 
		64.318,62.275 64.318,65.657 67.657,65.657 67.657,67.068 62.761,67.068 62.761,56.584 	"/>
	<polygon fill="#FFFFFF" points="81.068,67.067 79.334,67.067 77.954,59.517 76.54,67.067 74.821,67.067 72.815,56.584 
		74.388,56.584 75.721,64.919 77.214,56.584 78.675,56.584 80.153,64.935 81.517,56.584 83.076,56.584 	"/>
	<path fill="#FFFFFF" d="M85.349,67.068h-1.574l2.505-10.483h1.815l2.522,10.483H89.01l-0.53-2.518h-2.617L85.349,67.068z
		 M85.831,54.902h1.027v1.25h-1.027V54.902z M86.103,63.332h2.135l-1.075-5.177L86.103,63.332z M87.5,54.902h1.027v1.25H87.5V54.902
		z"/>
	<path fill="#FFFFFF" d="M95.077,62.642h-0.931v4.426h-1.557V56.585h2.713c1.784,0,2.586,1.057,2.586,2.933
		c0,1.556-0.499,2.436-1.414,2.756l1.879,4.794h-1.67L95.077,62.642 M94.145,61.377h1.06c0.85,0,1.139-0.514,1.139-1.731
		c0-1.283-0.32-1.684-1.125-1.684h-1.075V61.377z"/>
	<polygon fill="#FFFFFF" points="108.032,56.584 108.032,67.068 106.62,67.068 106.62,60.303 104.531,65.304 103.824,65.304 
		101.753,60.303 101.753,67.068 100.34,67.068 100.34,56.584 101.785,56.584 104.178,62.995 106.587,56.584 	"/>
	<polygon fill="#FFFFFF" points="115.186,56.584 115.186,58.011 111.991,58.011 111.991,61.024 114.481,61.024 114.481,62.275 
		111.991,62.275 111.991,65.657 115.332,65.657 115.332,67.068 110.433,67.068 110.433,56.584 	"/>
	<path fill="#FFFFFF" d="M122.826,59.871c0,2.051-0.885,3.237-2.505,3.237h-1.366v3.96h-1.557V56.584h2.842
		C121.91,56.584,122.826,57.739,122.826,59.871 M118.955,61.826h1.237c0.755,0,1.075-0.545,1.075-1.939
		c0-1.428-0.32-1.924-1.075-1.924h-1.237V61.826z"/>
	<path fill="#FFFFFF" d="M130.681,56.584v7.469c0,2.036-1.044,3.158-2.906,3.158c-1.879,0-2.923-1.107-2.923-3.093v-7.534h1.574
		v7.534c0,1.217,0.561,1.635,1.349,1.635c0.867,0,1.349-0.449,1.349-1.635v-7.534H130.681"/>
	<polygon fill="#FFFFFF" points="140.702,56.584 140.702,67.068 139.288,67.068 139.288,60.303 137.2,65.304 136.494,65.304 
		134.423,60.303 134.423,67.068 133.009,67.068 133.009,56.584 134.454,56.584 136.847,62.995 139.257,56.584 	"/>
	<path fill="#FFFFFF" d="M148.529,59.871c0,2.051-0.884,3.237-2.505,3.237h-1.364v3.96h-1.557V56.584h2.842
		C147.615,56.584,148.529,57.739,148.529,59.871 M144.66,61.826h1.237c0.755,0,1.075-0.545,1.075-1.939
		c0-1.428-0.32-1.924-1.075-1.924h-1.237V61.826z"/>
	<polygon fill="#FFFFFF" points="155.364,56.584 155.364,58.011 152.169,58.011 152.169,61.024 154.658,61.024 154.658,62.275 
		152.169,62.275 152.169,65.657 155.51,65.657 155.51,67.068 150.612,67.068 150.612,56.584 	"/>
	<polygon fill="#FFFFFF" points="158.747,56.584 161.847,63.203 161.847,56.584 163.213,56.584 163.213,67.068 162.153,67.068 
		158.957,60.239 158.957,67.068 157.575,67.068 157.575,56.584 	"/>
	<polygon fill="#FFFFFF" points="177.153,56.584 177.153,67.068 175.74,67.068 175.74,60.303 173.652,65.304 172.946,65.304 
		170.873,60.303 170.873,67.068 169.461,67.068 169.461,56.584 170.906,56.584 173.299,62.995 175.708,56.584 	"/>
	<rect x="179.619" y="56.585" fill="#FFFFFF" width="1.59" height="10.483"/>
	<polygon fill="#FFFFFF" points="188.671,56.584 188.671,58.028 186.744,58.028 186.744,67.068 185.17,67.068 185.17,58.028 
		183.243,58.028 183.243,56.584 	"/>
	<path fill="#FFFFFF" d="M198.95,58.604l-1.125,0.464c-0.223-0.882-0.722-1.298-1.397-1.298c-0.77,0-1.092,0.48-1.092,1.265
		c0,2.101,3.646,2.086,3.646,5.291c0,1.859-1.029,2.885-2.634,2.885c-1.316,0-2.424-0.865-2.698-2.436l1.22-0.385
		c0.241,1.073,0.819,1.49,1.461,1.49c0.788,0,1.156-0.433,1.156-1.346c0-2.324-3.709-2.259-3.709-5.418
		c0-1.523,0.948-2.677,2.538-2.677C197.746,56.439,198.565,57.273,198.95,58.604"/>
	<polygon fill="#FFFFFF" points="204.406,63.749 204.406,67.067 202.849,67.067 202.849,63.749 200.327,56.585 202.045,56.585 
		203.635,62.033 205.225,56.585 206.928,56.585 	"/>
	<path fill="#FFFFFF" d="M213.516,58.604l-1.125,0.464c-0.225-0.882-0.723-1.298-1.397-1.298c-0.771,0-1.092,0.48-1.092,1.265
		c0,2.101,3.645,2.086,3.645,5.291c0,1.859-1.027,2.885-2.634,2.885c-1.314,0-2.423-0.865-2.697-2.436l1.22-0.385
		c0.241,1.073,0.819,1.49,1.462,1.49c0.788,0,1.156-0.433,1.156-1.346c0-2.324-3.709-2.259-3.709-5.418
		c0-1.523,0.948-2.677,2.538-2.677C212.312,56.439,213.131,57.273,213.516,58.604"/>
	<polygon fill="#FFFFFF" points="220.622,56.584 220.622,58.028 218.694,58.028 218.694,67.068 217.121,67.068 217.121,58.028 
		215.193,58.028 215.193,56.584 	"/>
	<polygon fill="#FFFFFF" points="227.355,56.584 227.355,58.011 224.158,58.011 224.158,61.024 226.647,61.024 226.647,62.275 
		224.158,62.275 224.158,65.657 227.499,65.657 227.499,67.068 222.601,67.068 222.601,56.584 	"/>
	<polygon fill="#FFFFFF" points="237.258,56.584 237.258,67.068 235.844,67.068 235.844,60.303 233.757,65.304 233.05,65.304 
		230.978,60.303 230.978,67.068 229.566,67.068 229.566,56.584 231.011,56.584 233.404,62.995 235.813,56.584 	"/>
	<polygon fill="#FFFFFF" points="270.556,1.772 251.307,1.772 260.931,18.443 	"/>
	<polygon fill="#FFFFFF" points="259.062,21.679 239.81,21.679 249.436,38.351 	"/>
	<polygon fill="#FFFFFF" points="239.811,19.521 259.063,19.521 249.435,2.848 	"/>
	<polygon fill="#FFFFFF" points="251.306,39.429 270.555,39.429 260.931,22.758 	"/>
	<polygon fill="#FFFFFF" points="262.8,19.521 282.047,19.521 272.424,2.853 	"/>
	<polygon fill="#FFFFFF" points="282.047,21.679 262.8,21.679 272.423,38.348 	"/>
</g>
</svg>
